<?xml version="1.0" standalone="no"?><!DOCTYPE svg PUBLIC "-//W3C//DTD SVG 1.1//EN" "http://www.w3.org/Graphics/SVG/1.1/DTD/svg11.dtd"><svg t="1748779086649" class="icon" viewBox="0 0 1024 1024" version="1.1" xmlns="http://www.w3.org/2000/svg" p-id="11153" xmlns:xlink="http://www.w3.org/1999/xlink" width="200" height="200"><path d="M781.02 135.046c18.358 16.319 32.98 30.091 43.861 41.312 10.881 11.222 19.214 20.743 24.994 28.564 5.783 7.821 9.353 14.451 10.711 19.894 1.362 5.439 2.043 10.201 2.043 14.282v16.32H712.671c-7.482 0-13.776-2.549-18.873-7.652-5.103-5.098-9.349-11.052-12.755-17.852-3.4-6.8-5.949-13.77-7.646-20.912-1.702-7.14-2.554-13.089-2.554-17.852V65.676h2.043c6.119 0 11.897 0.68 17.34 2.037 5.439 1.362 12.074 4.593 19.891 9.694 7.822 5.098 17.347 12.24 28.564 21.424 11.221 9.179 25.332 21.252 42.339 36.215z" p-id="11154"></path><path d="M753.127 322.244c-82.35 0-149.108-66.758-149.108-149.108V65.033H269.924c-61.762 0-111.831 50.068-111.831 111.831V847.85c0 61.762 50.069 111.831 111.831 111.831h480.873c61.763 0 111.831-50.069 111.831-111.831V322.244H753.127zM468.903 665.756c5.179 5.178 5.179 13.574 0 18.753l-42.193 42.193c-5.178 5.178-13.574 5.179-18.753 0L262.625 581.369c-5.179-5.178-5.179-13.574 0-18.752l42.193-42.194c0.16-0.16 0.348-0.27 0.515-0.42l102.722-102.722c5.178-5.179 13.574-5.178 18.753 0.001l42.194 42.195c5.178 5.179 5.178 13.574 0 18.753l-93.812 93.812 93.713 93.714z m283.602-84.387L607.172 726.702c-5.178 5.179-13.574 5.178-18.752 0l-42.193-42.193c-5.179-5.179-5.179-13.574 0-18.753l93.714-93.714-93.812-93.812c-5.178-5.179-5.178-13.574 0-18.753l42.194-42.195c5.179-5.179 13.574-5.179 18.752-0.001l102.723 102.722c0.166 0.151 0.354 0.26 0.515 0.42l42.193 42.194c5.177 5.177 5.177 13.574-0.001 18.752z" p-id="11155"></path></svg>
