<svg xmlns="http://www.w3.org/2000/svg" width="37" height="14" fill="none" viewBox="0 0 37 14" class="short-cut-lh6ko_"><rect width="22.3" height="12.3" x="0.35" y="0.85" stroke="currentColor" stroke-width="0.7" rx="1.65"></rect><path fill="currentColor" d="M6.97 10.666c-1.913 0-3.11-1.416-3.11-3.682v-.01c0-2.27 1.192-3.686 3.106-3.686 1.484 0 2.642.933 2.852 2.285l-.005.01h-.884l-.005-.01C8.69 4.67 7.938 4.1 6.966 4.1c-1.353 0-2.202 1.113-2.202 2.876v.01c0 1.762.85 2.87 2.207 2.87.981 0 1.728-.502 1.948-1.313l.01-.01h.889v.01c-.235 1.289-1.348 2.124-2.847 2.124m5.885-.127c-1.084 0-1.538-.4-1.538-1.406V5.939h-.83v-.703h.83V3.874h.879v1.362h1.152v.703h-1.152v2.979c0 .62.215.87.761.87.152 0 .235-.006.391-.02v.722c-.166.03-.327.05-.493.05m1.563-.039V5.236h.85v.782h.077c.2-.552.694-.874 1.407-.874.16 0 .341.02.424.034v.825a3 3 0 0 0-.522-.049c-.81 0-1.387.513-1.387 1.284V10.5zm3.657 0V3.146h.85V10.5z"></path><rect width="12.3" height="12.3" x="24.35" y="0.85" stroke="currentColor" stroke-width="0.7" rx="1.65"></rect><path fill="currentColor" d="M28.103 10.5V3.454h.878v3.423h.079l3.085-3.423h1.104l-2.817 3.042 3.076 4.004H32.37l-2.544-3.394-.845.933V10.5z"></path></svg>
