<?xml version="1.0" standalone="no"?><!DOCTYPE svg PUBLIC "-//W3C//DTD SVG 1.1//EN" "http://www.w3.org/Graphics/SVG/1.1/DTD/svg11.dtd"><svg class="icon" width="200px" height="200.00px" viewBox="0 0 1024 1024" version="1.1" xmlns="http://www.w3.org/2000/svg"><path d="M159.68 155.712m28.48 0l96.896 0q28.48 0 28.48 28.48l0 92.992q0 28.48-28.48 28.48l-96.896 0q-28.48 0-28.48-28.48l0-92.992q0-28.48 28.48-28.48ZM915.2 1024h51.84a56.96 56.96 0 0 0 56.96-56.96v-56.832h-108.8zM966.976 0H608a56.96 56.96 0 0 0-57.024 56.96v347.456a56.96 56.96 0 0 0 57.024 56.96h359.168a57.024 57.024 0 0 0 56.832-56.96V56.96a56.96 56.96 0 0 0-57.024-56.96z m0.448 377.6a28.48 28.48 0 0 1-28.48 28.48H635.84a28.544 28.544 0 0 1-28.544-28.48V83.2a28.544 28.544 0 0 1 28.544-28.032h303.104a28.48 28.48 0 0 1 28.48 28.48zM738.944 155.712h96.832a28.544 28.544 0 0 1 28.544 28.544v92.928a28.48 28.48 0 0 1-28.48 28.48h-96.896a28.48 28.48 0 0 1-28.48-28.48V184.192a28.544 28.544 0 0 1 28.544-28.544zM714.24 1011.968l12.032 12.032h99.264v-113.792H714.24v101.76zM966.976 562.624h-54.912v183.04h-89.6v-183.04H608a56.96 56.96 0 0 0-57.024 56.96v228.928l77.504 77.696v-283.84h85.76v180.032H1024V619.584a57.024 57.024 0 0 0-57.024-56.96zM416 562.624H264.896L320 617.792h68.16a28.48 28.48 0 0 1 28.48 28.48v68.16l56.576 56.576V619.584a57.024 57.024 0 0 0-57.216-56.96zM416 0H57.024A56.96 56.96 0 0 0 0 56.96v240.768l56.576 56.576V83.648a28.48 28.48 0 0 1 28.48-28.48h303.104a28.48 28.48 0 0 1 28.48 28.48V377.6a28.48 28.48 0 0 1-28.48 28.48H108.8l55.168 55.168H416a57.024 57.024 0 0 0 56.96-56.96V56.96A56.96 56.96 0 0 0 416 0z" /></svg>
