<?xml version="1.0" standalone="no"?><!DOCTYPE svg PUBLIC "-//W3C//DTD SVG 1.1//EN" "http://www.w3.org/Graphics/SVG/1.1/DTD/svg11.dtd"><svg t="1748367817456" class="icon" viewBox="0 0 1024 1024" version="1.1" xmlns="http://www.w3.org/2000/svg" p-id="10388" xmlns:xlink="http://www.w3.org/1999/xlink" width="200" height="200"><path d="M800 1008V720l224-112v288zM576 576l192-96 32-16 192 96-224 112z m-32-304l224-112v256L544 528V272zM288 112L512 0l224 112-224 112z m192 416L256 416V160l224 112v256z m-256 480L0 896V608l224 112v288z m32 16h-0.352 0.672z m0-352L32 560l192-96 32 16 192 96z m224 240l-192 96V720l192-96v288z m256 96l-192-96V624l192 96v288z m32 16h-0.352 0.672z" p-id="10389"></path></svg>