<?xml version="1.0" standalone="no"?><!DOCTYPE svg PUBLIC "-//W3C//DTD SVG 1.1//EN" "http://www.w3.org/Graphics/SVG/1.1/DTD/svg11.dtd"><svg height="505" node-id="1" sillyvg="true" template-height="505" template-width="600" version="1.1" viewBox="0 0 600 505" width="600" xmlns="http://www.w3.org/2000/svg" xmlns:xlink="http://www.w3.org/1999/xlink"><defs node-id="182"><linearGradient gradientUnits="objectBoundingBox" id="linearGradient-11" node-id="10" spreadMethod="pad" x1="0.4999879" x2="0.4999879" y1="100.0341" y2="-6.122033"><stop offset="0" stop-color="#f7b33d"></stop><stop offset="1" stop-color="#e62452"></stop></linearGradient><linearGradient gradientUnits="objectBoundingBox" id="linearGradient-14" node-id="14" spreadMethod="pad" x1="0.49991667" x2="0.49991667" y1="104.695694" y2="-6.4321327"><stop offset="0" stop-color="#f7b33d"></stop><stop offset="1" stop-color="#e62452"></stop></linearGradient><mask height="167.19519" id="mask-2" maskUnits="userSpaceOnUse" node-id="33" width="160.42773" x="62.422523" y="279.3219"><path d="M 124.60 293.30 L 209.50 293.30 L 209.50 431.30 L 124.60 431.30 Z" fill="#ffffff" fill-rule="evenodd" node-id="199" stroke="none" target-height="138" target-width="84.9" target-x="124.6" target-y="293.3"></path></mask><mask height="240.00204" id="mask-4" maskUnits="userSpaceOnUse" node-id="38" width="172.04007" x="385.32175" y="212.996"><path d="M 399.70 233.00 L 487.20 233.00 L 487.20 431.30 L 399.70 431.30 Z" fill="#ffffff" fill-rule="evenodd" node-id="206" stroke="none" target-height="198.29999" target-width="87.5" target-x="399.7" target-y="233"></path></mask><mask height="7.1999817" id="mask-8" maskUnits="userSpaceOnUse" node-id="48" width="152.40001" x="202.3" y="258.40002"><path d="M 214.00 181.00 L 392.00 181.00 L 392.00 412.00 L 214.00 412.00 Z" fill="#ffffff" fill-rule="evenodd" node-id="213" stroke="none" target-height="231" target-width="178" target-x="214" target-y="181"></path></mask><mask height="3.5999756" id="mask1" maskUnits="userSpaceOnUse" node-id="217" width="212.40001" x="197.3" y="278.7"><path d="M 214.00 181.00 L 392.00 181.00 L 392.00 412.00 L 214.00 412.00 Z" fill="#ffffff" fill-rule="evenodd" node-id="221" stroke="none" target-height="231" target-width="178" target-x="214" target-y="181"></path></mask><mask height="3.5999756" id="mask2" maskUnits="userSpaceOnUse" node-id="225" width="212.40001" x="197.3" y="288.7"><path d="M 214.00 181.00 L 392.00 181.00 L 392.00 412.00 L 214.00 412.00 Z" fill="#ffffff" fill-rule="evenodd" node-id="229" stroke="none" target-height="231" target-width="178" target-x="214" target-y="181"></path></mask><mask height="3.5999756" id="mask3" maskUnits="userSpaceOnUse" node-id="233" width="212.40001" x="197.3" y="298.7"><path d="M 214.00 181.00 L 392.00 181.00 L 392.00 412.00 L 214.00 412.00 Z" fill="#ffffff" fill-rule="evenodd" node-id="237" stroke="none" target-height="231" target-width="178" target-x="214" target-y="181"></path></mask><mask height="3.5999756" id="mask4" maskUnits="userSpaceOnUse" node-id="241" width="127.2" x="204.40001" y="308.7"><path d="M 214.00 181.00 L 392.00 181.00 L 392.00 412.00 L 214.00 412.00 Z" fill="#ffffff" fill-rule="evenodd" node-id="245" stroke="none" target-height="231" target-width="178" target-x="214" target-y="181"></path></mask><mask height="7.199997" id="mask5" maskUnits="userSpaceOnUse" node-id="249" width="152.40001" x="201.3" y="163.40001"><path d="M 214.00 181.00 L 392.00 181.00 L 392.00 412.00 L 214.00 412.00 Z" fill="#ffffff" fill-rule="evenodd" node-id="253" stroke="none" target-height="231" target-width="178" target-x="214" target-y="181"></path></mask><mask height="3.600006" id="mask6" maskUnits="userSpaceOnUse" node-id="257" width="211.20003" x="197.40001" y="183.7"><path d="M 214.00 181.00 L 392.00 181.00 L 392.00 412.00 L 214.00 412.00 Z" fill="#ffffff" fill-rule="evenodd" node-id="261" stroke="none" target-height="231" target-width="178" target-x="214" target-y="181"></path></mask><mask height="3.5999908" id="mask7" maskUnits="userSpaceOnUse" node-id="265" width="211.20003" x="197.40001" y="193.70001"><path d="M 214.00 181.00 L 392.00 181.00 L 392.00 412.00 L 214.00 412.00 Z" fill="#ffffff" fill-rule="evenodd" node-id="269" stroke="none" target-height="231" target-width="178" target-x="214" target-y="181"></path></mask><mask height="3.5999908" id="mask8" maskUnits="userSpaceOnUse" node-id="273" width="211.20003" x="197.40001" y="203.70001"><path d="M 214.00 181.00 L 392.00 181.00 L 392.00 412.00 L 214.00 412.00 Z" fill="#ffffff" fill-rule="evenodd" node-id="277" stroke="none" target-height="231" target-width="178" target-x="214" target-y="181"></path></mask><mask height="3.5999908" id="mask9" maskUnits="userSpaceOnUse" node-id="281" width="73.2" x="208.90001" y="213.70001"><path d="M 214.00 181.00 L 392.00 181.00 L 392.00 412.00 L 214.00 412.00 Z" fill="#ffffff" fill-rule="evenodd" node-id="285" stroke="none" target-height="231" target-width="178" target-x="214" target-y="181"></path></mask><mask height="7.1999817" id="mask10" maskUnits="userSpaceOnUse" node-id="289" width="153.59999" x="201.2" y="359.4"><path d="M 214.00 181.00 L 392.00 181.00 L 392.00 412.00 L 214.00 412.00 Z" fill="#ffffff" fill-rule="evenodd" node-id="293" stroke="none" target-height="231" target-width="178" target-x="214" target-y="181"></path></mask><mask height="3.5999756" id="mask11" maskUnits="userSpaceOnUse" node-id="297" width="213.59999" x="196.2" y="378.7"><path d="M 214.00 181.00 L 392.00 181.00 L 392.00 412.00 L 214.00 412.00 Z" fill="#ffffff" fill-rule="evenodd" node-id="301" stroke="none" target-height="231" target-width="178" target-x="214" target-y="181"></path></mask><mask height="3.5999756" id="mask12" maskUnits="userSpaceOnUse" node-id="305" width="213.59999" x="196.2" y="388.7"><path d="M 214.00 181.00 L 392.00 181.00 L 392.00 412.00 L 214.00 412.00 Z" fill="#ffffff" fill-rule="evenodd" node-id="309" stroke="none" target-height="231" target-width="178" target-x="214" target-y="181"></path></mask><mask height="3.5999756" id="mask13" maskUnits="userSpaceOnUse" node-id="313" width="213.59999" x="196.2" y="398.7"><path d="M 214.00 181.00 L 392.00 181.00 L 392.00 412.00 L 214.00 412.00 Z" fill="#ffffff" fill-rule="evenodd" node-id="317" stroke="none" target-height="231" target-width="178" target-x="214" target-y="181"></path></mask><mask height="3.5999756" id="mask14" maskUnits="userSpaceOnUse" node-id="321" width="172.80002" x="199.6" y="408.7"><path d="M 214.00 181.00 L 392.00 181.00 L 392.00 412.00 L 214.00 412.00 Z" fill="#ffffff" fill-rule="evenodd" node-id="325" stroke="none" target-height="231" target-width="178" target-x="214" target-y="181"></path></mask><mask height="7.398041" id="mask-10" maskUnits="userSpaceOnUse" node-id="98" width="2.3047485" x="451.27158" y="167.36423"><path d="M 451.90 174.10 L 453.40 168.20 L 452.90 168.00 L 451.70 172.50 L 451.50 173.90 L 451.90 174.10" fill="#ffffff" fill-rule="evenodd" node-id="332" stroke="none" target-height="6.100006" target-width="1.8999939" target-x="451.5" target-y="168"></path></mask><mask height="7.066986" id="mask-13" maskUnits="userSpaceOnUse" node-id="103" width="2.0747375" x="453.35236" y="167.52954"><path d="M 454.00 174.00 L 455.20 168.30 L 454.80 168.10 L 453.70 172.50 L 453.50 173.80 L 454.00 174.00" fill="#ffffff" fill-rule="evenodd" node-id="339" stroke="none" target-height="5.899994" target-width="1.7000122" target-x="453.5" target-y="168.1"></path></mask></defs><path d="M 565.10 381.10 L 564.80 377.30 L 563.80 373.70 L 562.30 370.40 L 560.30 367.40 L 557.80 364.90 L 553.30 361.50 L 551.10 358.30 L 550.30 354.60 L 550.90 349.20 L 550.70 346.70 L 549.20 342.00 L 548.00 340.00 L 544.70 336.50 L 540.50 334.10 L 536.80 332.80 L 535.90 331.90 L 535.30 330.60 L 535.20 326.80 L 533.90 322.90 L 532.90 321.40 L 530.90 319.50 L 527.20 316.90 L 526.40 315.60 L 526.00 314.20 L 526.60 309.40 L 526.50 306.70 L 525.50 302.60 L 524.10 300.20 L 522.60 298.40 L 517.30 294.60 L 515.30 290.30 L 514.10 288.50 L 512.40 287.00 L 510.50 285.90 L 508.30 285.20 L 505.90 285.10 L 503.60 285.50 L 501.50 286.50 L 499.70 287.90 L 498.30 289.60 L 497.20 291.60 L 496.40 295.20 L 495.70 296.10 L 494.70 296.60 L 489.90 297.10 L 488.10 297.80 L 486.30 298.70 L 483.50 301.20 L 481.50 304.40 L 480.90 306.30 L 480.60 308.30 L 480.70 312.70 L 480.30 314.10 L 479.50 315.40 L 475.90 318.20 L 473.80 320.40 L 472.10 322.90 L 470.30 326.70 L 469.60 327.60 L 468.60 328.20 L 463.30 330.50 L 461.50 331.90 L 458.40 335.30 L 457.30 337.30 L 455.90 341.80 L 455.70 344.20 L 456.00 347.20 L 457.10 351.30 L 456.70 353.90 L 455.00 356.00 L 451.50 357.90 L 447.40 361.00 L 444.20 365.10 L 442.20 369.80 L 441.50 375.20 L 441.80 378.50 L 442.50 381.60 L 444.70 386.70 L 445.00 388.90 L 444.90 391.20 L 444.30 393.40 L 443.20 395.30 L 439.30 399.50 L 437.30 402.20 L 435.70 405.20 L 434.50 408.40 L 433.80 411.80 L 433.50 424.40 L 567.20 424.40 L 567.20 415.40 L 566.50 411.90 L 564.10 407.60 L 560.90 403.40 L 560.10 401.40 L 559.80 399.30 L 559.90 397.20 L 560.50 395.20 L 563.00 390.50 L 564.20 387.50 L 564.90 384.40 L 565.10 381.10" fill="#63bea7" fill-rule="evenodd" id="Fill-7" node-id="18" stroke="none" target-height="139.29999" target-width="133.70001" target-x="433.5" target-y="285.1"></path><path d="M 539.00 384.10 L 538.60 380.40 L 537.70 377.00 L 536.30 373.90 L 534.30 371.00 L 532.00 368.60 L 527.70 365.30 L 525.60 362.30 L 524.90 358.80 L 525.40 353.70 L 525.20 351.20 L 523.80 346.80 L 522.60 344.80 L 519.50 341.50 L 515.60 339.30 L 512.00 338.00 L 511.10 337.10 L 510.50 336.00 L 510.40 332.30 L 509.30 328.60 L 508.30 327.20 L 506.40 325.40 L 502.80 322.90 L 502.10 321.70 L 501.70 320.30 L 502.30 315.70 L 502.10 313.10 L 501.20 309.30 L 499.90 307.00 L 498.40 305.30 L 493.40 301.70 L 491.50 297.50 L 490.40 295.80 L 488.80 294.40 L 486.90 293.30 L 484.90 292.70 L 482.60 292.60 L 480.40 293.00 L 478.40 293.90 L 476.70 295.20 L 475.30 296.90 L 474.30 298.80 L 473.50 302.20 L 472.80 303.00 L 471.90 303.60 L 467.30 304.10 L 465.60 304.70 L 464.00 305.50 L 461.80 307.20 L 460.10 309.40 L 458.70 312.80 L 458.40 314.70 L 458.60 318.80 L 458.20 320.20 L 457.40 321.40 L 454.00 324.10 L 452.00 326.20 L 448.00 333.00 L 442.00 335.90 L 440.30 337.20 L 437.40 340.40 L 436.30 342.30 L 435.00 346.60 L 434.80 348.90 L 435.10 351.70 L 436.10 355.60 L 435.70 358.10 L 434.10 360.10 L 430.70 361.90 L 426.90 364.90 L 423.90 368.70 L 421.90 373.30 L 421.20 378.40 L 421.50 381.60 L 422.20 384.50 L 424.30 389.40 L 424.60 391.50 L 424.50 393.60 L 423.90 395.70 L 422.90 397.60 L 419.20 401.60 L 417.30 404.10 L 415.70 407.00 L 414.60 410.00 L 413.90 413.30 L 413.60 425.30 L 541.00 425.30 L 541.00 416.70 L 540.30 413.30 L 538.00 409.30 L 535.00 405.20 L 534.20 403.40 L 533.90 401.40 L 534.00 399.30 L 534.60 397.40 L 537.00 392.90 L 538.10 390.10 L 538.70 387.20 L 539.00 384.10" fill="#41b093" fill-rule="evenodd" id="Fill-9" node-id="19" stroke="none" target-height="132.69998" target-width="127.399994" target-x="413.6" target-y="292.6"></path><path d="M 159.60 376.70 L 158.80 370.60 L 156.80 365.10 L 154.70 361.80 L 152.20 359.00 L 147.80 355.30 L 145.60 351.90 L 144.80 347.90 L 145.30 342.00 L 145.10 339.20 L 143.60 334.20 L 142.40 331.90 L 139.10 328.10 L 135.00 325.50 L 131.30 324.20 L 130.30 323.10 L 129.70 321.80 L 129.60 317.60 L 128.40 313.30 L 127.40 311.70 L 125.40 309.60 L 121.60 306.80 L 120.80 305.40 L 120.40 303.80 L 121.00 298.60 L 120.90 295.70 L 119.90 291.30 L 118.50 288.60 L 117.00 286.70 L 112.60 283.50 L 111.70 282.60 L 109.80 277.90 L 108.50 275.90 L 106.90 274.20 L 104.90 273.10 L 102.70 272.40 L 100.40 272.20 L 98.00 272.70 L 96.00 273.70 L 94.20 275.20 L 92.70 277.10 L 91.70 279.30 L 90.80 283.20 L 90.10 284.10 L 89.10 284.70 L 84.30 285.30 L 82.50 286.00 L 80.80 287.00 L 77.90 289.70 L 75.90 293.20 L 75.30 295.30 L 75.00 297.40 L 75.10 302.20 L 74.70 303.80 L 73.90 305.20 L 70.30 308.20 L 68.30 310.60 L 66.60 313.30 L 64.80 317.50 L 64.00 318.40 L 63.10 319.20 L 57.80 321.70 L 55.90 323.10 L 52.90 326.80 L 51.70 329.00 L 50.40 333.90 L 50.20 336.50 L 50.50 339.80 L 51.50 344.20 L 51.10 347.10 L 49.50 349.40 L 45.90 351.40 L 41.80 354.80 L 38.70 359.20 L 36.70 364.40 L 35.90 370.30 L 36.20 373.90 L 37.00 377.30 L 39.10 382.80 L 39.50 385.20 L 39.30 387.70 L 38.70 390.10 L 37.70 392.20 L 33.80 396.70 L 31.80 399.70 L 30.20 403.00 L 29.00 406.40 L 28.20 410.10 L 28.00 423.80 L 161.70 423.80 L 161.70 414.00 L 161.00 410.20 L 158.60 405.60 L 155.40 400.90 L 154.60 398.80 L 154.30 396.50 L 154.40 394.20 L 154.90 392.00 L 157.50 386.90 L 158.60 383.70 L 159.30 380.30 L 159.60 376.70" fill="#63bea7" fill-rule="evenodd" id="Fill-11" node-id="20" stroke="none" target-height="151.59998" target-width="133.7" target-x="28" target-y="272.2"></path><path d="M 172.00 381.00 L 171.70 377.20 L 170.80 373.70 L 169.50 370.50 L 167.60 367.60 L 165.40 365.10 L 161.40 361.80 L 159.40 358.80 L 158.70 355.10 L 159.20 349.90 L 159.00 347.40 L 157.70 342.90 L 156.60 340.90 L 153.70 337.50 L 150.00 335.20 L 146.70 333.90 L 145.80 333.00 L 145.30 331.80 L 145.20 328.10 L 144.10 324.20 L 143.20 322.80 L 141.40 321.00 L 138.00 318.40 L 137.30 317.20 L 137.00 315.80 L 137.50 311.10 L 137.40 308.50 L 136.50 304.50 L 135.30 302.20 L 133.90 300.50 L 129.20 296.70 L 127.40 292.50 L 126.30 290.80 L 124.80 289.30 L 123.10 288.20 L 121.20 287.60 L 119.00 287.50 L 116.90 287.90 L 115.10 288.80 L 113.50 290.20 L 112.20 291.90 L 111.30 293.80 L 110.50 297.30 L 109.80 298.10 L 109.00 298.70 L 104.70 299.20 L 103.10 299.80 L 101.50 300.70 L 99.50 302.40 L 97.90 304.60 L 96.90 307.20 L 96.30 310.00 L 96.50 314.30 L 95.40 317.00 L 92.20 319.70 L 90.30 321.80 L 86.50 328.80 L 80.90 331.70 L 79.30 333.00 L 76.60 336.30 L 75.50 338.30 L 74.30 342.60 L 74.20 345.00 L 74.40 347.90 L 75.40 351.90 L 75.00 354.50 L 73.50 356.50 L 70.30 358.30 L 66.70 361.40 L 63.90 365.30 L 62.10 369.90 L 61.40 375.20 L 61.70 378.40 L 62.40 381.40 L 64.20 386.40 L 64.60 388.50 L 64.40 390.70 L 63.90 392.90 L 62.90 394.80 L 59.50 398.80 L 57.70 401.50 L 56.20 404.40 L 55.20 407.50 L 54.50 410.80 L 54.30 423.10 L 173.80 423.10 L 173.80 414.30 L 173.50 411.70 L 172.50 409.20 L 168.20 402.60 L 167.50 400.70 L 167.20 398.60 L 167.30 396.60 L 167.80 394.60 L 170.10 390.00 L 171.10 387.20 L 171.80 384.20 L 172.00 381.00" fill="#41b093" fill-rule="evenodd" id="Fill-13" node-id="21" stroke="none" target-height="135.6" target-width="119.5" target-x="54.3" target-y="287.5"></path><path d="M 587.10 428.70 L 12.70 428.70 L 11.60 428.50 L 10.20 427.10 L 10.00 426.00 L 10.20 425.00 L 11.60 423.50 L 12.70 423.30 L 587.10 423.30 L 588.10 423.50 L 589.00 424.10 L 589.50 425.00 L 589.80 426.00 L 589.50 427.10 L 589.00 427.90 L 587.10 428.70" fill="#9fd4e0" fill-rule="evenodd" id="Fill-15" node-id="22" stroke="none" target-height="5.4000244" target-width="579.8" target-x="10" target-y="423.3"></path><path d="M 487.70 439.90 L 122.00 439.90 L 118.40 439.60 L 114.90 438.90 L 111.70 437.80 L 108.60 436.30 L 105.80 434.40 L 103.30 432.10 L 101.10 429.60 L 99.20 426.80 L 97.60 423.70 L 96.50 420.50 L 95.80 417.10 L 95.60 413.50 L 95.60 201.30 L 95.80 197.60 L 96.50 194.20 L 97.60 191.00 L 99.20 187.90 L 101.10 185.10 L 103.30 182.60 L 105.80 180.30 L 108.60 178.40 L 111.70 176.90 L 114.90 175.80 L 118.40 175.10 L 122.00 174.80 L 487.70 174.80 L 491.30 175.10 L 494.70 175.80 L 497.90 176.90 L 501.00 178.40 L 503.80 180.30 L 506.30 182.60 L 508.60 185.10 L 510.50 187.90 L 512.00 191.00 L 513.10 194.20 L 513.80 197.60 L 514.10 201.30 L 514.10 413.50 L 513.80 417.10 L 513.10 420.50 L 512.00 423.70 L 510.50 426.80 L 508.60 429.60 L 506.30 432.10 L 503.80 434.40 L 501.00 436.30 L 497.90 437.80 L 494.70 438.90 L 491.30 439.60 L 487.70 439.90" fill="#0c252e" fill-rule="evenodd" id="Fill-21" node-id="23" stroke="none" target-height="265.09998" target-width="418.49997" target-x="95.6" target-y="174.8"></path><path d="M 490.80 437.10 L 121.00 437.10 L 117.80 436.80 L 114.70 436.20 L 111.90 435.20 L 106.70 432.20 L 102.40 427.90 L 99.40 422.70 L 98.40 419.90 L 97.80 416.80 L 97.50 413.60 L 97.50 198.30 L 97.80 195.10 L 98.40 192.10 L 99.40 189.20 L 102.40 184.00 L 106.70 179.70 L 109.10 178.10 L 114.70 175.70 L 117.80 175.10 L 121.00 174.90 L 490.80 174.90 L 494.00 175.10 L 497.00 175.70 L 499.90 176.70 L 505.10 179.70 L 509.30 184.00 L 512.40 189.20 L 513.40 192.10 L 514.00 195.10 L 514.20 198.30 L 514.20 413.60 L 514.00 416.80 L 513.40 419.90 L 512.40 422.70 L 511.00 425.50 L 507.30 430.20 L 502.60 433.80 L 499.90 435.20 L 497.00 436.20 L 494.00 436.80 L 490.80 437.10" fill="#184657" fill-rule="evenodd" id="Fill-23" node-id="24" stroke="none" target-height="262.2" target-width="416.7" target-x="97.5" target-y="174.9"></path><path d="M 124.60 431.20 L 487.20 431.20 L 487.20 180.70 L 124.60 180.70 Z" fill="#ffffff" fill-rule="evenodd" id="Fill-25" node-id="25" stroke="none" target-height="250.50002" target-width="362.6" target-x="124.6" target-y="180.7"></path><path d="M 507.60 140.20 L 509.00 139.90 L 510.10 139.10 L 510.90 138.00 L 511.20 136.60 L 510.90 135.20 L 510.10 134.10 L 509.00 133.40 L 507.30 133.10 L 506.50 131.70 L 505.40 130.50 L 503.90 129.80 L 502.30 129.50 L 500.60 129.80 L 499.10 130.50 L 498.00 131.70 L 497.20 133.10 L 495.20 133.40 L 493.60 131.70 L 492.50 131.20 L 491.20 131.00 L 488.90 131.70 L 487.20 133.30 L 486.80 134.40 L 486.60 135.60 L 487.20 137.90 L 488.90 139.60 L 491.20 140.20 L 507.60 140.20 Z" fill="#9fd4e0" fill-rule="evenodd" id="Fill-28" node-id="26" stroke="none" target-height="10.699997" target-width="24.600006" target-x="486.6" target-y="129.5"></path><path d="M 172.00 250.80 L 173.40 250.50 L 174.50 249.70 L 175.30 248.60 L 175.60 247.20 L 175.30 245.80 L 174.50 244.70 L 173.40 244.00 L 171.70 243.70 L 171.00 242.20 L 169.80 241.10 L 168.40 240.40 L 166.70 240.10 L 165.00 240.40 L 163.60 241.10 L 162.40 242.30 L 161.70 243.70 L 159.70 244.00 L 158.00 242.30 L 156.90 241.80 L 155.60 241.60 L 153.30 242.20 L 151.70 243.90 L 151.20 245.00 L 151.10 246.20 L 151.70 248.50 L 153.30 250.20 L 155.60 250.80 L 172.00 250.80 Z" fill="#9fd4e0" fill-rule="evenodd" id="Fill-29" node-id="27" stroke="none" target-height="10.699997" target-width="24.5" target-x="151.1" target-y="240.1"></path><path d="M 137.70 130.90 L 136.20 130.60 L 135.00 129.80 L 134.20 128.60 L 133.90 127.10 L 134.20 125.60 L 135.00 124.40 L 136.20 123.60 L 138.00 123.40 L 138.80 121.80 L 140.00 120.60 L 141.50 119.90 L 143.30 119.60 L 145.10 119.90 L 146.60 120.60 L 147.90 121.80 L 148.70 123.40 L 150.80 123.70 L 152.50 121.90 L 153.70 121.40 L 155.10 121.20 L 157.50 121.80 L 159.30 123.60 L 159.70 124.70 L 159.90 126.00 L 159.30 128.50 L 157.50 130.20 L 155.10 130.90 L 137.70 130.90 Z" fill="#9fd4e0" fill-rule="evenodd" id="Fill-30" node-id="28" stroke="none" target-height="11.299995" target-width="26" target-x="133.9" target-y="119.6"></path><path d="M 300.40 97.50 L 302.30 97.20 L 303.90 96.60 L 305.20 95.50 L 306.30 94.10 L 307.00 92.50 L 307.20 90.70 L 307.00 88.80 L 306.30 87.20 L 305.20 85.90 L 303.90 84.80 L 302.30 84.10 L 300.40 83.90 L 298.10 84.30 L 297.30 82.10 L 296.00 80.30 L 294.40 78.70 L 292.50 77.50 L 290.30 76.70 L 287.90 76.40 L 285.60 76.70 L 283.50 77.40 L 281.60 78.50 L 280.00 80.00 L 278.80 81.80 L 277.90 83.80 L 276.10 83.10 L 274.10 82.80 L 272.10 83.10 L 270.40 83.80 L 268.90 85.00 L 267.80 86.40 L 267.00 88.20 L 266.80 90.20 L 267.00 92.10 L 267.80 93.90 L 268.90 95.30 L 270.40 96.50 L 272.10 97.20 L 274.10 97.50 L 300.40 97.50 Z" fill="#9fd4e0" fill-rule="evenodd" id="Fill-31" node-id="29" stroke="none" target-height="21.099998" target-width="40.400024" target-x="266.8" target-y="76.4"></path><path d="M 80.60 175.00 L 82.50 174.70 L 84.00 174.10 L 85.40 173.00 L 86.50 171.60 L 87.20 170.00 L 87.40 168.20 L 87.20 166.30 L 86.50 164.70 L 85.40 163.30 L 84.00 162.30 L 82.50 161.60 L 80.60 161.30 L 78.30 161.70 L 77.40 159.60 L 76.20 157.70 L 74.60 156.10 L 72.60 154.90 L 70.50 154.20 L 68.10 153.90 L 65.70 154.10 L 63.60 154.80 L 61.70 156.00 L 60.10 157.50 L 58.90 159.20 L 58.00 161.30 L 56.20 160.50 L 54.20 160.30 L 52.20 160.50 L 50.50 161.30 L 49.00 162.40 L 47.90 163.90 L 47.10 165.70 L 46.90 167.60 L 47.10 169.60 L 47.90 171.30 L 49.00 172.80 L 50.50 174.00 L 52.20 174.70 L 54.20 175.00 L 80.60 175.00 Z" fill="#9fd4e0" fill-rule="evenodd" id="Fill-32" node-id="30" stroke="none" target-height="21.100006" target-width="40.5" target-x="46.9" target-y="153.9"></path><g node-id="341"><g node-id="347"><g node-id="370"><path d="M 207.40 389.30 L 207.10 385.50 L 206.10 381.90 L 204.60 378.60 L 202.50 375.60 L 200.10 373.00 L 195.60 369.60 L 193.40 366.50 L 192.60 362.80 L 193.10 357.40 L 192.90 354.80 L 191.50 350.20 L 190.20 348.10 L 187.00 344.70 L 182.80 342.30 L 179.10 341.00 L 178.10 340.00 L 177.50 338.80 L 177.40 335.00 L 176.20 331.00 L 175.20 329.60 L 173.20 327.70 L 169.40 325.10 L 168.60 323.80 L 168.30 322.30 L 168.80 317.60 L 168.70 314.80 L 167.70 310.80 L 166.40 308.40 L 164.80 306.60 L 159.60 302.80 L 157.60 298.50 L 156.30 296.70 L 154.70 295.10 L 152.70 294.00 L 150.60 293.40 L 148.20 293.30 L 145.90 293.70 L 143.80 294.60 L 142.00 296.00 L 140.50 297.80 L 139.50 299.80 L 138.60 303.30 L 137.90 304.20 L 137.00 304.80 L 132.20 305.30 L 130.30 305.90 L 128.60 306.80 L 125.70 309.30 L 123.70 312.60 L 123.10 314.50 L 122.80 316.40 L 123.00 320.80 L 122.50 322.30 L 121.70 323.60 L 118.20 326.40 L 116.10 328.60 L 114.40 331.00 L 112.60 334.90 L 111.80 335.70 L 110.90 336.40 L 105.60 338.70 L 103.70 340.10 L 100.70 343.50 L 99.60 345.50 L 98.20 349.90 L 98.00 352.40 L 98.30 355.30 L 99.40 359.50 L 98.90 362.10 L 97.30 364.20 L 93.70 366.10 L 89.70 369.20 L 86.50 373.20 L 84.50 378.00 L 83.80 383.40 L 84.00 386.70 L 84.80 389.80 L 86.90 394.90 L 87.30 397.10 L 87.20 399.40 L 86.60 401.50 L 85.50 403.50 L 81.60 407.70 L 79.60 410.40 L 78.00 413.40 L 76.80 416.60 L 76.10 420.00 L 75.80 432.60 L 209.50 432.60 L 209.50 423.60 L 208.80 420.00 L 206.40 415.80 L 203.20 411.50 L 202.40 409.60 L 202.10 407.50 L 202.20 405.40 L 202.80 403.30 L 205.30 398.60 L 206.50 395.70 L 207.20 392.60 L 207.40 389.30" fill="#9ad5c6" fill-rule="evenodd" group-id="1,7,30" id="Fill-33" node-id="36" stroke="none" target-height="139.30002" target-width="133.7" target-x="75.8" target-y="293.3"></path></g></g><path d="M 540.80 335.20 L 540.00 329.10 L 537.80 323.80 L 535.60 320.60 L 533.00 317.80 L 528.20 314.20 L 526.90 312.70 L 525.90 310.90 L 525.30 309.00 L 525.10 307.00 L 525.70 301.20 L 525.40 298.50 L 523.90 293.60 L 522.60 291.40 L 519.10 287.70 L 514.70 285.10 L 510.70 283.80 L 509.70 282.80 L 509.10 281.40 L 508.90 277.40 L 507.60 273.20 L 506.60 271.60 L 504.50 269.60 L 500.40 266.80 L 499.60 265.50 L 499.20 263.90 L 499.80 258.80 L 499.70 255.90 L 498.60 251.70 L 497.20 249.10 L 495.50 247.20 L 490.90 244.10 L 489.90 243.10 L 487.90 238.50 L 486.50 236.60 L 484.80 235.00 L 482.70 233.80 L 480.40 233.20 L 477.80 233.00 L 475.40 233.50 L 473.20 234.50 L 471.20 235.90 L 469.70 237.80 L 468.60 240.00 L 467.70 243.70 L 466.90 244.70 L 465.90 245.30 L 460.80 245.80 L 458.80 246.50 L 457.00 247.40 L 454.00 250.10 L 451.80 253.60 L 451.20 255.50 L 450.90 257.70 L 451.00 262.30 L 450.60 263.90 L 449.70 265.20 L 445.90 268.20 L 443.70 270.50 L 441.90 273.20 L 440.00 277.20 L 439.20 278.20 L 438.20 278.90 L 432.50 281.30 L 430.60 282.80 L 427.30 286.40 L 426.10 288.50 L 424.70 293.30 L 424.50 295.90 L 424.80 299.00 L 425.90 303.40 L 425.50 306.20 L 423.70 308.40 L 419.90 310.40 L 415.60 313.70 L 412.30 318.00 L 410.10 323.10 L 409.30 328.80 L 409.60 332.40 L 410.40 335.70 L 412.70 341.10 L 413.10 343.40 L 412.90 345.80 L 412.30 348.20 L 411.20 350.20 L 405.80 356.10 L 402.10 361.80 L 400.80 365.20 L 399.90 369.00 L 399.70 371.50 L 400.40 377.10 L 401.40 379.80 L 402.90 382.60 L 407.10 388.30 L 408.70 391.10 L 410.00 394.30 L 411.50 399.30 L 412.40 404.50 L 413.20 414.90 L 412.80 424.00 L 411.80 433.00 L 538.70 433.00 L 543.00 371.60 L 542.30 367.80 L 539.80 363.30 L 536.30 358.80 L 535.50 356.70 L 535.20 354.50 L 535.30 352.20 L 535.90 350.10 L 538.60 345.10 L 539.80 341.90 L 540.60 338.70 L 540.80 335.20" fill="#9ad5c6" fill-rule="evenodd" group-id="1,8,32" id="Fill-35" node-id="41" stroke="none" target-height="200" target-width="143.29999" target-x="399.7" target-y="233"></path></g><g node-id="342"><g node-id="351"><path d="M 215.00 265.00 L 342.00 265.00 L 342.00 259.00 L 215.00 259.00 Z" fill="#fcc14a" fill-rule="evenodd" group-id="2,11" id="Fill-1578" node-id="51" stroke="none" target-height="6" target-width="127" target-x="215" target-y="259"></path></g><g node-id="352"><path d="M 215.00 282.00 L 392.00 282.00 L 392.00 279.00 L 215.00 279.00 Z" fill="#7cabbd" fill-rule="evenodd" group-id="2,12" id="Fill-1580" node-id="52" stroke="none" target-height="3" target-width="177" target-x="215" target-y="279"></path></g><g node-id="353"><path d="M 215.00 292.00 L 392.00 292.00 L 392.00 289.00 L 215.00 289.00 Z" fill="#7cabbd" fill-rule="evenodd" group-id="2,13" id="Fill-1581" node-id="53" stroke="none" target-height="3" target-width="177" target-x="215" target-y="289"></path></g><g node-id="354"><path d="M 215.00 302.00 L 392.00 302.00 L 392.00 299.00 L 215.00 299.00 Z" fill="#7cabbd" fill-rule="evenodd" group-id="2,14" id="Fill-1582" node-id="54" stroke="none" target-height="3" target-width="177" target-x="215" target-y="299"></path></g><g node-id="355"><path d="M 215.00 312.00 L 321.00 312.00 L 321.00 309.00 L 215.00 309.00 Z" fill="#7cabbd" fill-rule="evenodd" group-id="2,15" id="Fill-1583" node-id="55" stroke="none" target-height="3" target-width="106" target-x="215" target-y="309"></path></g><g node-id="356"><path d="M 214.00 170.00 L 341.00 170.00 L 341.00 164.00 L 214.00 164.00 Z" fill="#035e80" fill-rule="evenodd" group-id="2,16" id="Fill-1584" node-id="56" stroke="none" target-height="6" target-width="127" target-x="214" target-y="164"></path></g><g node-id="357"><path d="M 215.00 187.00 L 391.00 187.00 L 391.00 184.00 L 215.00 184.00 Z" fill="#7cabbd" fill-rule="evenodd" group-id="2,17" id="Fill-1585" node-id="57" stroke="none" target-height="3" target-width="176" target-x="215" target-y="184"></path></g><g node-id="358"><path d="M 215.00 197.00 L 391.00 197.00 L 391.00 194.00 L 215.00 194.00 Z" fill="#7cabbd" fill-rule="evenodd" group-id="2,18" id="Fill-1586" node-id="58" stroke="none" target-height="3" target-width="176" target-x="215" target-y="194"></path></g><g node-id="359"><path d="M 215.00 207.00 L 391.00 207.00 L 391.00 204.00 L 215.00 204.00 Z" fill="#7cabbd" fill-rule="evenodd" group-id="2,19" id="Fill-1587" node-id="59" stroke="none" target-height="3" target-width="176" target-x="215" target-y="204"></path></g><g node-id="360"><path d="M 215.00 217.00 L 276.00 217.00 L 276.00 214.00 L 215.00 214.00 Z" fill="#7cabbd" fill-rule="evenodd" group-id="2,20" id="Fill-1588" node-id="60" stroke="none" target-height="3" target-width="61" target-x="215" target-y="214"></path></g><g node-id="361"><path d="M 214.00 366.00 L 342.00 366.00 L 342.00 360.00 L 214.00 360.00 Z" fill="#e85f5b" fill-rule="evenodd" group-id="2,21" id="Fill-1589" node-id="61" stroke="none" target-height="6" target-width="128" target-x="214" target-y="360"></path></g><g node-id="362"><path d="M 214.00 382.00 L 392.00 382.00 L 392.00 379.00 L 214.00 379.00 Z" fill="#7cabbd" fill-rule="evenodd" group-id="2,22" id="Fill-1590" node-id="62" stroke="none" target-height="3" target-width="178" target-x="214" target-y="379"></path></g><g node-id="363"><path d="M 214.00 392.00 L 392.00 392.00 L 392.00 389.00 L 214.00 389.00 Z" fill="#7cabbd" fill-rule="evenodd" group-id="2,23" id="Fill-1591" node-id="63" stroke="none" target-height="3" target-width="178" target-x="214" target-y="389"></path></g><g node-id="364"><path d="M 214.00 402.00 L 392.00 402.00 L 392.00 399.00 L 214.00 399.00 Z" fill="#7cabbd" fill-rule="evenodd" group-id="2,24" id="Fill-1592" node-id="64" stroke="none" target-height="3" target-width="178" target-x="214" target-y="399"></path></g><path d="M 214.00 412.00 L 358.00 412.00 L 358.00 409.00 L 214.00 409.00 Z" fill="#7cabbd" fill-rule="evenodd" group-id="2,25" id="Fill-1593" node-id="65" stroke="none" target-height="3" target-width="144" target-x="214" target-y="409"></path></g><g node-id="343"><path d="M 405.70 100.60 L 405.20 91.70 L 405.30 79.20 L 391.00 79.80 L 390.70 97.30 L 390.20 101.40 L 388.70 103.00 L 379.50 107.50 L 377.00 109.50 L 379.50 111.30 L 395.80 118.80 L 398.50 120.40 L 399.10 120.60 L 400.70 120.20 L 404.80 117.90 L 409.50 114.40 L 413.60 110.60 L 415.90 107.30 L 407.20 102.90 L 406.30 102.00 L 405.70 100.60" fill="#ffd6cb" fill-rule="evenodd" group-id="3" id="Fill-1596" node-id="67" stroke="none" target-height="41.4" target-width="38.899994" target-x="377" target-y="79.2"></path><path d="M 404.50 78.90 L 391.40 79.40 L 391.20 88.70 L 392.60 91.40 L 394.80 93.80 L 396.10 94.60 L 397.80 94.90 L 399.70 94.50 L 401.00 93.80 L 403.00 91.60 L 404.40 89.20 L 404.50 78.90" fill="#f4b6a5" fill-rule="evenodd" group-id="3" id="Fill-1599" node-id="68" stroke="none" target-height="16" target-width="13.299988" target-x="391.2" target-y="78.9"></path><path d="M 394.60 79.40 L 394.40 80.60 L 393.10 82.50 L 391.00 83.60 L 389.70 83.60 L 387.40 82.90 L 385.90 81.10 L 385.50 80.00 L 385.40 78.70 L 386.20 76.40 L 388.00 74.90 L 390.40 74.40 L 391.60 74.70 L 393.50 76.00 L 394.60 78.10 L 394.60 79.40" fill="#ffccbe" fill-rule="evenodd" group-id="3" id="Fill-1600" node-id="69" stroke="none" target-height="9.199997" target-width="9.200012" target-x="385.4" target-y="74.4"></path><path d="M 392.50 79.20 L 391.60 80.90 L 389.90 81.50 L 388.20 80.60 L 387.60 78.90 L 388.40 77.20 L 390.20 76.60 L 391.90 77.40 L 392.50 79.20" fill="#ed6d53" fill-rule="evenodd" group-id="3" id="Fill-1601" node-id="70" stroke="none" target-height="4.9000015" target-width="4.899994" target-x="387.6" target-y="76.6"></path><path d="M 387.20 77.80 L 386.30 76.60 L 385.70 74.70 L 385.60 72.60 L 386.50 68.90 L 388.50 66.60 L 391.70 64.80 L 392.80 62.70 L 393.90 61.60 L 396.90 60.30 L 398.50 60.30 L 402.00 61.50 L 403.50 61.60 L 404.80 61.40 L 407.10 60.00 L 410.50 56.50 L 411.90 55.60 L 413.60 55.00 L 415.70 54.70 L 424.00 55.50 L 425.80 55.20 L 427.00 54.60 L 427.90 53.70 L 429.20 51.20 L 430.10 50.30 L 432.70 48.90 L 436.10 48.40 L 439.70 49.30 L 441.70 50.40 L 448.10 55.30 L 450.60 56.40 L 453.00 56.10 L 458.70 54.20 L 461.70 54.40 L 464.00 56.00 L 465.00 57.50 L 465.50 59.10 L 465.50 60.90 L 465.10 62.50 L 464.30 64.10 L 463.20 65.30 L 461.80 66.10 L 458.90 66.60 L 458.10 67.10 L 457.70 67.80 L 457.60 69.30 L 459.20 74.70 L 459.40 76.90 L 458.30 79.20 L 456.30 80.80 L 453.40 81.20 L 448.90 80.10 L 447.20 79.90 L 445.80 80.30 L 444.70 81.00 L 441.80 84.60 L 440.30 85.30 L 438.60 85.60 L 435.30 85.10 L 432.20 83.20 L 430.20 82.50 L 428.80 82.30 L 427.30 82.60 L 422.80 85.10 L 420.40 85.80 L 419.10 85.60 L 415.40 84.40 L 413.20 84.00 L 409.20 85.50 L 407.70 85.60 L 403.80 84.70 L 387.20 77.80 Z" fill="#5b1902" fill-rule="evenodd" group-id="3" id="Fill-1602" node-id="71" stroke="none" target-height="37.4" target-width="79.899994" target-x="385.6" target-y="48.4"></path><path d="M 398.30 79.90 L 398.00 76.50 L 411.00 77.30 L 415.10 75.20 L 416.70 74.80 L 418.10 74.70 L 422.90 75.50 L 424.70 74.60 L 427.90 70.90 L 430.90 69.80 L 433.10 70.30 L 437.10 72.30 L 438.50 72.50 L 440.70 71.80 L 443.50 69.20 L 446.30 68.70 L 449.30 69.50 L 454.30 72.00 L 458.40 72.50 L 459.20 74.70 L 459.40 76.90 L 458.30 79.20 L 457.40 80.10 L 454.90 81.20 L 453.40 81.20 L 448.90 80.10 L 447.20 79.90 L 445.80 80.30 L 444.70 81.00 L 441.80 84.60 L 440.30 85.30 L 438.60 85.60 L 435.30 85.10 L 432.20 83.20 L 430.20 82.50 L 428.80 82.30 L 427.30 82.60 L 422.80 85.10 L 420.40 85.80 L 413.20 83.90 L 409.30 85.40 L 405.20 85.30 L 404.00 85.10 L 398.30 79.90 Z" fill="#380e00" fill-rule="evenodd" group-id="3" id="Fill-1603" node-id="72" stroke="none" target-height="17.100006" target-width="61.399994" target-x="398" target-y="68.7"></path><path d="M 401.70 79.40 L 402.00 80.60 L 403.30 82.50 L 405.40 83.60 L 406.60 83.60 L 408.90 82.90 L 410.50 81.10 L 410.80 80.00 L 410.90 78.70 L 410.10 76.40 L 408.40 74.90 L 406.00 74.40 L 404.80 74.70 L 402.80 76.00 L 401.80 78.10 L 401.70 79.40" fill="#f4b6a5" fill-rule="evenodd" group-id="3" id="Fill-1604" node-id="73" stroke="none" target-height="9.199997" target-width="9.199982" target-x="401.7" target-y="74.4"></path><path d="M 403.90 79.20 L 404.70 80.90 L 406.50 81.50 L 408.20 80.60 L 408.80 78.90 L 407.90 77.20 L 406.20 76.60 L 404.50 77.40 L 403.90 79.20" fill="#ed6d53" fill-rule="evenodd" group-id="3" id="Fill-1605" node-id="74" stroke="none" target-height="4.9000015" target-width="4.899994" target-x="403.9" target-y="76.6"></path><path d="M 389.40 81.00 L 389.90 84.20 L 390.60 86.80 L 392.30 89.70 L 394.90 91.50 L 398.80 92.10 L 401.40 91.40 L 402.60 90.60 L 404.10 89.00 L 405.30 86.70 L 406.10 84.10 L 406.30 81.00 L 406.20 77.60 L 405.70 74.70 L 404.10 71.50 L 403.00 70.30 L 401.50 69.40 L 399.70 68.90 L 397.20 68.60 L 394.80 68.90 L 393.00 69.50 L 391.70 70.40 L 390.70 71.60 L 389.60 74.90 L 389.40 81.00" fill="#ffd6cb" fill-rule="evenodd" group-id="3" id="Fill-1606" node-id="75" stroke="none" target-height="23.5" target-width="16.899994" target-x="389.4" target-y="68.6"></path><path d="M 398.00 80.90 L 396.40 84.00 L 396.40 84.60 L 396.90 84.80 L 398.80 84.90 L 398.00 80.90 Z" fill="#f4b6a5" fill-rule="evenodd" group-id="3" id="Fill-1609" node-id="76" stroke="none" target-height="4" target-width="2.399994" target-x="396.4" target-y="80.9"></path><path d="M 410.80 80.20 L 407.60 80.90 L 405.30 80.40 L 403.50 79.40 L 402.80 78.60 L 401.30 74.70 L 400.50 73.50 L 399.40 72.80 L 398.30 72.60 L 394.80 73.50 L 391.10 73.30 L 390.30 73.60 L 389.70 74.50 L 390.20 73.10 L 391.00 72.20 L 394.30 70.40 L 399.10 69.30 L 403.70 69.60 L 405.70 70.40 L 407.20 71.60 L 407.80 72.40 L 408.50 74.10 L 410.20 76.20 L 410.70 77.30 L 410.80 80.20" fill="#380e00" fill-rule="evenodd" group-id="3" id="Fill-1610" node-id="77" stroke="none" target-height="11.599998" target-width="21.099976" target-x="389.7" target-y="69.3"></path><path d="M 404.70 78.70 L 402.10 78.40 L 399.60 78.90 L 399.40 78.60 L 400.00 78.20 L 402.10 77.60 L 404.20 78.00 L 404.80 78.40 L 404.70 78.70 Z" fill="#333333" fill-rule="evenodd" group-id="3" id="Fill-1611" node-id="78" stroke="none" target-height="1.300003" target-width="5.399994" target-x="399.4" target-y="77.6"></path><path d="M 400.90 80.90 L 402.60 81.10 L 404.30 80.80 L 403.50 81.40 L 401.70 81.50 L 400.80 81.10 L 400.90 80.90 Z" fill="#1a1a1a" fill-rule="evenodd" group-id="3" id="Fill-1612" node-id="79" stroke="none" target-height="0.69999695" target-width="3.5" target-x="400.8" target-y="80.8"></path><path d="M 391.90 80.90 L 393.50 81.10 L 395.10 80.80 L 395.20 80.90 L 394.40 81.40 L 393.50 81.60 L 392.20 81.30 L 391.90 80.90 Z" fill="#1a1a1a" fill-rule="evenodd" group-id="3" id="Fill-1613" node-id="80" stroke="none" target-height="0.7999954" target-width="3.3000183" target-x="391.9" target-y="80.8"></path><path d="M 395.90 78.60 L 393.70 78.30 L 391.30 78.60 L 392.50 77.70 L 393.70 77.50 L 395.50 78.00 L 396.10 78.20 L 395.90 78.60 Z" fill="#333333" fill-rule="evenodd" group-id="3" id="Fill-1614" node-id="81" stroke="none" target-height="1.0999985" target-width="4.8000183" target-x="391.3" target-y="77.5"></path><path d="M 395.80 86.70 L 396.50 87.10 L 398.10 87.30 L 400.30 86.80 L 400.30 86.50 L 395.80 86.70" fill="#ed6d53" fill-rule="evenodd" group-id="3" id="Fill-1615" node-id="82" stroke="none" target-height="0.80000305" target-width="4.5" target-x="395.8" target-y="86.5"></path><path d="M 410.90 77.30 L 406.60 78.80 L 405.20 78.80 L 403.90 78.30 L 403.20 77.60 L 401.70 73.60 L 400.90 72.40 L 399.80 71.80 L 397.80 71.80 L 395.20 72.90 L 391.80 73.00 L 389.50 73.90 L 389.60 71.50 L 390.20 70.10 L 391.80 68.50 L 393.30 67.80 L 395.70 67.20 L 398.50 67.10 L 401.20 67.40 L 403.70 68.10 L 406.00 69.20 L 407.60 70.50 L 409.70 73.60 L 410.90 77.30" fill="#5b1902" fill-rule="evenodd" group-id="3" id="Fill-1618" node-id="83" stroke="none" target-height="11.700005" target-width="21.399994" target-x="389.5" target-y="67.1"></path><path d="M 382.40 179.30 L 380.20 179.10 L 377.00 177.70 L 375.80 176.60 L 374.50 174.70 L 373.50 172.50 L 372.70 167.00 L 373.30 160.80 L 374.10 158.10 L 375.10 155.70 L 378.10 151.70 L 380.60 149.50 L 383.50 147.70 L 386.60 146.30 L 389.90 145.30 L 396.70 144.50 L 400.20 144.70 L 403.50 145.40 L 406.80 146.50 L 409.90 148.10 L 412.80 150.00 L 415.30 152.40 L 417.50 155.10 L 419.30 158.20 L 420.50 161.60 L 421.20 167.30 L 421.00 170.00 L 420.40 172.50 L 419.30 174.70 L 417.90 176.60 L 415.10 178.60 L 413.20 179.10 L 411.10 179.30 L 382.40 179.30 Z" fill="#035e80" fill-rule="evenodd" group-id="3" id="Fill-1619" node-id="84" stroke="none" target-height="34.800003" target-width="48.5" target-x="372.7" target-y="144.5"></path><path d="M 409.60 178.70 L 381.80 178.70 L 380.40 178.50 L 379.30 177.70 L 378.60 176.60 L 378.30 175.30 L 378.30 166.70 L 378.60 165.30 L 379.30 164.20 L 380.40 163.50 L 381.80 163.20 L 409.60 163.20 L 411.00 163.50 L 412.10 164.20 L 412.80 165.30 L 413.10 166.70 L 413.10 175.30 L 412.80 176.60 L 412.10 177.70 L 411.00 178.50 L 409.60 178.70" fill="#003245" fill-rule="evenodd" group-id="3" id="Fill-1620" node-id="85" stroke="none" target-height="15.5" target-width="34.80002" target-x="378.3" target-y="163.2"></path><path d="M 387.50 103.50 L 382.80 105.50 L 377.10 108.70 L 375.80 109.90 L 372.20 114.30 L 381.00 143.10 L 412.50 143.10 L 423.60 114.20 L 421.80 111.80 L 418.30 108.50 L 415.80 106.90 L 408.30 103.40 L 401.00 111.30 L 398.60 112.80 L 396.00 111.40 L 387.50 103.50" fill="#e289a9" fill-rule="evenodd" group-id="3" id="Fill-1621" node-id="86" stroke="none" target-height="39.700005" target-width="51.399994" target-x="372.2" target-y="103.4"></path><path d="M 398.60 113.70 L 399.60 113.40 L 401.10 112.30 L 404.20 109.20 L 408.90 103.60 L 408.30 103.40 L 401.00 111.30 L 398.60 112.80 L 396.00 111.40 L 387.50 103.50 L 386.90 103.70 L 392.20 109.10 L 395.90 112.30 L 398.60 113.70" fill="#faf8dc" fill-rule="evenodd" group-id="3" id="Fill-1622" node-id="87" stroke="none" target-height="10.299995" target-width="22" target-x="386.9" target-y="103.4"></path><path d="M 372.30 114.30 L 373.90 117.50 L 378.20 122.60 L 379.00 124.30 L 379.50 126.60 L 376.30 133.10 L 370.70 146.60 L 383.10 147.60 L 389.30 148.40 L 394.40 149.50 L 394.20 157.50 L 366.70 157.50 L 364.50 157.30 L 362.70 156.70 L 361.30 155.70 L 360.20 154.30 L 359.50 152.70 L 359.20 150.60 L 359.20 147.80 L 360.80 139.70 L 362.20 135.30 L 365.60 126.70 L 369.20 119.50 L 372.30 114.30" fill="#ffd6cb" fill-rule="evenodd" group-id="3" id="Fill-1623" node-id="88" stroke="none" target-height="43.199997" target-width="35.19998" target-x="359.2" target-y="114.3"></path><path d="M 423.20 114.30 L 422.80 116.20 L 421.70 118.00 L 416.50 123.90 L 415.90 125.70 L 424.30 146.80 L 412.10 146.90 L 406.10 147.40 L 401.40 148.30 L 401.40 157.50 L 428.90 157.50 L 431.10 157.30 L 432.90 156.60 L 434.30 155.60 L 435.40 154.10 L 436.10 152.40 L 436.40 150.20 L 436.30 147.40 L 434.50 139.10 L 431.00 128.90 L 428.70 123.70 L 426.10 118.80 L 423.20 114.30" fill="#ffd6cb" fill-rule="evenodd" group-id="3" id="Fill-1624" node-id="89" stroke="none" target-height="43.199997" target-width="35" target-x="401.4" target-y="114.3"></path><path d="M 379.50 164.50 L 381.70 164.50 L 383.50 164.90 L 385.10 165.90 L 387.60 169.00 L 388.80 171.40 L 391.50 180.30 L 401.40 220.00 L 404.50 230.60 L 404.80 232.30 L 404.30 234.40 L 402.30 236.80 L 400.40 241.40 L 398.90 243.80 L 397.60 245.00 L 396.20 245.80 L 394.70 246.10 L 394.10 246.00 L 393.80 245.40 L 393.70 244.20 L 394.90 239.30 L 397.30 233.60 L 396.80 230.90 L 393.40 222.20 L 378.50 189.70 L 375.20 180.20 L 374.40 173.90 L 374.40 171.10 L 374.90 168.90 L 375.90 167.10 L 377.00 165.80 L 378.30 164.90 L 379.50 164.50" fill="#ffd1c4" fill-rule="evenodd" group-id="3" id="Fill-1625" node-id="90" stroke="none" target-height="81.600006" target-width="30.399994" target-x="374.4" target-y="164.5"></path><path d="M 403.30 164.30 L 404.70 164.50 L 405.90 165.20 L 406.90 166.30 L 408.00 168.50 L 408.70 171.40 L 409.30 177.70 L 409.10 183.60 L 408.20 191.00 L 406.20 201.80 L 403.30 214.10 L 401.60 220.20 L 395.00 240.00 L 394.20 243.60 L 393.70 247.80 L 392.50 249.60 L 391.20 250.50 L 387.70 251.20 L 384.70 251.10 L 384.00 250.60 L 383.80 249.80 L 384.10 248.00 L 387.40 237.80 L 388.80 232.30 L 392.30 212.60 L 394.30 193.10 L 394.50 177.40 L 394.80 173.20 L 395.30 170.50 L 396.10 168.40 L 397.20 166.70 L 399.50 165.00 L 403.30 164.30" fill="#ffddd4" fill-rule="evenodd" group-id="3" id="Fill-1629" node-id="91" stroke="none" target-height="86.899994" target-width="25.5" target-x="383.8" target-y="164.3"></path><path d="M 373.20 169.40 L 375.30 168.00 L 377.60 167.30 L 381.40 166.60 L 391.40 166.00 L 402.10 166.40 L 406.90 167.00 L 411.30 167.80 L 414.30 168.80 L 413.70 156.30 L 375.80 157.00 L 373.20 169.40 Z" fill="#035e80" fill-rule="evenodd" group-id="3" id="Fill-1631" node-id="92" stroke="none" target-height="13.099991" target-width="41.099976" target-x="373.2" target-y="156.3"></path><path d="M 416.20 157.20 L 375.10 157.20 L 373.30 156.50 L 372.50 154.70 L 372.50 128.90 L 372.70 127.90 L 374.10 126.50 L 375.10 126.30 L 416.20 126.30 L 418.00 127.10 L 418.70 128.90 L 418.70 154.70 L 418.00 156.50 L 416.20 157.20" fill="#fcfbeb" fill-rule="evenodd" group-id="3" id="Fill-1632" node-id="93" stroke="none" target-height="30.899994" target-width="46.200012" target-x="372.5" target-y="126.3"></path><path d="M 418.70 157.80 L 372.50 157.80 L 372.50 129.50 L 373.30 127.60 L 375.10 126.90 L 416.20 126.90 L 418.00 127.60 L 418.70 129.50 L 418.70 157.80 Z" fill="#e6e5ce" fill-rule="evenodd" group-id="3" id="Fill-1633" node-id="94" stroke="none" target-height="30.900002" target-width="46.200012" target-x="372.5" target-y="126.9"></path><path d="M 418.70 157.80 L 372.50 157.80 L 372.50 158.70 L 373.10 159.30 L 418.20 159.30 L 418.70 158.70 L 418.70 157.80 Z" fill="#184657" fill-rule="evenodd" group-id="3" id="Fill-1634" node-id="95" stroke="none" target-height="1.5" target-width="46.200012" target-x="372.5" target-y="157.8"></path><path d="M 399.50 142.30 L 399.20 143.80 L 398.30 145.10 L 397.00 146.00 L 395.50 146.30 L 393.90 146.00 L 392.60 145.10 L 391.70 143.80 L 391.40 142.30 L 391.70 140.70 L 392.60 139.40 L 393.90 138.50 L 395.50 138.20 L 397.00 138.50 L 398.30 139.40 L 399.20 140.70 L 399.50 142.30" fill="#faf8dc" fill-rule="evenodd" group-id="3" id="Fill-1635" node-id="96" stroke="none" target-height="8.100006" target-width="8.100006" target-x="391.4" target-y="138.2"></path><g node-id="366"><g node-id="375"><path d="M 451.90 174.10 L 453.40 168.20 L 452.90 168.00 L 451.70 172.50 L 451.50 173.90 L 451.90 174.10" fill="url(#linearGradient-11)" fill-rule="evenodd" group-id="3,26,35" id="Fill-1721" node-id="101" stroke="none" target-height="6.100006" target-width="1.8999939" target-x="451.5" target-y="168"></path></g></g><g node-id="367"><g node-id="377"><path d="M 454.00 174.00 L 455.20 168.30 L 454.80 168.10 L 453.70 172.50 L 453.50 173.80 L 454.00 174.00" fill="url(#linearGradient-14)" fill-rule="evenodd" group-id="3,27,37" id="Fill-1723" node-id="106" stroke="none" target-height="5.899994" target-width="1.7000122" target-x="453.5" target-y="168.1"></path></g></g><g node-id="368"><path d="M 457.10 160.30 L 457.10 152.50 L 456.40 148.80 L 454.50 146.60 L 453.30 146.00 L 452.00 145.80 L 449.40 146.60 L 448.40 147.60 L 447.10 150.40 L 446.90 160.30 L 447.10 162.90 L 447.80 164.90 L 448.70 166.40 L 450.10 167.50 L 451.60 168.20 L 456.00 168.40 L 457.70 168.20 L 459.20 167.50 L 460.50 166.40 L 461.50 164.90 L 462.10 162.90 L 462.40 160.30 L 457.10 160.30 Z" fill="#ffeee3" fill-rule="evenodd" group-id="3,28" id="Fill-1725" node-id="108" stroke="none" target-height="22.59999" target-width="15.5" target-x="446.9" target-y="145.8"></path><path d="M 444.40 151.70 L 447.60 153.50 L 447.60 149.90 Z" fill="#f69548" fill-rule="evenodd" group-id="3,28" id="Fill-1727" node-id="109" stroke="none" target-height="3.600006" target-width="3.2000122" target-x="444.4" target-y="149.9"></path><path d="M 450.80 150.80 L 450.20 151.70 L 449.70 150.80 L 450.20 149.90 L 450.80 150.80" fill="#000000" fill-rule="evenodd" group-id="3,28" id="Fill-1729" node-id="110" stroke="none" target-height="1.800003" target-width="1.0999756" target-x="449.7" target-y="149.9"></path><path d="M 461.20 154.30 L 461.70 157.20 L 460.90 160.30 L 458.90 162.60 L 456.70 163.80 L 454.70 164.30 L 453.40 164.30 L 451.70 163.30 L 451.40 161.50 L 451.80 160.20 L 453.00 158.50 L 454.90 156.80 L 457.80 155.30 L 461.20 154.30" fill="#f2d79d" fill-rule="evenodd" group-id="3,28" id="Fill-1731" node-id="111" stroke="none" target-height="10" target-width="10.300018" target-x="451.4" target-y="154.3"></path></g></g><path d="M 499.70 313.70 L 498.70 313.30 L 498.20 312.20 L 498.20 294.60 L 498.40 294.00 L 499.20 293.20 L 500.30 293.20 L 501.10 294.00 L 501.20 294.60 L 501.20 312.20 L 500.80 313.30 L 499.70 313.70" fill="#035e80" fill-rule="evenodd" id="Fill-1636" node-id="112" stroke="none" target-height="20.5" target-width="3" target-x="498.2" target-y="293.2"></path><path d="M 114.10 303.40 L 114.00 304.30 L 112.80 305.50 L 111.00 305.50 L 109.80 304.30 L 109.80 302.50 L 111.00 301.30 L 112.80 301.30 L 114.00 302.50 L 114.10 303.40" fill="#000000" fill-rule="evenodd" id="Fill-1638" node-id="113" stroke="none" target-height="4.200012" target-width="4.2999954" target-x="109.8" target-y="301.3"></path><path d="M 392.00 408.40 L 388.50 429.10 L 387.60 430.30 L 386.50 430.60 L 370.30 430.70 L 368.60 430.20 L 368.50 429.30 L 368.80 428.90 L 374.10 426.70 L 376.00 425.50 L 377.80 423.90 L 379.70 421.80 L 382.10 409.30 L 392.00 408.40 Z" fill="#f29d7e" fill-rule="evenodd" id="Fill-1650" node-id="114" stroke="none" target-height="22.300018" target-width="23.5" target-x="368.5" target-y="408.4"></path><path d="M 386.50 428.00 L 379.50 427.40 L 377.90 424.40 L 369.50 428.20 L 368.10 429.10 L 367.60 429.90 L 368.40 430.50 L 386.30 430.70 L 387.60 430.30 L 388.30 429.60 L 388.80 427.70 L 386.50 428.00" fill="#faf8dc" fill-rule="evenodd" id="Fill-1651" node-id="115" stroke="none" target-height="6.3000183" target-width="21.199982" target-x="367.6" target-y="424.4"></path><path d="M 388.50 428.80 L 387.90 429.50 L 385.00 430.00 L 370.70 430.00 L 368.50 429.70 L 367.90 429.30 L 367.60 429.90 L 368.40 430.50 L 370.10 430.80 L 384.70 430.80 L 387.60 430.30 L 388.30 429.60 L 388.50 428.80" fill="#41b093" fill-rule="evenodd" id="Fill-1652" node-id="116" stroke="none" target-height="2" target-width="20.899994" target-x="367.6" target-y="428.8"></path><path d="M 388.60 427.70 L 392.00 408.40 L 382.10 409.30 L 379.70 421.80 L 376.60 425.00 L 369.90 428.00 L 368.60 428.70 L 367.60 429.90 L 368.40 430.50 L 370.10 430.80 L 385.60 430.80 L 387.00 430.60 L 388.30 429.70 L 388.80 427.70 L 388.60 427.70" fill="#faf8dc" fill-rule="evenodd" id="Fill-1653" node-id="117" stroke="none" target-height="22.399994" target-width="24.399994" target-x="367.6" target-y="408.4"></path><path d="M 458.70 356.60 L 450.90 368.80 L 442.80 383.30 L 422.60 347.10 L 420.20 344.20 L 419.80 344.00 L 418.90 344.90 L 417.70 347.40 L 417.80 349.90 L 419.50 354.70 L 424.10 370.50 L 427.10 378.80 L 431.10 387.00 L 433.50 390.60 L 436.10 393.40 L 438.00 394.90 L 439.90 395.90 L 441.90 396.50 L 444.40 396.50 L 447.00 395.90 L 449.80 394.70 L 455.00 391.00 L 461.40 384.70 L 464.80 380.60 L 470.40 373.00 L 474.70 366.10 L 475.30 364.10 L 475.10 360.20 L 473.60 356.80 L 471.00 354.20 L 467.80 352.70 L 466.00 352.50 L 464.10 352.80 L 462.40 353.40 L 460.60 354.70 L 458.70 356.60" fill="#f29d7e" fill-rule="evenodd" id="Fill-1654" node-id="118" stroke="none" target-height="52.5" target-width="57.599976" target-x="417.7" target-y="344"></path><path d="M 458.70 356.60 L 450.90 368.80 L 442.80 383.30 L 422.60 347.10 L 420.20 344.20 L 419.80 344.00 L 418.90 344.90 L 417.70 347.40 L 417.80 349.90 L 419.50 354.70 L 424.10 370.50 L 427.10 378.80 L 431.10 387.00 L 433.50 390.60 L 436.10 393.40 L 438.00 394.90 L 439.90 395.90 L 441.90 396.50 L 444.40 396.50 L 447.00 395.90 L 449.80 394.70 L 455.00 391.00 L 461.40 384.70 L 464.80 380.60 L 470.40 373.00 L 474.70 366.10 L 475.30 364.10 L 475.10 360.20 L 473.60 356.80 L 471.00 354.20 L 467.80 352.70 L 466.00 352.50 L 464.10 352.80 L 462.40 353.40 L 460.60 354.70 L 458.70 356.60" fill="#f8b5a3" fill-rule="evenodd" id="Fill-1655" node-id="119" stroke="none" target-height="52.5" target-width="57.599976" target-x="417.7" target-y="344"></path><path d="M 468.20 345.80 L 466.20 347.30 L 464.10 348.30 L 459.50 349.00 L 457.30 349.00 L 453.90 348.30 L 451.70 346.90 L 450.10 345.30 L 448.60 341.70 L 454.20 337.50 L 455.10 336.00 L 455.20 334.70 L 453.60 326.70 L 450.60 315.70 L 463.80 312.80 L 469.10 331.00 L 470.50 332.80 L 474.80 336.80 L 473.60 339.50 L 472.10 341.70 L 468.20 345.80" fill="#ffd1c4" fill-rule="evenodd" id="Fill-1656" node-id="120" stroke="none" target-height="36.200012" target-width="26.199982" target-x="448.6" target-y="312.8"></path><path d="M 455.00 326.00 L 453.40 326.20 L 450.60 315.70 L 460.00 313.60 L 460.30 316.60 L 460.20 319.20 L 459.60 321.70 L 458.50 323.60 L 457.60 324.70 L 455.00 326.00" fill="#f4b6a5" fill-rule="evenodd" id="Fill-1659" node-id="121" stroke="none" target-height="12.600006" target-width="9.699982" target-x="450.6" target-y="313.6"></path><path d="M 448.60 326.20 L 450.60 326.30 L 455.50 324.20 L 457.70 322.80 L 459.40 320.90 L 460.70 318.60 L 461.40 316.10 L 461.50 313.30 L 461.10 310.10 L 460.20 307.00 L 459.10 304.40 L 456.90 301.80 L 454.10 300.40 L 452.20 300.20 L 450.00 300.60 L 447.60 301.30 L 445.90 302.30 L 444.80 303.40 L 444.00 304.80 L 443.40 308.10 L 443.60 310.90 L 445.20 318.70 L 446.50 323.30 L 447.50 325.10 L 448.60 326.20 Z" fill="#ffd6cb" fill-rule="evenodd" id="Fill-1660" node-id="122" stroke="none" target-height="26.099976" target-width="18.100006" target-x="443.4" target-y="300.2"></path><path d="M 463.40 299.10 L 465.60 302.10 L 466.40 304.70 L 466.20 308.30 L 464.00 313.60 L 459.40 313.20 L 460.30 303.00 L 463.40 299.10 Z" fill="#333333" fill-rule="evenodd" id="Fill-1661" node-id="123" stroke="none" target-height="14.5" target-width="7" target-x="459.4" target-y="299.1"></path><path d="M 446.70 311.40 L 447.00 311.80 L 447.90 311.60 L 448.00 311.10 L 447.20 310.60 L 446.70 311.40" fill="#000000" fill-rule="evenodd" id="Fill-1662" node-id="124" stroke="none" target-height="1.1999817" target-width="1.2999878" target-x="446.7" target-y="310.6"></path><path d="M 458.10 315.30 L 459.30 314.80 L 461.00 313.20 L 461.70 311.00 L 461.60 309.70 L 461.10 308.60 L 459.50 306.90 L 457.30 306.20 L 456.00 306.30 L 458.10 315.30 Z" fill="#ffccbe" fill-rule="evenodd" id="Fill-1663" node-id="125" stroke="none" target-height="9.099976" target-width="5.700012" target-x="456" target-y="306.2"></path><path d="M 457.60 313.20 L 459.20 312.10 L 459.50 310.20 L 458.40 308.70 L 456.50 308.40 L 457.60 313.20 Z" fill="#f4b6a5" fill-rule="evenodd" id="Fill-1664" node-id="126" stroke="none" target-height="4.8000183" target-width="3" target-x="456.5" target-y="308.4"></path><path d="M 444.50 311.50 L 442.50 316.20 L 443.30 316.80 L 445.80 316.70 L 444.50 311.50 Z" fill="#f4b6a5" fill-rule="evenodd" id="Fill-1666" node-id="127" stroke="none" target-height="5.299988" target-width="3.2999878" target-x="442.5" target-y="311.5"></path><path d="M 456.20 307.40 L 457.10 310.90 L 455.90 311.30 L 454.80 307.60 L 456.20 307.40 Z" fill="#333333" fill-rule="evenodd" id="Fill-1667" node-id="128" stroke="none" target-height="3.899994" target-width="2.3000183" target-x="454.8" target-y="307.4"></path><path d="M 437.90 292.70 L 439.70 291.80 L 441.00 291.60 L 447.30 293.10 L 457.10 293.10 L 458.80 293.80 L 460.90 295.50 L 464.00 300.00 L 464.60 301.50 L 464.80 304.30 L 464.60 305.50 L 463.60 307.20 L 462.30 308.00 L 459.20 308.60 L 455.40 308.40 L 454.30 308.00 L 452.20 306.30 L 449.60 302.10 L 446.90 302.80 L 443.80 305.00 L 441.40 303.80 L 439.90 302.70 L 438.40 301.20 L 436.80 298.10 L 436.60 295.00 L 437.00 293.70 L 437.90 292.70 Z" fill="#333333" fill-rule="evenodd" id="Fill-1668" node-id="129" stroke="none" target-height="17" target-width="28.199982" target-x="436.6" target-y="291.6"></path><path d="M 449.20 308.70 L 445.20 310.10 L 445.00 309.70 L 446.90 308.60 L 449.20 308.30 L 449.20 308.70" fill="#333333" fill-rule="evenodd" id="Fill-1669" node-id="130" stroke="none" target-height="1.8000183" target-width="4.200012" target-x="445" target-y="308.3"></path><g node-id="344"><path d="M 328.90 176.00 L 122.50 176.00 L 119.20 176.20 L 116.20 176.80 L 113.30 177.80 L 108.10 180.90 L 103.90 185.10 L 100.80 190.30 L 99.80 193.20 L 99.20 196.20 L 99.00 199.40 L 99.00 414.70 L 99.20 417.90 L 99.80 421.00 L 100.80 423.90 L 103.90 429.10 L 108.10 433.30 L 113.30 436.30 L 116.20 437.30 L 119.20 438.00 L 122.50 438.20 L 145.60 438.20 L 328.90 176.00 Z" fill="#ffffff" fill-opacity="0.2" fill-rule="evenodd" group-id="4" id="Fill-1637" node-id="131" stroke="none" target-height="262.2" target-width="229.9" target-x="99" target-y="176"></path></g><path d="M 437.10 395.30 L 429.80 384.60 L 426.40 380.20 L 422.70 375.90 L 415.90 369.60 L 410.00 366.00 L 406.80 364.80 L 403.70 364.30 L 400.40 364.20 L 398.10 364.80 L 395.90 366.10 L 393.70 368.00 L 391.90 370.30 L 388.40 376.50 L 386.30 381.80 L 384.40 387.70 L 381.50 399.80 L 379.60 410.80 L 378.20 422.00 L 391.30 422.50 L 403.30 383.40 L 430.60 421.30 L 449.50 414.10 L 437.10 395.30 Z" fill="#e85f5b" fill-rule="evenodd" id="Fill-1672" node-id="132" stroke="none" target-height="58.299988" target-width="71.29999" target-x="378.2" target-y="364.2"></path><path d="M 437.10 395.30 L 429.80 384.60 L 426.40 380.20 L 422.70 375.90 L 415.90 369.60 L 410.00 366.00 L 406.80 364.80 L 403.70 364.30 L 400.40 364.20 L 398.10 364.80 L 395.90 366.10 L 393.70 368.00 L 391.90 370.30 L 388.40 376.50 L 386.30 381.80 L 384.40 387.70 L 381.50 399.80 L 379.60 410.80 L 378.20 422.00 L 391.30 422.50 L 403.30 383.40 L 430.60 421.30 L 449.50 414.10 L 437.10 395.30 Z" fill="#1d576c" fill-rule="evenodd" id="Fill-1673" node-id="133" stroke="none" target-height="58.299988" target-width="71.29999" target-x="378.2" target-y="364.2"></path><path d="M 402.30 372.70 L 400.90 373.10 L 399.40 374.00 L 397.90 375.60 L 396.10 378.70 L 394.20 382.80 L 391.20 392.10 L 388.90 401.50 L 386.90 412.40 L 387.40 412.50 L 389.30 402.30 L 391.60 392.90 L 395.20 381.80 L 396.90 378.40 L 398.50 375.90 L 399.90 374.40 L 401.10 373.60 L 402.30 373.30 L 403.90 373.50 L 405.60 374.20 L 407.50 375.60 L 413.40 381.30 L 419.30 388.70 L 424.40 396.20 L 429.50 404.40 L 430.00 404.10 L 424.50 395.30 L 419.30 387.80 L 413.40 380.40 L 410.30 377.20 L 407.50 374.90 L 405.50 373.60 L 402.30 372.70" fill="#000000" fill-rule="evenodd" id="Fill-1674" node-id="134" stroke="none" target-height="39.799988" target-width="43.100006" target-x="386.9" target-y="372.7"></path><path d="M 329.30 427.90 L 309.30 430.60 L 308.10 430.60 L 307.20 430.20 L 306.50 429.00 L 302.00 413.40 L 301.70 411.70 L 302.10 410.80 L 302.90 411.00 L 304.20 412.00 L 309.90 418.80 L 311.40 420.20 L 312.50 420.80 L 325.10 418.90 L 329.30 427.90 Z" fill="#ffd1c4" fill-rule="evenodd" id="Fill-1675" node-id="135" stroke="none" target-height="19.800018" target-width="27.599976" target-x="301.7" target-y="410.8"></path><path d="M 472.60 397.80 L 466.10 413.00 L 463.70 417.20 L 460.80 421.20 L 458.60 423.60 L 456.10 425.70 L 453.30 427.60 L 450.20 429.00 L 446.80 430.00 L 442.90 430.50 L 435.30 430.60 L 427.50 430.30 L 397.40 427.00 L 384.30 426.30 L 361.60 427.60 L 324.20 430.80 L 322.80 422.60 L 322.80 416.20 L 359.20 410.20 L 372.80 408.40 L 385.00 407.30 L 399.10 407.00 L 414.10 407.40 L 441.10 409.10 L 428.90 405.60 L 438.80 386.80 L 472.60 397.80 Z" fill="#1d576c" fill-rule="evenodd" id="Fill-1676" node-id="136" stroke="none" target-height="44" target-width="149.80002" target-x="322.8" target-y="386.8"></path><path d="M 451.70 411.90 L 449.20 409.90 L 447.90 408.40 L 447.20 406.80 L 446.70 403.00 L 446.90 399.80 L 446.40 399.70 L 446.10 403.10 L 446.70 407.10 L 447.50 408.70 L 448.70 410.20 L 451.40 412.30 L 447.50 416.40 L 445.20 418.00 L 442.60 419.30 L 437.50 420.60 L 429.30 420.90 L 423.40 420.50 L 400.60 417.90 L 390.30 417.00 L 382.00 416.80 L 364.20 417.60 L 322.70 422.30 L 322.80 422.90 L 364.20 418.20 L 382.00 417.40 L 390.30 417.60 L 400.50 418.50 L 423.40 421.00 L 429.30 421.40 L 437.70 421.10 L 442.80 419.80 L 445.30 418.60 L 449.50 415.30 L 452.10 412.20 L 454.20 409.20 L 457.10 403.90 L 458.10 401.60 L 457.50 401.40 L 454.90 406.90 L 451.70 411.90" fill="#000000" fill-rule="evenodd" id="Fill-1677" node-id="137" stroke="none" target-height="23.199982" target-width="135.4" target-x="322.7" target-y="399.7"></path><path d="M 448.60 341.70 L 451.30 344.90 L 454.70 346.90 L 456.80 347.60 L 459.50 347.70 L 461.30 347.40 L 465.00 345.90 L 467.60 344.10 L 469.90 342.10 L 474.80 336.80 L 478.70 339.20 L 481.30 341.50 L 483.80 344.20 L 486.20 347.80 L 487.50 350.40 L 488.50 353.50 L 489.20 357.10 L 489.50 360.80 L 489.20 365.00 L 488.30 369.90 L 485.60 379.70 L 477.00 407.30 L 467.80 407.00 L 463.50 406.40 L 452.60 403.80 L 442.60 399.80 L 434.40 395.10 L 436.30 356.80 L 438.50 352.20 L 440.90 348.90 L 445.40 344.40 L 448.60 341.70" fill="#d4ecf1" fill-rule="evenodd" id="Fill-1678" node-id="138" stroke="none" target-height="70.5" target-width="55.100006" target-x="434.4" target-y="336.8"></path><path d="M 418.30 339.40 L 424.30 339.50 L 425.40 339.90 L 426.00 340.70 L 431.10 352.30 L 430.80 353.20 L 424.00 353.00 L 423.20 352.70 L 422.60 352.00 L 417.80 340.30 L 417.80 339.70 L 418.30 339.40" fill="#184657" fill-rule="evenodd" id="Fill-1679" node-id="139" stroke="none" target-height="13.800018" target-width="13.300018" target-x="417.8" target-y="339.4"></path><path d="M 469.50 357.70 L 460.70 370.40 L 450.60 385.80 L 440.50 362.90 L 435.00 351.10 L 433.10 348.40 L 431.60 346.90 L 430.00 345.90 L 427.80 345.60 L 429.00 347.00 L 427.30 346.80 L 426.80 346.90 L 426.80 347.30 L 429.30 348.80 L 427.60 348.20 L 427.00 348.20 L 426.70 348.50 L 429.30 350.30 L 427.30 349.80 L 427.10 350.30 L 429.10 352.70 L 430.30 355.80 L 431.70 360.60 L 434.80 376.00 L 437.30 384.70 L 439.00 388.80 L 441.70 393.50 L 444.90 396.90 L 446.80 397.90 L 448.70 398.50 L 450.80 398.50 L 453.10 398.10 L 455.60 397.20 L 459.10 395.40 L 462.90 392.70 L 466.60 389.70 L 473.60 382.70 L 481.60 373.10 L 484.40 369.20 L 485.40 367.20 L 486.00 365.20 L 485.80 361.40 L 484.30 357.90 L 481.80 355.30 L 478.50 353.80 L 476.80 353.60 L 474.90 353.90 L 473.10 354.60 L 471.30 355.80 L 469.50 357.70" fill="#ffd1c4" fill-rule="evenodd" id="Fill-1680" node-id="140" stroke="none" target-height="52.899994" target-width="59.299988" target-x="426.7" target-y="345.6"></path><path d="M 309.10 428.40 L 307.70 421.60 L 310.20 419.20 L 304.30 412.10 L 303.00 411.00 L 302.10 410.80 L 301.70 411.70 L 306.50 429.00 L 307.20 430.20 L 308.10 430.60 L 310.10 430.60 L 309.10 428.40" fill="#faf8dc" fill-rule="evenodd" id="Fill-1682" node-id="141" stroke="none" target-height="19.800018" target-width="8.5" target-x="301.7" target-y="410.8"></path><path d="M 308.90 430.60 L 308.00 430.20 L 306.70 427.50 L 302.90 413.80 L 302.50 411.60 L 302.70 410.90 L 302.10 410.80 L 301.70 411.70 L 302.00 413.40 L 305.90 427.50 L 307.20 430.20 L 308.10 430.60 L 308.90 430.60" fill="#41b093" fill-rule="evenodd" id="Fill-1683" node-id="142" stroke="none" target-height="19.800018" target-width="7.1999817" target-x="301.7" target-y="410.8"></path><path d="M 229.60 467.70 L 50.10 467.70 L 49.20 467.20 L 48.80 466.10 L 48.90 465.40 L 49.60 464.50 L 229.60 464.40 L 230.50 464.90 L 230.80 466.10 L 230.50 467.20 L 229.60 467.70" fill="#9fd4e0" fill-rule="evenodd" id="Fill-1684" node-id="143" stroke="none" target-height="3.3000183" target-width="182" target-x="48.8" target-y="464.4"></path><path d="M 113.50 389.80 L 115.00 394.20 L 117.20 404.10 L 118.70 418.50 L 100.30 420.40 L 113.50 389.80 Z" fill="#faf8dc" fill-rule="evenodd" id="Fill-1685" node-id="144" stroke="none" target-height="30.600006" target-width="18.399994" target-x="100.3" target-y="389.8"></path><path d="M 165.50 416.60 L 164.00 414.90 L 162.40 414.00 L 160.30 413.50 L 157.00 413.50 L 143.40 415.20 L 120.80 418.80 L 113.20 429.90 L 115.50 430.50 L 121.00 430.70 L 125.40 430.10 L 130.10 429.00 L 139.10 426.00 L 150.70 421.40 L 155.50 420.00 L 158.80 419.30 L 161.90 419.70 L 162.20 419.30 L 160.80 417.80 L 163.60 419.10 L 163.70 418.60 L 163.40 418.10 L 162.00 417.00 L 164.60 418.40 L 165.00 418.10 L 164.80 417.60 L 163.70 416.30 L 165.50 416.60 Z" fill="#f29d7e" fill-rule="evenodd" id="Fill-1686" node-id="145" stroke="none" target-height="17.200012" target-width="52.300003" target-x="113.2" target-y="413.5"></path><path d="M 165.50 416.60 L 164.00 414.90 L 162.40 414.00 L 160.30 413.50 L 157.00 413.50 L 143.40 415.20 L 120.80 418.80 L 113.20 429.90 L 115.50 430.50 L 121.00 430.70 L 125.40 430.10 L 130.10 429.00 L 139.10 426.00 L 150.70 421.40 L 155.50 420.00 L 158.80 419.30 L 161.90 419.70 L 162.20 419.30 L 160.80 417.80 L 163.60 419.10 L 163.70 418.60 L 163.40 418.10 L 162.00 417.00 L 164.60 418.40 L 165.00 418.10 L 164.80 417.60 L 163.70 416.30 L 165.50 416.60 Z" fill="#ffb9a6" fill-rule="evenodd" id="Fill-1687" node-id="146" stroke="none" target-height="17.200012" target-width="52.300003" target-x="113.2" target-y="413.5"></path><path d="M 94.80 388.60 L 95.80 390.90 L 97.20 392.80 L 100.80 395.70 L 102.70 396.70 L 106.00 397.80 L 110.00 397.90 L 111.40 396.60 L 110.80 387.90 L 111.60 385.40 L 117.00 379.20 L 124.90 371.10 L 114.90 362.10 L 101.30 375.30 L 99.20 376.20 L 93.50 377.50 L 93.20 380.40 L 93.40 383.10 L 94.80 388.60" fill="#ffd0c3" fill-rule="evenodd" id="Fill-1688" node-id="147" stroke="none" target-height="35.799988" target-width="31.700005" target-x="93.2" target-y="362.1"></path><path d="M 115.40 378.50 L 116.70 379.50 L 124.00 371.50 L 116.70 365.30 L 115.00 367.80 L 113.90 370.20 L 113.30 372.70 L 113.40 374.90 L 113.70 376.20 L 115.40 378.50" fill="#f4b6a5" fill-rule="evenodd" id="Fill-1691" node-id="148" stroke="none" target-height="14.200012" target-width="10.699997" target-x="113.3" target-y="365.3"></path><path d="M 117.90 351.00 L 114.50 353.50 L 112.70 356.30 L 112.20 358.50 L 112.10 361.00 L 112.40 364.50 L 117.20 365.70 L 119.60 355.80 L 117.90 351.00 Z" fill="#444444" fill-rule="evenodd" id="Fill-1692" node-id="149" stroke="none" target-height="14.700012" target-width="7.5" target-x="112.1" target-y="351"></path><path d="M 131.20 371.40 L 127.50 376.40 L 124.60 378.80 L 123.20 379.40 L 121.90 379.50 L 120.40 379.00 L 116.90 375.90 L 115.60 374.30 L 114.80 372.30 L 114.30 370.10 L 114.40 367.60 L 115.10 365.00 L 116.50 362.20 L 118.30 359.50 L 120.30 357.50 L 123.20 355.70 L 126.30 355.30 L 128.10 355.80 L 130.10 356.80 L 132.10 358.30 L 133.40 359.80 L 134.10 361.20 L 134.40 362.80 L 133.90 366.10 L 131.20 371.40" fill="#ffd6cb" fill-rule="evenodd" id="Fill-1693" node-id="150" stroke="none" target-height="24.200012" target-width="20.09999" target-x="114.3" target-y="355.3"></path><path d="M 129.70 368.20 L 128.80 368.40 L 128.50 368.00 L 129.00 367.20 L 129.50 367.30 L 129.70 368.20" fill="#000000" fill-rule="evenodd" id="Fill-1694" node-id="151" stroke="none" target-height="1.1999817" target-width="1.199997" target-x="128.5" target-y="367.2"></path><path d="M 117.60 368.10 L 116.60 367.30 L 115.60 365.20 L 115.60 362.90 L 116.20 361.70 L 117.00 360.70 L 119.10 359.60 L 121.40 359.70 L 122.50 360.20 L 117.60 368.10 Z" fill="#ffcdbf" fill-rule="evenodd" id="Fill-1695" node-id="152" stroke="none" target-height="8.5" target-width="6.9000015" target-x="115.6" target-y="359.6"></path><path d="M 118.80 366.20 L 117.70 364.70 L 118.00 362.90 L 119.50 361.80 L 121.40 362.10 L 118.80 366.20 Z" fill="#f4b6a5" fill-rule="evenodd" id="Fill-1696" node-id="153" stroke="none" target-height="4.4000244" target-width="3.7000046" target-x="117.7" target-y="361.8"></path><path d="M 131.80 368.90 L 132.10 374.00 L 131.20 374.40 L 128.80 373.50 L 131.80 368.90 Z" fill="#f4b6a5" fill-rule="evenodd" id="Fill-1698" node-id="154" stroke="none" target-height="5.5" target-width="3.300003" target-x="128.8" target-y="368.9"></path><path d="M 122.00 361.20 L 120.00 364.30 L 121.10 365.00 L 123.30 361.90 L 122.00 361.20 Z" fill="#444444" fill-rule="evenodd" id="Fill-1699" node-id="155" stroke="none" target-height="3.7999878" target-width="3.300003" target-x="120" target-y="361.2"></path><path d="M 125.80 350.10 L 123.70 349.40 L 121.90 349.20 L 120.30 349.50 L 118.10 350.50 L 116.50 352.00 L 115.20 353.80 L 114.30 356.50 L 114.80 358.40 L 115.80 359.60 L 118.70 361.40 L 122.40 362.40 L 124.90 362.20 L 128.00 360.20 L 130.00 358.40 L 132.30 359.90 L 134.50 363.00 L 136.60 361.90 L 137.40 360.80 L 137.80 359.30 L 137.50 356.80 L 136.80 355.20 L 135.80 353.90 L 134.40 353.10 L 125.80 350.10 Z" fill="#444444" fill-rule="evenodd" id="Fill-1700" node-id="156" stroke="none" target-height="13.799988" target-width="23.5" target-x="114.3" target-y="349.2"></path><path d="M 128.40 364.30 L 130.60 365.00 L 131.90 366.10 L 132.20 366.90 L 128.30 364.70 L 128.40 364.30" fill="#444444" fill-rule="evenodd" id="Fill-1701" node-id="157" stroke="none" target-height="2.600006" target-width="3.899994" target-x="128.3" target-y="364.3"></path><path d="M 127.60 375.50 L 128.00 375.90 L 127.60 376.40 L 126.90 375.90 L 126.10 374.90 L 126.10 374.20 L 127.60 375.50" fill="#ed6d53" fill-rule="evenodd" id="Fill-1702" node-id="158" stroke="none" target-height="2.1999817" target-width="1.9000015" target-x="126.1" target-y="374.2"></path><g node-id="345"><path d="M 446.10 320.50 L 445.60 320.70 L 445.80 321.30 L 446.60 321.10 L 447.70 320.50 L 448.00 319.90 L 446.10 320.50" fill="#ed6d53" fill-rule="evenodd" group-id="5" id="Fill-1702" node-id="159" stroke="none" target-height="1.3999939" target-width="2.399994" target-x="445.6" target-y="319.9"></path></g><path d="M 145.10 442.40 L 148.70 463.10 L 149.50 464.20 L 150.70 464.50 L 168.40 464.70 L 171.10 464.20 L 171.60 463.30 L 170.00 462.40 L 163.90 460.60 L 161.60 459.40 L 159.40 457.90 L 157.50 455.70 L 155.00 443.20 L 145.10 442.40 Z" fill="#f29d7e" fill-rule="evenodd" id="Fill-1703" node-id="160" stroke="none" target-height="22.300018" target-width="26.5" target-x="145.1" target-y="442.4"></path><path d="M 145.10 442.40 L 148.70 463.10 L 149.50 464.20 L 150.70 464.50 L 168.40 464.70 L 171.10 464.20 L 171.60 463.30 L 170.00 462.40 L 163.90 460.60 L 161.60 459.40 L 159.40 457.90 L 157.50 455.70 L 155.00 443.20 L 145.10 442.40 Z" fill="#ffc9ba" fill-rule="evenodd" id="Fill-1704" node-id="161" stroke="none" target-height="22.300018" target-width="26.5" target-x="145.1" target-y="442.4"></path><path d="M 100.10 429.20 L 107.40 418.50 L 110.80 414.10 L 114.40 409.90 L 121.30 403.60 L 127.20 400.00 L 130.30 398.80 L 133.50 398.20 L 136.80 398.20 L 138.50 398.60 L 141.90 400.50 L 143.50 402.10 L 147.20 407.40 L 148.90 410.70 L 151.00 416.00 L 154.40 427.30 L 157.70 444.00 L 143.70 448.40 L 133.90 417.30 L 106.50 455.30 L 87.70 448.00 L 100.10 429.20 Z" fill="#184657" fill-rule="evenodd" id="Fill-1705" node-id="162" stroke="none" target-height="57.099976" target-width="70" target-x="87.7" target-y="398.2"></path><path d="M 100.10 429.20 L 107.40 418.50 L 110.80 414.10 L 114.40 409.90 L 121.30 403.60 L 127.20 400.00 L 130.30 398.80 L 133.50 398.20 L 136.80 398.20 L 138.50 398.60 L 141.90 400.50 L 143.50 402.10 L 147.20 407.40 L 148.90 410.70 L 151.00 416.00 L 154.40 427.30 L 157.70 444.00 L 143.70 448.40 L 133.90 417.30 L 106.50 455.30 L 87.70 448.00 L 100.10 429.20 Z" fill="#184657" fill-rule="evenodd" id="Fill-1706" node-id="163" stroke="none" target-height="57.099976" target-width="70" target-x="87.7" target-y="398.2"></path><path d="M 56.10 428.70 L 54.40 437.10 L 53.90 441.60 L 53.80 446.10 L 54.10 450.40 L 54.90 454.40 L 55.80 456.90 L 58.30 460.90 L 60.00 462.50 L 62.00 463.70 L 64.50 464.50 L 70.40 465.20 L 78.20 465.40 L 120.50 465.30 L 127.40 465.00 L 132.70 464.30 L 136.00 463.40 L 138.50 462.30 L 140.50 460.90 L 141.60 459.50 L 142.40 457.90 L 143.00 456.00 L 143.10 453.60 L 142.80 451.60 L 142.10 449.90 L 140.90 448.40 L 139.50 447.20 L 135.40 445.40 L 131.90 444.50 L 124.00 443.60 L 74.20 442.60 L 56.10 428.70 Z" fill="#184657" fill-rule="evenodd" id="Fill-1708" node-id="164" stroke="none" target-height="36.69998" target-width="89.3" target-x="53.8" target-y="428.7"></path><path d="M 111.50 385.60 L 110.00 386.70 L 108.60 387.00 L 106.80 386.80 L 104.20 385.70 L 101.60 384.00 L 99.60 382.00 L 98.00 379.80 L 96.20 376.40 L 92.30 377.70 L 86.10 380.90 L 82.30 383.50 L 78.60 386.70 L 74.50 390.90 L 72.00 394.00 L 66.90 402.00 L 64.20 407.40 L 59.20 419.00 L 53.30 435.90 L 55.80 437.90 L 61.20 440.40 L 65.70 441.70 L 70.60 442.60 L 82.10 443.40 L 94.20 442.80 L 111.10 411.60 L 114.00 405.10 L 115.10 399.40 L 114.80 394.30 L 113.10 388.90 L 111.50 385.60" fill="#faf8dc" fill-rule="evenodd" id="Fill-1709" node-id="165" stroke="none" target-height="67" target-width="61.8" target-x="53.3" target-y="376.4"></path><path d="M 103.90 393.40 L 106.00 396.20 L 109.20 402.40 L 110.30 405.30 L 112.20 412.10 L 108.80 416.30 L 103.90 393.40 Z" fill="#e1dfc1" fill-rule="evenodd" id="Fill-1710" node-id="166" stroke="none" target-height="22.899994" target-width="8.299995" target-x="103.9" target-y="393.4"></path><path d="M 84.40 399.30 L 83.90 403.10 L 83.90 406.00 L 85.40 415.20 L 88.20 425.10 L 90.10 429.80 L 91.90 433.80 L 94.10 437.40 L 95.90 439.60 L 102.70 427.10 L 84.40 399.30 Z" fill="#e1dfc1" fill-rule="evenodd" id="Fill-1711" node-id="167" stroke="none" target-height="40.30002" target-width="18.799995" target-x="83.9" target-y="399.3"></path><path d="M 180.60 401.10 L 180.40 401.00 L 171.90 428.30 L 142.60 428.30 L 142.70 429.10 L 143.40 429.80 L 171.90 429.90 L 173.00 429.60 L 173.50 428.60 L 181.50 402.90 L 181.50 401.80 L 180.60 401.10" fill="#035e80" fill-rule="evenodd" id="Fill-1712" node-id="168" stroke="none" target-height="28.899994" target-width="38.899994" target-x="142.6" target-y="401"></path><path d="M 103.20 397.30 L 107.30 409.40 L 113.80 432.90 L 137.10 423.60 L 149.30 419.10 L 152.50 418.50 L 154.70 418.50 L 156.50 419.00 L 158.30 420.30 L 156.40 420.40 L 157.80 421.50 L 158.10 421.90 L 157.80 422.20 L 154.90 421.50 L 156.60 422.30 L 157.00 422.60 L 157.00 423.10 L 154.00 422.60 L 155.70 423.60 L 155.50 424.10 L 152.30 424.40 L 149.30 425.80 L 145.00 428.30 L 132.00 437.00 L 124.00 441.50 L 120.00 443.20 L 114.80 444.60 L 110.10 444.80 L 108.10 444.20 L 106.30 443.20 L 102.20 439.40 L 97.00 432.20 L 94.00 427.10 L 91.30 421.80 L 86.90 411.20 L 85.50 406.60 L 84.60 402.30 L 84.40 399.30 L 84.90 396.50 L 85.70 394.20 L 86.90 392.40 L 88.40 390.90 L 90.10 389.90 L 92.00 389.30 L 94.00 389.30 L 96.00 389.70 L 98.00 390.80 L 99.90 392.20 L 101.60 394.40 L 103.20 397.30" fill="#ffd0c3" fill-rule="evenodd" id="Fill-1713" node-id="169" stroke="none" target-height="55.5" target-width="73.9" target-x="84.4" target-y="389.3"></path><path d="M 74.60 443.20 L 74.90 443.20 L 76.40 437.40 L 81.70 421.20 L 84.50 413.80 L 86.70 409.10 L 86.50 409.00 L 85.60 410.70 L 81.50 421.10 L 76.10 437.40 L 74.60 443.20" fill="#e289a9" fill-rule="evenodd" id="Fill-1715" node-id="170" stroke="none" target-height="34.200012" target-width="12.099998" target-x="74.6" target-y="409"></path><path d="M 111.30 423.60 L 111.10 423.00 L 108.50 420.10 L 93.10 423.60 L 94.40 427.90 L 95.90 430.50 L 100.00 429.50 L 103.40 428.20 L 108.70 425.40 L 111.30 423.60" fill="#f4b6a5" fill-rule="evenodd" id="Fill-1716" node-id="171" stroke="none" target-height="10.399994" target-width="18.200005" target-x="93.1" target-y="420.1"></path><path d="M 112.00 422.90 L 105.50 400.90 L 103.80 396.30 L 101.90 393.10 L 100.10 390.80 L 98.10 389.20 L 95.80 388.10 L 93.60 387.60 L 91.50 387.60 L 89.40 388.20 L 87.60 389.30 L 85.90 391.00 L 84.70 392.90 L 83.70 395.40 L 83.30 398.50 L 83.30 400.50 L 84.40 406.40 L 85.90 411.40 L 90.60 422.80 L 93.50 428.60 L 98.20 427.70 L 103.50 426.20 L 112.00 422.90" fill="#faf8dc" fill-rule="evenodd" id="Fill-1717" node-id="172" stroke="none" target-height="41" target-width="28.699997" target-x="83.3" target-y="387.6"></path><path d="M 135.50 464.50 L 137.60 438.90 L 137.90 437.30 L 138.60 435.80 L 141.00 433.60 L 142.50 433.00 L 144.20 432.80 L 190.90 432.80 L 192.60 433.00 L 194.00 433.60 L 196.40 435.80 L 197.20 437.30 L 197.50 438.90 L 199.70 464.50 L 202.50 464.50 L 200.30 438.70 L 199.80 436.30 L 198.80 434.30 L 197.30 432.50 L 195.40 431.20 L 193.20 430.30 L 190.90 430.00 L 144.20 430.00 L 141.80 430.30 L 139.70 431.20 L 137.80 432.50 L 136.30 434.30 L 135.30 436.40 L 134.70 438.70 L 132.60 464.50 L 135.50 464.50 Z" fill="#fcc14a" fill-rule="evenodd" id="Fill-1718" node-id="173" stroke="none" target-height="34.5" target-width="69.899994" target-x="132.6" target-y="430"></path><path d="M 91.80 425.40 L 91.80 425.70 L 97.90 424.40 L 109.10 420.80 L 111.20 420.00 L 111.10 419.80 L 97.90 424.10 L 91.80 425.40" fill="#e289a9" fill-rule="evenodd" id="Fill-1719" node-id="174" stroke="none" target-height="5.9000244" target-width="19.399994" target-x="91.8" target-y="419.8"></path><path d="M 112.40 387.60 L 111.20 388.50 L 108.10 389.00 L 105.30 388.80 L 101.70 387.60 L 98.00 384.60 L 96.20 382.20 L 94.80 379.60 L 93.80 377.00 L 93.50 377.10 L 94.80 380.30 L 96.70 383.40 L 94.90 384.30 L 92.20 386.40 L 89.80 386.80 L 87.90 387.60 L 85.40 390.10 L 83.90 393.20 L 83.10 397.60 L 83.00 400.30 L 83.70 404.70 L 84.00 404.60 L 83.30 399.90 L 83.80 394.60 L 84.60 392.10 L 85.90 390.00 L 88.30 387.80 L 89.80 387.10 L 92.10 386.70 L 94.40 386.70 L 96.70 387.30 L 98.90 388.20 L 100.80 389.60 L 102.20 390.90 L 103.70 393.40 L 104.00 393.40 L 103.40 392.00 L 102.30 390.50 L 99.10 388.00 L 96.90 387.00 L 94.80 386.50 L 92.60 386.40 L 94.20 385.10 L 96.80 383.70 L 98.60 385.60 L 100.50 387.20 L 102.80 388.40 L 105.30 389.10 L 109.80 389.20 L 111.80 388.50 L 112.70 387.70 L 112.40 387.60 Z" fill="#e289a9" fill-rule="evenodd" id="Fill-1720" node-id="175" stroke="none" target-height="27.700012" target-width="29.699997" target-x="83" target-y="377"></path><g node-id="346"><path d="M 561.00 393.10 L 561.20 392.80 L 560.90 392.60 L 553.70 395.30 L 561.00 393.10" fill="#7aba8e" fill-rule="evenodd" group-id="6" id="Fill-1857" node-id="177" stroke="none" target-height="2.6999817" target-width="7.5" target-x="553.7" target-y="392.6"></path><path d="M 554.00 397.80 L 561.50 396.50 L 561.70 396.20 L 554.00 397.30 L 553.80 397.60 L 554.00 397.80" fill="#7aba8e" fill-rule="evenodd" group-id="6" id="Fill-1859" node-id="178" stroke="none" target-height="1.5999756" target-width="7.9000244" target-x="553.8" target-y="396.2"></path><path d="M 531.90 332.00 L 532.10 331.50 L 524.90 326.10 L 524.60 326.00 L 524.60 326.30 L 525.60 327.10 L 531.90 332.00" fill="#7aba8e" fill-rule="evenodd" group-id="6" id="Fill-1865" node-id="179" stroke="none" target-height="6" target-width="7.5" target-x="524.6" target-y="326"></path><path d="M 532.80 330.70 L 532.90 330.30 L 527.30 323.30 L 532.80 330.70" fill="#7aba8e" fill-rule="evenodd" group-id="6" id="Fill-1867" node-id="180" stroke="none" target-height="7.4000244" target-width="5.6000366" target-x="527.3" target-y="323.3"></path></g></svg>