<?xml version="1.0" standalone="no"?><!DOCTYPE svg PUBLIC "-//W3C//DTD SVG 1.1//EN" "http://www.w3.org/Graphics/SVG/1.1/DTD/svg11.dtd"><svg height="198" node-id="1" sillyvg="true" template-height="198" template-width="291" version="1.1" viewBox="0 0 291 198" width="291" xmlns="http://www.w3.org/2000/svg" xmlns:xlink="http://www.w3.org/1999/xlink"><defs node-id="33"><clipPath id="clip-path" node-id="5"><path d="M 234.20 699.10 L 235.90 704.00 L 237.20 706.70 L 239.00 709.10 L 240.40 710.60 L 242.00 711.60 L 243.90 712.30 L 245.80 712.60 L 247.90 712.40 L 252.00 710.80 L 255.60 708.10 L 257.20 706.30 L 259.60 702.50 L 260.30 699.80 L 260.50 697.40 L 259.40 690.60 L 259.20 688.20 L 259.40 685.80 L 260.20 683.10 L 261.50 680.80 L 263.10 678.60 L 265.10 676.80 L 267.30 675.30 L 270.50 674.30 L 272.20 674.20 L 274.20 674.60 L 276.10 675.40 L 279.50 678.40 L 282.20 682.40 L 283.60 685.80 L 284.40 689.20 L 284.60 692.60 L 284.20 695.50 L 281.80 702.80 L 281.20 706.60 L 282.00 710.00 L 283.00 711.80 L 286.00 715.10 L 287.80 716.30 L 289.80 717.00 L 291.90 717.20 L 293.80 716.90 L 295.30 716.10 L 297.70 714.30 L 298.70 713.00 L 300.10 710.00 L 300.30 706.30 L 299.40 699.20 L 299.60 696.70 L 300.40 694.00 L 301.90 691.30 L 304.00 688.90 L 306.50 686.90 L 309.30 685.40 L 311.30 684.80 L 315.40 684.50 L 319.20 685.50 L 323.10 688.20 L 326.50 692.30 L 328.70 696.40 L 329.70 699.30 L 330.60 704.40 L 329.80 717.00 L 330.70 720.10 L 331.70 721.60 L 333.50 723.00 L 335.80 724.10 L 338.40 724.70 L 341.10 724.90 L 343.90 724.80 L 346.60 724.10 L 349.10 723.10 L 351.20 721.60 L 353.30 718.40 L 354.20 713.60 L 353.80 703.30 L 353.90 699.60 L 354.50 695.80 L 356.40 690.80 L 358.00 688.20 L 361.40 684.30 L 363.40 682.80 L 365.70 681.60 L 368.50 680.70 L 373.20 680.60 L 377.90 681.90 L 382.20 684.40 L 385.00 686.80 L 387.20 689.60 L 388.50 691.80 L 389.70 695.70 L 390.00 698.60 L 389.90 704.60 L 390.40 710.20 L 392.30 715.40 L 395.40 720.30 L 399.80 724.90 L 402.70 726.90 L 407.10 728.60 L 409.70 729.00 L 412.70 729.00 L 415.60 728.40 L 418.40 727.40 L 421.00 725.90 L 423.20 724.10 L 425.20 721.80 L 426.50 719.40 L 427.10 717.30 L 427.30 715.10 L 426.90 707.40 L 427.10 704.30 L 427.70 700.50 L 430.00 693.70 L 431.70 690.20 L 434.00 686.70 L 436.90 683.30 L 439.10 681.30 L 441.70 679.70 L 444.70 678.30 L 448.00 677.50 L 451.00 677.20 L 453.90 677.30 L 458.90 678.30 L 463.10 680.00 L 467.50 682.60 L 471.80 686.20 L 473.80 688.70 L 475.50 691.40 L 476.70 694.70 L 477.40 697.90 L 477.40 700.60 L 476.30 710.10 L 476.90 712.90 L 477.70 714.40 L 479.50 716.40 L 481.30 717.70 L 485.00 719.20 L 486.90 719.50 L 489.30 719.50 L 491.60 719.00 L 493.80 718.10 L 496.80 716.30 L 499.40 713.90 L 501.60 711.20 L 503.30 708.60 L 504.20 706.50 L 504.70 702.70 L 504.40 699.90 L 503.10 693.80 L 502.40 687.60 L 502.70 684.60 L 504.00 678.10 L 505.50 674.10 L 506.50 672.20 L 507.80 670.40 L 509.40 669.00 L 511.40 668.00 L 512.70 667.80 L 515.70 667.90 L 517.20 667.50 L 517.90 665.90 L 517.50 662.60 L 514.50 655.00 L 512.00 650.30 L 509.90 647.00 L 507.80 644.50 L 505.40 642.40 L 502.50 640.80 L 499.20 639.50 L 492.00 638.00 L 482.80 637.60 L 469.20 638.50 L 419.80 645.70 L 403.60 647.70 L 380.90 649.60 L 368.70 650.10 L 356.40 650.20 L 343.60 649.90 L 330.20 649.00 L 317.30 647.60 L 285.20 643.00 L 276.00 642.00 L 268.00 641.60 L 262.90 641.80 L 258.30 642.40 L 254.20 643.50 L 251.20 644.60 L 248.40 646.20 L 245.70 648.10 L 243.20 650.50 L 240.70 653.40 L 238.50 656.80 L 236.60 660.60 L 233.70 668.80 L 232.20 677.60 L 231.90 686.50 L 232.30 690.90 L 234.20 699.10 Z" fill="#000000" fill-rule="nonzero" node-id="36" stroke="none" target-height="91.400024" target-width="286.00003" target-x="231.9" target-y="637.6"></path></clipPath></defs><g node-id="110"><path d="M 261.80 184.80 L 242.30 188.20 L 222.70 190.90 L 203.10 193.00 L 183.40 194.50 L 163.70 195.40 L 144.00 195.70 L 124.30 195.40 L 104.60 194.50 L 84.90 193.00 L 65.30 190.90 L 45.80 188.20 L 26.20 184.80 L 20.30 176.30 L 16.90 170.60 L 13.30 163.20 L 11.10 158.00 L 7.20 145.80 L 5.70 139.30 L 4.70 132.30 L 4.10 124.60 L 4.10 117.10 L 4.60 109.70 L 5.70 102.40 L 7.20 95.10 L 9.30 88.00 L 11.90 81.00 L 19.40 86.40 L 27.60 90.80 L 36.20 93.90 L 46.10 95.90 L 66.20 98.10 L 103.70 101.30 L 121.90 102.20 L 150.50 102.80 L 180.10 102.00 L 201.40 100.80 L 224.60 98.70 L 247.60 95.50 L 253.90 94.20 L 260.10 92.40 L 266.10 90.30 L 272.00 87.60 L 277.70 84.50 L 283.10 81.00 L 285.40 88.60 L 287.10 96.30 L 288.20 104.20 L 288.80 112.10 L 288.70 120.00 L 288.00 128.00 L 286.70 135.90 L 284.70 143.60 L 282.30 151.10 L 279.20 158.40 L 275.60 165.50 L 271.50 172.20 L 266.90 178.70 L 261.80 184.80 Z" fill="#ffcc71" fill-rule="nonzero" group-id="1" node-id="42" stroke="#221a6b" stroke-linecap="round" stroke-width="4.58" target-height="114.7" target-width="284.69998" target-x="4.1" target-y="81"></path></g><g node-id="111"><path d="M 4.60 131.10 L 6.30 135.90 L 7.70 138.60 L 9.40 141.10 L 10.80 142.50 L 12.40 143.60 L 14.30 144.30 L 16.30 144.50 L 18.30 144.40 L 22.40 142.80 L 26.10 140.00 L 27.70 138.30 L 30.00 134.40 L 30.80 131.70 L 30.90 129.40 L 29.80 122.50 L 29.60 120.20 L 29.80 117.80 L 30.70 115.00 L 31.90 112.80 L 33.60 110.60 L 35.60 108.70 L 37.80 107.30 L 40.90 106.30 L 42.60 106.20 L 44.60 106.60 L 46.50 107.40 L 49.90 110.40 L 52.60 114.40 L 54.00 117.80 L 54.80 121.20 L 55.00 124.60 L 54.60 127.40 L 52.20 134.80 L 51.60 138.50 L 52.40 142.00 L 53.40 143.80 L 56.40 147.10 L 58.20 148.30 L 60.20 149.00 L 62.30 149.20 L 64.20 148.90 L 65.80 148.10 L 68.10 146.20 L 69.10 145.00 L 70.50 142.00 L 70.70 138.30 L 69.90 131.20 L 70.00 128.70 L 70.80 126.00 L 72.30 123.30 L 74.40 120.90 L 76.90 118.90 L 79.70 117.40 L 81.70 116.80 L 85.80 116.40 L 89.70 117.50 L 93.50 120.20 L 96.90 124.30 L 99.10 128.30 L 100.20 131.30 L 101.00 136.40 L 100.30 148.90 L 101.10 152.10 L 102.20 153.50 L 104.00 155.00 L 106.30 156.00 L 108.80 156.70 L 111.60 156.90 L 114.40 156.70 L 117.00 156.10 L 119.50 155.00 L 121.60 153.50 L 123.80 150.40 L 124.70 145.60 L 124.30 135.30 L 124.40 131.60 L 124.90 127.80 L 126.80 122.80 L 128.40 120.20 L 131.80 116.30 L 133.80 114.80 L 136.10 113.50 L 138.90 112.70 L 143.60 112.60 L 148.30 113.90 L 152.60 116.40 L 155.40 118.80 L 157.70 121.50 L 158.90 123.70 L 160.20 127.70 L 160.40 130.60 L 160.30 136.60 L 160.80 142.20 L 162.80 147.40 L 165.90 152.30 L 170.20 156.90 L 173.10 158.90 L 177.50 160.60 L 180.10 161.00 L 183.20 160.90 L 186.00 160.40 L 188.80 159.40 L 191.40 157.90 L 193.60 156.00 L 195.70 153.80 L 196.90 151.40 L 197.50 149.30 L 197.70 147.10 L 197.30 139.40 L 198.20 132.40 L 200.40 125.70 L 202.20 122.10 L 204.40 118.60 L 207.30 115.30 L 209.50 113.30 L 212.20 111.60 L 215.20 110.30 L 218.40 109.50 L 221.40 109.20 L 224.30 109.30 L 229.30 110.30 L 233.60 112.00 L 238.00 114.60 L 242.20 118.20 L 244.20 120.60 L 245.90 123.40 L 247.20 126.60 L 247.80 129.80 L 247.80 132.60 L 246.70 142.00 L 247.30 144.90 L 248.20 146.40 L 249.90 148.30 L 251.70 149.70 L 255.40 151.10 L 257.30 151.50 L 259.80 151.40 L 262.00 151.00 L 264.20 150.10 L 267.20 148.20 L 269.80 145.90 L 272.10 143.20 L 273.70 140.60 L 274.60 138.50 L 275.10 134.70 L 274.80 131.90 L 273.50 125.80 L 272.90 119.60 L 273.10 116.60 L 274.40 110.00 L 275.90 106.10 L 277.00 104.10 L 278.30 102.40 L 279.90 101.00 L 281.80 100.00 L 283.10 99.70 L 286.20 99.90 L 287.60 99.40 L 288.30 97.90 L 287.90 94.60 L 284.90 87.00 L 282.40 82.30 L 280.30 79.00 L 278.20 76.50 L 275.80 74.40 L 272.90 72.70 L 269.60 71.40 L 262.40 69.90 L 253.20 69.60 L 239.60 70.50 L 190.30 77.60 L 174.00 79.60 L 151.40 81.50 L 139.10 82.10 L 126.80 82.20 L 114.00 81.90 L 100.70 81.00 L 87.70 79.60 L 55.60 75.00 L 46.40 74.00 L 38.50 73.60 L 33.30 73.70 L 28.70 74.40 L 24.60 75.50 L 21.60 76.60 L 18.80 78.20 L 16.20 80.10 L 13.60 82.40 L 11.10 85.40 L 8.90 88.80 L 7.00 92.60 L 4.20 100.70 L 2.60 109.60 L 2.40 118.50 L 2.80 122.90 L 4.60 131.10 Z" fill="#ffe9c5" fill-rule="nonzero" group-id="2" node-id="47" stroke="none" target-height="91.4" target-width="285.9" target-x="2.4" target-y="69.6"></path></g><g node-id="112"><g clip-path="url(#clip-path)" group-id="3" id="sillyvg_g_0" node-id="50"><path d="M 27.60 127.70 L 27.40 129.20 L 26.00 131.60 L 23.60 133.00 L 22.10 133.30 L 19.30 132.50 L 17.30 130.50 L 16.70 129.20 L 16.50 127.70 L 17.30 124.90 L 19.30 122.90 L 22.10 122.20 L 23.60 122.40 L 26.00 123.80 L 27.40 126.20 L 27.60 127.70 Z" fill="#ffffff" fill-rule="nonzero" group-id="3" node-id="52" stroke="#ffffff" stroke-linecap="round" stroke-width="4.58" target-height="11.100006" target-width="11.1" target-x="16.5" target-y="122.2"></path><path d="M 22.00 97.80 L 21.80 99.10 L 20.50 101.30 L 18.30 102.60 L 16.90 102.80 L 15.60 102.60 L 13.40 101.30 L 12.10 99.10 L 11.90 97.80 L 12.10 96.40 L 13.40 94.20 L 15.60 93.00 L 16.90 92.80 L 18.30 93.00 L 20.50 94.20 L 21.80 96.40 L 22.00 97.80 Z" fill="#ffffff" fill-rule="nonzero" group-id="3" node-id="54" stroke="#ffffff" stroke-linecap="round" stroke-width="4.58" target-height="10" target-width="10.1" target-x="11.9" target-y="92.8"></path><path d="M 69.90 116.00 L 69.40 117.10 L 68.30 117.60 L 67.60 117.50 L 66.80 116.60 L 66.80 115.40 L 67.10 114.80 L 68.30 114.40 L 69.40 114.80 L 69.90 116.00 Z" fill="#ffffff" fill-rule="nonzero" group-id="3" node-id="56" stroke="#ffffff" stroke-linecap="round" stroke-width="4.58" target-height="3.199997" target-width="3.0999985" target-x="66.8" target-y="114.4"></path><path d="M 118.50 118.30 L 118.20 120.10 L 117.60 121.60 L 116.50 123.00 L 115.20 124.00 L 113.60 124.70 L 111.80 124.90 L 110.00 124.70 L 108.50 124.00 L 107.10 123.00 L 106.10 121.60 L 105.50 120.10 L 105.20 118.30 L 105.50 116.50 L 106.10 114.90 L 107.10 113.60 L 108.50 112.50 L 110.00 111.90 L 111.80 111.60 L 113.60 111.90 L 115.20 112.50 L 116.50 113.60 L 117.60 114.90 L 118.20 116.50 L 118.50 118.30 Z" fill="#ffffff" fill-rule="nonzero" group-id="3" node-id="58" stroke="#ffffff" stroke-linecap="round" stroke-width="4.58" target-height="13.300003" target-width="13.300003" target-x="105.2" target-y="111.6"></path><path d="M 189.80 146.00 L 189.30 147.10 L 188.20 147.60 L 187.00 147.10 L 186.60 146.00 L 187.00 144.90 L 188.20 144.40 L 189.30 144.90 L 189.80 146.00 Z" fill="#ffffff" fill-rule="nonzero" group-id="3" node-id="60" stroke="#ffffff" stroke-linecap="round" stroke-width="4.58" target-height="3.2000122" target-width="3.199997" target-x="186.6" target-y="144.4"></path><path d="M 178.20 115.30 L 177.90 117.60 L 177.00 119.70 L 175.60 121.50 L 173.90 122.90 L 171.80 123.80 L 169.40 124.10 L 167.10 123.80 L 165.00 122.90 L 163.20 121.50 L 161.80 119.70 L 160.90 117.60 L 160.60 115.30 L 160.90 112.90 L 161.80 110.80 L 163.20 109.00 L 165.00 107.70 L 167.10 106.80 L 169.40 106.50 L 171.80 106.80 L 173.90 107.70 L 175.60 109.00 L 177.00 110.80 L 177.90 112.90 L 178.20 115.30 Z" fill="#ffffff" fill-rule="nonzero" group-id="3" node-id="62" stroke="#ffffff" stroke-linecap="round" stroke-width="4.58" target-height="17.599998" target-width="17.59999" target-x="160.6" target-y="106.5"></path><path d="M 260.30 125.20 L 260.10 125.90 L 259.10 127.00 L 257.50 127.00 L 256.50 125.90 L 256.50 124.40 L 257.50 123.40 L 259.10 123.40 L 260.10 124.40 L 260.30 125.20 Z" fill="#ffffff" fill-rule="nonzero" group-id="3" node-id="64" stroke="#ffffff" stroke-linecap="round" stroke-width="4.58" target-height="3.5999985" target-width="3.7999878" target-x="256.5" target-y="123.4"></path><path d="M 275.10 101.80 L 274.90 103.10 L 273.70 105.10 L 271.60 106.30 L 270.30 106.50 L 267.90 105.90 L 266.20 104.20 L 265.70 103.10 L 265.50 101.80 L 266.20 99.40 L 267.90 97.60 L 270.30 97.00 L 271.60 97.20 L 273.70 98.40 L 274.90 100.50 L 275.10 101.80 Z" fill="#ffffff" fill-rule="nonzero" group-id="3" node-id="66" stroke="#ffffff" stroke-linecap="round" stroke-width="4.58" target-height="9.5" target-width="9.600006" target-x="265.5" target-y="97"></path></g></g><g node-id="113"><path d="M 4.60 131.10 L 6.30 135.90 L 7.70 138.60 L 9.40 141.10 L 10.80 142.50 L 12.40 143.60 L 14.30 144.30 L 16.30 144.50 L 18.30 144.40 L 22.40 142.80 L 26.10 140.00 L 27.70 138.30 L 30.00 134.40 L 30.80 131.70 L 30.90 129.40 L 29.80 122.50 L 29.60 120.20 L 29.80 117.80 L 30.70 115.00 L 31.90 112.80 L 33.60 110.60 L 35.60 108.70 L 37.80 107.30 L 40.90 106.30 L 42.60 106.20 L 44.60 106.60 L 46.50 107.40 L 49.90 110.40 L 52.60 114.40 L 54.00 117.80 L 54.80 121.20 L 55.00 124.60 L 54.60 127.40 L 52.20 134.80 L 51.60 138.50 L 52.40 142.00 L 53.40 143.80 L 56.40 147.10 L 58.20 148.30 L 60.20 149.00 L 62.30 149.20 L 64.20 148.90 L 65.80 148.10 L 68.10 146.20 L 69.10 145.00 L 70.50 142.00 L 70.70 138.30 L 69.90 131.20 L 70.00 128.70 L 70.80 126.00 L 72.30 123.30 L 74.40 120.90 L 76.90 118.90 L 79.70 117.40 L 81.70 116.80 L 85.80 116.40 L 89.70 117.50 L 93.50 120.20 L 96.90 124.30 L 99.10 128.30 L 100.20 131.30 L 101.00 136.40 L 100.30 148.90 L 101.10 152.10 L 102.20 153.50 L 104.00 155.00 L 106.30 156.00 L 108.80 156.70 L 111.60 156.90 L 114.40 156.70 L 117.00 156.10 L 119.50 155.00 L 121.60 153.50 L 123.80 150.40 L 124.70 145.60 L 124.30 135.30 L 124.40 131.60 L 124.90 127.80 L 126.80 122.80 L 128.40 120.20 L 131.80 116.30 L 133.80 114.80 L 136.10 113.50 L 138.90 112.70 L 143.60 112.60 L 148.30 113.90 L 152.60 116.40 L 155.40 118.80 L 157.70 121.50 L 158.90 123.70 L 160.20 127.70 L 160.40 130.60 L 160.30 136.60 L 160.80 142.20 L 162.80 147.40 L 165.90 152.30 L 170.20 156.90 L 173.10 158.90 L 177.50 160.60 L 180.10 161.00 L 183.20 160.90 L 186.00 160.40 L 188.80 159.40 L 191.40 157.90 L 193.60 156.00 L 195.70 153.80 L 196.90 151.40 L 197.50 149.30 L 197.70 147.10 L 197.30 139.40 L 198.20 132.40 L 200.40 125.70 L 202.20 122.10 L 204.40 118.60 L 207.30 115.30 L 209.50 113.30 L 212.20 111.60 L 215.20 110.30 L 218.40 109.50 L 221.40 109.20 L 224.30 109.30 L 229.30 110.30 L 233.60 112.00 L 238.00 114.60 L 242.20 118.20 L 244.20 120.60 L 245.90 123.40 L 247.20 126.60 L 247.80 129.80 L 247.80 132.60 L 246.70 142.00 L 247.30 144.90 L 248.20 146.40 L 249.90 148.30 L 251.70 149.70 L 255.40 151.10 L 257.30 151.50 L 259.80 151.40 L 262.00 151.00 L 264.20 150.10 L 267.20 148.20 L 269.80 145.90 L 272.10 143.20 L 273.70 140.60 L 274.60 138.50 L 275.10 134.70 L 274.80 131.90 L 273.50 125.80 L 272.90 119.60 L 273.10 116.60 L 274.40 110.00 L 275.90 106.10 L 277.00 104.10 L 278.30 102.40 L 279.90 101.00 L 281.80 100.00 L 283.10 99.70 L 286.20 99.90 L 287.60 99.40 L 288.30 97.90 L 287.90 94.60 L 284.90 87.00 L 282.40 82.30 L 280.30 79.00 L 278.20 76.50 L 275.80 74.40 L 272.90 72.70 L 269.60 71.40 L 262.40 69.90 L 253.20 69.60 L 239.60 70.50 L 190.30 77.60 L 174.00 79.60 L 151.40 81.50 L 139.10 82.10 L 126.80 82.20 L 114.00 81.90 L 100.70 81.00 L 87.70 79.60 L 55.60 75.00 L 46.40 74.00 L 38.50 73.60 L 33.30 73.70 L 28.70 74.40 L 24.60 75.50 L 21.60 76.60 L 18.80 78.20 L 16.20 80.10 L 13.60 82.40 L 11.10 85.40 L 8.90 88.80 L 7.00 92.60 L 4.20 100.70 L 2.60 109.60 L 2.40 118.50 L 2.80 122.90 L 4.60 131.10 Z" fill="none" group-id="4" node-id="71" stroke="#221a6b" stroke-linecap="round" stroke-width="4.58" target-height="91.4" target-width="285.9" target-x="2.4" target-y="69.6"></path></g><path d="M 283.10 79.30 L 282.80 80.70 L 282.10 82.00 L 280.90 83.50 L 279.00 85.10 L 276.20 86.70 L 271.50 88.80 L 265.20 91.00 L 256.90 93.20 L 238.90 96.70 L 216.30 99.50 L 190.40 101.60 L 162.60 102.60 L 147.50 102.80 L 132.40 102.60 L 104.60 101.60 L 78.70 99.50 L 56.10 96.70 L 38.10 93.20 L 29.80 91.00 L 23.50 88.80 L 18.80 86.70 L 16.00 85.10 L 14.10 83.50 L 12.90 82.00 L 12.20 80.70 L 11.90 79.30 L 12.20 77.90 L 12.90 76.60 L 14.10 75.10 L 16.00 73.50 L 18.80 71.90 L 23.50 69.80 L 29.80 67.60 L 38.10 65.40 L 56.10 61.90 L 78.70 59.10 L 104.60 57.00 L 132.40 56.00 L 147.50 55.80 L 162.60 56.00 L 190.40 57.00 L 216.30 59.10 L 238.90 61.90 L 256.90 65.40 L 265.20 67.60 L 271.50 69.80 L 276.20 71.90 L 279.00 73.50 L 280.90 75.10 L 282.10 76.60 L 282.80 77.90 L 283.10 79.30 Z" fill="#ffe9c5" fill-rule="nonzero" node-id="74" stroke="#221a6b" stroke-linecap="round" stroke-width="4.58" target-height="47.000004" target-width="271.2" target-x="11.9" target-y="55.8"></path><path d="M 111.90 23.70 L 113.20 23.90 L 115.30 25.10 L 116.50 27.10 L 116.70 28.40 L 116.70 71.20 L 116.00 73.60 L 114.30 75.30 L 113.20 75.70 L 111.90 75.90 L 109.50 75.30 L 107.80 73.60 L 107.20 71.20 L 107.20 28.40 L 107.40 27.10 L 108.60 25.10 L 110.60 23.90 L 111.90 23.70 Z" fill="#b55247" fill-rule="nonzero" node-id="76" stroke="#221a6b" stroke-linecap="round" stroke-width="4" target-height="52.2" target-width="9.5" target-x="107.2" target-y="23.7"></path><g node-id="114"><path d="M 113.50 2.00 L 111.20 3.50 L 109.30 5.30 L 107.70 7.50 L 106.50 10.00 L 105.90 12.10 L 105.80 14.20 L 106.00 16.40 L 106.60 18.10 L 108.20 20.70 L 109.50 21.80 L 111.30 22.50 L 112.90 22.70 L 114.40 22.40 L 115.80 21.70 L 117.00 20.60 L 117.80 19.20 L 118.30 16.00 L 117.70 13.90 L 115.60 10.60 L 114.60 8.30 L 114.00 5.70 L 113.50 2.00 Z" fill="#c97247" fill-rule="nonzero" group-id="5" node-id="80" stroke="#221a6b" stroke-linecap="round" stroke-width="4" target-height="20.7" target-width="12.5" target-x="105.8" target-y="2"></path></g><path d="M 150.00 40.50 L 152.30 41.20 L 153.30 41.90 L 154.50 44.00 L 154.70 45.30 L 154.70 88.00 L 154.10 90.40 L 153.30 91.40 L 152.30 92.10 L 150.00 92.80 L 147.60 92.10 L 146.60 91.40 L 145.80 90.40 L 145.20 88.00 L 145.20 45.30 L 145.40 44.00 L 146.60 41.90 L 147.60 41.20 L 150.00 40.50 Z" fill="#5ea538" fill-rule="nonzero" node-id="83" stroke="#221a6b" stroke-linecap="round" stroke-width="4" target-height="52.300003" target-width="9.5" target-x="145.2" target-y="40.5"></path><g node-id="115"><path d="M 151.60 18.80 L 149.30 20.30 L 147.30 22.20 L 145.70 24.40 L 144.60 26.80 L 144.00 29.00 L 143.80 31.10 L 144.10 33.20 L 144.70 35.00 L 146.30 37.60 L 147.60 38.70 L 149.30 39.40 L 150.90 39.50 L 152.50 39.30 L 153.90 38.60 L 155.10 37.50 L 155.90 36.10 L 156.40 32.90 L 155.70 30.80 L 153.60 27.50 L 152.70 25.20 L 152.00 22.60 L 151.60 18.80 Z" fill="#c97247" fill-rule="nonzero" group-id="6" node-id="87" stroke="#221a6b" stroke-linecap="round" stroke-width="4" target-height="20.7" target-width="12.599991" target-x="143.8" target-y="18.8"></path></g><path d="M 61.90 34.50 L 63.20 34.70 L 65.30 35.90 L 66.50 38.00 L 66.60 39.30 L 66.60 82.00 L 66.50 83.30 L 65.30 85.40 L 63.20 86.60 L 61.90 86.80 L 60.60 86.60 L 58.50 85.40 L 57.30 83.30 L 57.20 82.00 L 57.20 39.30 L 57.30 38.00 L 58.50 35.90 L 59.50 35.10 L 61.90 34.50 Z" fill="#a862b2" fill-rule="nonzero" node-id="90" stroke="#221a6b" stroke-linecap="round" stroke-width="4" target-height="52.300003" target-width="9.399998" target-x="57.2" target-y="34.5"></path><g node-id="116"><path d="M 63.50 12.80 L 61.20 14.30 L 59.30 16.20 L 57.70 18.40 L 56.50 20.80 L 55.90 22.90 L 55.80 25.10 L 56.00 27.20 L 56.60 29.00 L 58.20 31.60 L 59.50 32.70 L 61.30 33.40 L 62.90 33.50 L 64.40 33.20 L 65.80 32.60 L 67.00 31.50 L 68.30 28.60 L 68.30 26.90 L 67.70 24.80 L 65.60 21.50 L 64.60 19.20 L 64.00 16.60 L 63.50 12.80 Z" fill="#c97247" fill-rule="nonzero" group-id="7" node-id="94" stroke="#221a6b" stroke-linecap="round" stroke-width="4" target-height="20.7" target-width="12.500004" target-x="55.8" target-y="12.8"></path></g><path d="M 201.20 26.90 L 202.50 27.10 L 204.60 28.30 L 205.30 29.30 L 206.00 31.70 L 206.00 74.40 L 205.80 75.70 L 204.60 77.80 L 203.60 78.50 L 201.20 79.20 L 200.00 79.00 L 197.90 77.80 L 197.10 76.80 L 196.50 74.40 L 196.50 31.70 L 197.10 29.30 L 197.90 28.30 L 200.00 27.10 L 201.20 26.90 Z" fill="#3848a0" fill-rule="nonzero" node-id="97" stroke="#221a6b" stroke-linecap="round" stroke-width="4" target-height="52.299995" target-width="9.5" target-x="196.5" target-y="26.9"></path><g node-id="117"><path d="M 202.80 5.30 L 200.60 6.70 L 198.60 8.60 L 197.00 10.80 L 195.80 13.30 L 195.30 15.40 L 195.10 17.50 L 195.30 19.60 L 195.90 21.40 L 197.60 24.00 L 198.90 25.10 L 200.60 25.80 L 202.20 26.00 L 203.70 25.70 L 205.10 25.00 L 206.30 23.90 L 207.60 21.00 L 207.70 19.30 L 207.00 17.20 L 204.90 13.90 L 204.00 11.60 L 203.30 9.00 L 202.80 5.30 Z" fill="#c97247" fill-rule="nonzero" group-id="8" node-id="101" stroke="#221a6b" stroke-linecap="round" stroke-width="4" target-height="20.7" target-width="12.599991" target-x="195.1" target-y="5.3"></path></g><path d="M 243.30 37.60 L 244.50 37.70 L 246.60 39.00 L 247.90 41.10 L 248.00 42.30 L 248.00 85.10 L 247.90 86.30 L 246.60 88.40 L 244.50 89.60 L 242.00 89.60 L 239.90 88.40 L 239.20 87.40 L 238.50 85.10 L 238.50 42.30 L 238.70 41.10 L 239.90 39.00 L 242.00 37.70 L 243.30 37.60 Z" fill="#30968a" fill-rule="nonzero" node-id="104" stroke="#221a6b" stroke-linecap="round" stroke-width="4" target-height="52" target-width="9.5" target-x="238.5" target-y="37.6"></path><g node-id="118"><path d="M 244.90 15.90 L 242.60 17.40 L 240.60 19.20 L 239.10 21.40 L 237.90 23.90 L 237.30 26.00 L 237.10 28.10 L 237.40 30.30 L 238.00 32.00 L 239.60 34.60 L 240.90 35.70 L 242.60 36.40 L 244.20 36.60 L 245.80 36.30 L 247.20 35.60 L 248.40 34.50 L 249.20 33.10 L 249.70 30.00 L 249.10 27.80 L 247.00 24.50 L 246.00 22.20 L 245.30 19.60 L 244.90 15.90 Z" fill="#c97247" fill-rule="nonzero" group-id="9" node-id="108" stroke="#221a6b" stroke-linecap="round" stroke-width="4" target-height="20.699999" target-width="12.599991" target-x="237.1" target-y="15.9"></path></g></svg>