<?xml version="1.0" standalone="no"?><!DOCTYPE svg PUBLIC "-//W3C//DTD SVG 1.1//EN" "http://www.w3.org/Graphics/SVG/1.1/DTD/svg11.dtd"><svg height="66" node-id="1" sillyvg="true" template-height="66" template-width="51" version="1.1" viewBox="0 0 51 66" width="51" xmlns="http://www.w3.org/2000/svg" xmlns:xlink="http://www.w3.org/1999/xlink"><defs node-id="17"><clipPath id="clip-path" node-id="5"><path d="M 4.10 0.50 L 46.80 0.50 L 48.20 0.80 L 49.40 1.60 L 50.10 2.70 L 50.40 4.10 L 50.40 61.70 L 50.10 63.10 L 49.40 64.30 L 48.20 65.10 L 46.80 65.40 L 4.10 65.40 L 2.70 65.10 L 1.60 64.30 L 0.80 63.10 L 0.50 61.70 L 0.50 4.10 L 0.80 2.70 L 1.60 1.60 L 2.70 0.80 L 4.10 0.50 Z" fill="#000000" fill-rule="nonzero" node-id="20" stroke="none" target-height="64.9" target-width="49.9" target-x="0.5" target-y="0.5"></path></clipPath></defs><g node-id="37"><path d="M 4.10 0.60 L 46.70 0.60 L 48.10 0.90 L 49.30 1.60 L 50.10 2.80 L 50.30 4.20 L 50.30 61.80 L 50.10 63.20 L 49.30 64.40 L 48.10 65.20 L 46.70 65.40 L 4.10 65.40 L 2.60 65.10 L 1.50 64.40 L 0.70 63.20 L 0.40 61.80 L 0.40 4.20 L 0.70 2.80 L 1.50 1.60 L 2.60 0.90 L 4.10 0.60 Z" fill="#d04928" fill-rule="nonzero" group-id="1" node-id="26" stroke="none" target-height="64.8" target-width="49.899998" target-x="0.4" target-y="0.6"></path><g node-id="38"><g clip-path="url(#clip-path)" group-id="1,2" node-id="28"><path d="M 1.00 1.90 L 24.50 22.80 L 48.80 1.30" fill="none" group-id="1,2" node-id="30" stroke="#b33c29" stroke-linecap="round" stroke-width="1.5" target-height="21.5" target-width="47.8" target-x="1" target-y="1.3"></path></g></g><path d="M 4.10 0.50 L 46.80 0.50 L 48.20 0.80 L 49.40 1.60 L 50.10 2.70 L 50.40 4.10 L 50.40 61.70 L 50.10 63.10 L 49.40 64.30 L 48.20 65.10 L 46.80 65.40 L 4.10 65.40 L 2.70 65.10 L 1.60 64.30 L 0.80 63.10 L 0.50 61.70 L 0.50 4.10 L 0.80 2.70 L 1.60 1.60 L 2.70 0.80 L 4.10 0.50 Z" fill="none" group-id="1" node-id="33" stroke="#b33c29" stroke-linecap="butt" stroke-width="1" target-height="64.9" target-width="49.9" target-x="0.5" target-y="0.5"></path><path d="M 32.80 22.70 L 32.50 24.70 L 31.70 26.50 L 30.50 28.00 L 29.00 29.20 L 27.20 30.00 L 25.20 30.30 L 23.20 30.00 L 21.40 29.20 L 19.90 28.00 L 18.70 26.50 L 17.90 24.70 L 17.70 22.70 L 17.90 20.70 L 18.70 18.90 L 19.90 17.40 L 21.40 16.20 L 23.20 15.40 L 25.20 15.20 L 27.20 15.40 L 29.00 16.20 L 30.50 17.40 L 31.70 18.90 L 32.50 20.70 L 32.80 22.70 Z" fill="#d9c430" fill-rule="nonzero" group-id="1" node-id="35" stroke="none" target-height="15.099999" target-width="15.099998" target-x="17.7" target-y="15.2"></path></g></svg>