<?xml version="1.0" standalone="no"?><!DOCTYPE svg PUBLIC "-//W3C//DTD SVG 1.1//EN" "http://www.w3.org/Graphics/SVG/1.1/DTD/svg11.dtd"><svg height="70" node-id="1" sillyvg="true" template-height="70" template-width="70" version="1.1" viewBox="0 0 70 70" width="70" xmlns="http://www.w3.org/2000/svg" xmlns:xlink="http://www.w3.org/1999/xlink"><defs node-id="13"></defs><g node-id="23"><path d="M 4.50 21.70 L 3.20 21.40 L 2.00 21.80 L 1.10 22.70 L 0.80 23.90 L 0.00 41.80 L 0.70 48.60 L 2.70 55.10 L 4.30 58.10 L 6.40 61.00 L 8.20 62.80 L 13.00 66.10 L 19.30 68.40 L 23.00 69.20 L 32.60 69.90 L 40.80 69.70 L 47.40 69.10 L 52.50 68.10 L 56.30 67.00 L 59.40 65.70 L 61.90 64.30 L 64.00 62.60 L 65.80 60.70 L 67.20 58.50 L 68.40 56.00 L 69.90 49.30 L 70.40 39.60 L 69.50 21.70 L 69.10 20.80 L 68.30 20.20 L 67.40 20.00 L 66.40 20.30 L 48.30 29.60 L 35.80 1.10 L 35.20 0.30 L 34.20 0.00 L 33.20 0.30 L 32.60 1.10 L 19.60 28.00 L 19.00 28.20 Z" fill="#e74228" fill-rule="nonzero" group-id="1" node-id="17" stroke="none" target-height="69.9" target-width="70.4" target-x="0" target-y="0"></path><path d="M 15.00 36.30 L 14.20 36.20 L 13.40 36.40 L 12.90 37.00 L 12.70 37.80 L 12.20 47.70 L 12.80 54.20 L 14.70 59.00 L 16.10 61.10 L 18.20 62.90 L 20.90 64.60 L 25.60 66.10 L 32.80 66.80 L 42.10 66.20 L 48.40 64.70 L 50.80 63.50 L 52.60 62.20 L 54.00 60.50 L 55.10 58.50 L 55.90 56.20 L 56.50 52.40 L 56.60 47.60 L 56.10 36.30 L 55.80 35.70 L 54.70 35.20 L 54.10 35.50 L 42.70 41.30 L 34.40 22.90 L 33.80 22.70 L 32.80 23.40 L 24.60 40.40 L 24.20 40.50 Z" fill="#f3d03c" fill-rule="nonzero" group-id="1" node-id="19" stroke="none" target-height="44.100002" target-width="44.399998" target-x="12.2" target-y="22.7"></path><path d="M 26.10 51.60 L 25.50 51.60 L 25.10 52.20 L 25.60 55.70 L 26.20 57.70 L 28.30 61.70 L 30.90 64.00 L 33.80 64.70 L 36.10 64.50 L 38.10 63.90 L 39.90 62.90 L 41.30 61.60 L 42.40 59.90 L 43.20 57.80 L 43.70 55.10 L 43.80 51.60 L 43.50 51.20 L 42.90 51.20 L 38.00 53.80 L 34.70 46.00 L 34.20 45.70 L 33.80 46.00 L 30.10 53.40 Z" fill="#dc8137" fill-rule="nonzero" group-id="1" node-id="21" stroke="none" target-height="18.999996" target-width="18.699999" target-x="25.1" target-y="45.7"></path></g></svg>