<?xml version="1.0" standalone="no"?><!DOCTYPE svg PUBLIC "-//W3C//DTD SVG 1.1//EN" "http://www.w3.org/Graphics/SVG/1.1/DTD/svg11.dtd"><svg height="303" node-id="1" sillyvg="true" template-height="303" template-width="300" version="1.1" viewBox="0 0 300 303" width="300" xmlns="http://www.w3.org/2000/svg" xmlns:xlink="http://www.w3.org/1999/xlink"><defs node-id="28"></defs><g node-id="95"><path d="M 0.00 64.10 L 143.40 10.80 L 300.30 64.10 L 150.10 135.40 L 0.00 64.10 Z" fill="#eabb68" fill-rule="nonzero" group-id="1" node-id="31" stroke="none" target-height="124.59999" target-width="300.3" target-x="0" target-y="10.8"></path><path d="M 150.10 135.40 L 150.10 302.90 L 292.40 206.90 L 300.30 64.10" fill="#f4d589" fill-rule="nonzero" group-id="1" node-id="33" stroke="none" target-height="238.79999" target-width="150.19998" target-x="150.1" target-y="64.1"></path><g node-id="97"><path d="M 0.00 64.10 L 0.00 221.20 L 150.10 302.90 L 150.10 135.40 L 0.00 64.10 Z" fill="#ba9950" fill-rule="nonzero" group-id="1,3" node-id="36" stroke="none" target-height="238.79999" target-width="150.1" target-x="0" target-y="64.1"></path></g><g node-id="98"><path d="M 95.20 109.30 L 236.60 42.50 L 199.30 29.80 L 62.60 93.80 L 95.20 109.30 Z" fill="#dd452c" fill-rule="nonzero" group-id="1,4" node-id="40" stroke="none" target-height="79.5" target-width="174" target-x="62.6" target-y="29.8"></path><path d="M 205.10 109.30 L 209.10 263.10 L 249.00 236.20 L 242.60 91.50 L 205.10 109.30 Z" fill="#e0604f" fill-rule="nonzero" group-id="1,4" node-id="42" stroke="none" target-height="171.6" target-width="43.899994" target-x="205.1" target-y="91.5"></path><path d="M 62.60 93.80 L 54.70 250.90 L 86.40 268.20 L 95.20 109.30" fill="#a83829" fill-rule="nonzero" group-id="1,4" node-id="44" stroke="none" target-height="174.40001" target-width="40.499996" target-x="54.7" target-y="93.8"></path><path d="M 205.10 109.30 L 61.30 41.30 L 101.40 26.40 L 242.60 91.50" fill="#dd452c" fill-rule="nonzero" group-id="1,4" node-id="46" stroke="none" target-height="82.9" target-width="181.3" target-x="61.3" target-y="26.4"></path></g></g><g node-id="96"><g node-id="99"><path d="M 161.90 52.10 L 204.10 0.90 L 215.50 25.70 L 221.30 40.20 L 223.90 47.80 L 228.00 62.00 L 229.10 68.10 L 229.40 72.10 L 229.30 75.30 L 228.80 77.90 L 228.10 79.70 L 227.10 81.10 L 225.80 82.00 L 224.20 82.60 L 219.20 83.30 L 212.90 83.60 L 206.30 83.40 L 192.00 82.20 L 172.50 79.20 L 160.00 76.80" fill="#a83829" fill-rule="nonzero" group-id="2,5" node-id="53" stroke="#e88277" stroke-linecap="butt" stroke-width="1" target-height="82.7" target-width="69.399994" target-x="160" target-y="0.9"></path></g><g node-id="100"><path d="M 149.60 79.00 L 120.70 80.30 L 104.50 81.40 L 88.70 83.10 L 81.50 84.10 L 72.10 86.20 L 69.60 87.20 L 67.00 88.90 L 66.60 89.70 L 66.80 90.50 L 67.50 91.50 L 71.20 94.80 L 77.10 99.00 L 82.50 101.20 L 86.80 101.60 L 88.70 101.20 L 95.20 98.30 L 115.70 90.80 L 149.60 79.00 Z" fill="#e25f52" fill-rule="nonzero" group-id="2,6" node-id="58" stroke="none" target-height="22.599998" target-width="83.00001" target-x="66.6" target-y="79"></path></g><g node-id="101"><path d="M 161.90 75.40 L 195.60 70.10 L 211.60 68.60 L 217.30 68.80 L 218.90 69.50 L 219.80 71.80 L 220.90 78.60 L 220.90 80.50 L 218.70 81.00 L 213.50 81.00 L 203.30 80.30 L 186.70 78.60 L 161.90 75.40 Z" fill="#e25f52" fill-rule="nonzero" group-id="2,7" node-id="63" stroke="none" target-height="12.400002" target-width="59" target-x="161.9" target-y="68.6"></path></g><g node-id="102"><path d="M 216.60 28.40 L 210.70 30.50 L 206.40 32.70 L 204.70 34.00 L 203.80 35.40 L 203.70 36.30 L 204.10 37.20 L 205.10 38.40 L 207.60 40.10 L 212.90 42.50 L 219.40 44.00 L 222.70 44.10 Z" fill="#e25f52" fill-rule="nonzero" group-id="2,8" node-id="68" stroke="none" target-height="15.699999" target-width="19" target-x="203.7" target-y="28.4"></path></g><g node-id="103"><path d="M 166.10 59.50 L 180.80 48.60 L 187.30 44.30 L 191.40 42.20 L 195.40 41.40 L 180.80 49.90 L 166.10 59.50 Z" fill="#e25f52" fill-rule="nonzero" group-id="2,9" node-id="73" stroke="none" target-height="18.099998" target-width="29.299988" target-x="166.1" target-y="41.4"></path></g><g node-id="104"><path d="M 139.80 58.10 L 102.80 34.40 L 90.90 26.40 L 84.20 36.90 L 74.60 54.00 L 68.30 67.30 L 65.70 73.80 L 63.20 82.30 L 62.20 89.80 L 62.40 93.10 L 63.00 95.80 L 63.90 97.70 L 65.10 99.30 L 66.60 100.60 L 68.50 101.70 L 73.20 102.70 L 76.40 102.70 L 80.40 102.30 L 91.90 100.10 L 111.00 95.40 L 123.80 91.40 L 133.50 87.80 L 142.00 84.20 L 151.90 79.20" fill="#a83829" fill-rule="nonzero" group-id="2,10" node-id="78" stroke="#c96257" stroke-linecap="butt" stroke-width="1" target-height="76.299995" target-width="89.7" target-x="62.2" target-y="26.4"></path></g><g node-id="105"><path d="M 167.00 64.10 L 166.70 66.90 L 166.00 69.40 L 164.90 71.70 L 163.40 73.80 L 161.60 75.60 L 159.50 77.10 L 157.20 78.20 L 154.70 78.90 L 151.90 79.20 L 149.20 78.90 L 146.70 78.20 L 144.30 77.10 L 142.20 75.60 L 140.40 73.80 L 139.00 71.70 L 137.80 69.40 L 137.20 66.90 L 136.90 64.10 L 137.10 63.20 L 140.10 58.30 L 145.60 52.30 L 149.40 49.80 L 151.90 49.10 L 154.90 49.40 L 157.70 50.20 L 160.30 51.60 L 162.60 53.50 L 164.50 55.80 L 165.80 58.40 L 166.70 61.20 L 167.00 64.10 Z" fill="#a83829" fill-rule="nonzero" group-id="2,11" node-id="83" stroke="#e57b70" stroke-linecap="butt" stroke-width="1" target-height="30.099998" target-width="30.100006" target-x="136.9" target-y="49.1"></path></g><g node-id="106"><path d="M 151.90 64.10 L 157.00 73.70 L 158.10 77.20 L 157.60 78.30 L 157.00 78.30 L 155.90 77.70 L 154.90 76.40 L 154.10 74.60 L 152.50 67.80 L 151.90 62.50" fill="#e25f52" fill-rule="nonzero" group-id="2,12" node-id="88" stroke="none" target-height="15.800003" target-width="6.200012" target-x="151.9" target-y="62.5"></path></g><path d="M 136.90 64.10 L 116.40 53.00 L 105.70 62.40 L 105.00 63.30 L 104.80 64.50 L 105.20 65.60 L 109.10 68.30 L 110.50 68.80 L 111.90 68.70 L 113.20 68.00 L 116.20 62.30 L 117.40 61.40 L 118.80 60.90 L 120.40 60.90 Z" fill="#e57b70" fill-rule="nonzero" group-id="2,13" node-id="93" stroke="none" target-height="15.800003" target-width="32.09999" target-x="104.8" target-y="53"></path></g></svg>