<?xml version="1.0" standalone="no"?><!DOCTYPE svg PUBLIC "-//W3C//DTD SVG 1.1//EN" "http://www.w3.org/Graphics/SVG/1.1/DTD/svg11.dtd"><svg height="305" node-id="1" sillyvg="true" template-height="305" template-width="159" version="1.1" viewBox="0 0 159 305" width="159" xmlns="http://www.w3.org/2000/svg" xmlns:xlink="http://www.w3.org/1999/xlink"><defs node-id="17"></defs><g node-id="52"><path d="M 118.90 303.70 L 40.40 303.70 L 39.00 303.50 L 37.90 302.90 L 37.10 302.10 L 36.70 301.00 L 17.20 129.90 L 17.20 128.30 L 18.20 125.90 L 20.20 124.40 L 21.60 124.20 L 137.70 124.20 L 140.10 125.00 L 141.70 127.00 L 142.00 129.90 L 122.60 301.00 L 122.20 302.10 L 121.40 302.90 L 120.20 303.50 L 118.90 303.70 Z" fill="#ff8ab1" fill-rule="nonzero" group-id="1" node-id="21" stroke="#ff5f5f" stroke-linecap="round" stroke-width="2" target-height="179.50002" target-width="124.8" target-x="17.2" target-y="124.2"></path></g><path d="M 7.30 100.80 L 152.00 100.80 L 153.70 101.00 L 155.20 101.60 L 156.50 102.60 L 157.50 103.90 L 158.10 105.40 L 158.30 107.10 L 158.30 115.40 L 158.00 118.50 L 157.30 121.30 L 156.00 123.90 L 154.30 126.30 L 152.30 128.30 L 150.00 129.90 L 147.40 131.20 L 144.60 132.00 L 141.50 132.20 L 17.80 132.20 L 14.70 132.00 L 11.90 131.20 L 9.30 129.90 L 7.00 128.30 L 5.00 126.30 L 3.30 123.90 L 2.10 121.30 L 1.30 118.50 L 1.00 115.40 L 1.00 107.10 L 1.20 105.40 L 1.90 103.90 L 2.80 102.60 L 4.10 101.60 L 5.60 101.00 L 7.30 100.80 Z" fill="#ffbbc0" fill-rule="nonzero" node-id="24" stroke="#ff5f5f" stroke-linecap="butt" stroke-width="2" target-height="31.399994" target-width="157.3" target-x="1" target-y="100.8"></path><path d="M 8.20 106.90 L 113.30 106.90" fill="none" node-id="26" stroke="#ff5f5f" stroke-linecap="butt" stroke-width="2" target-height="0" target-width="105.100006" target-x="8.2" target-y="106.9"></path><g node-id="53"><path d="M 87.60 100.80 L 87.60 7.00 L 87.30 5.40 L 86.50 4.00 L 85.30 2.80 L 83.60 1.80 L 81.80 1.20 L 79.60 1.00 L 77.50 1.20 L 75.60 1.80 L 73.90 2.80 L 72.70 4.00 L 71.90 5.40 L 71.60 7.00 L 71.60 100.80 Z" fill="#ffefd7" fill-rule="nonzero" group-id="2" node-id="30" stroke="#ff5f5f" stroke-linecap="round" stroke-width="2" target-height="99.8" target-width="16" target-x="71.6" target-y="1"></path></g><g node-id="54"><path d="M 142.60 100.60 L 142.90 95.30 L 142.60 90.20 L 142.00 85.20 L 141.00 80.50 L 139.60 75.80 L 135.80 67.00 L 133.40 62.90 L 127.60 55.20 L 120.80 48.60 L 117.00 45.60 L 108.70 40.60 L 104.30 38.60 L 94.90 35.50 L 90.00 34.60 L 79.60 33.80 L 69.30 34.60 L 64.40 35.50 L 55.00 38.60 L 50.50 40.60 L 42.30 45.60 L 38.50 48.60 L 31.60 55.20 L 25.90 62.90 L 23.50 67.00 L 19.60 75.80 L 18.20 80.50 L 17.20 85.20 L 16.60 90.20 L 16.40 95.30 L 16.60 100.60 Z" fill="#e1fff7" fill-rule="nonzero" group-id="3" node-id="35" stroke="#ff5f5f" stroke-linecap="butt" stroke-width="2" target-height="66.8" target-width="126.49999" target-x="16.4" target-y="33.8"></path></g><g node-id="55"><path d="M 61.50 46.60 L 52.30 53.40 L 48.10 57.20 L 40.90 65.20 L 38.00 69.30 L 35.40 73.60 L 33.20 78.20 L 31.30 82.90 L 29.90 87.70" fill="none" group-id="4" node-id="40" stroke="#ff5f5f" stroke-linecap="round" stroke-width="2" target-height="41.1" target-width="31.6" target-x="29.9" target-y="46.6"></path></g><g node-id="56"><path d="M 71.60 34.30 L 71.60 100.60 L 87.60 100.60 L 87.60 34.30 L 82.30 33.80 L 77.00 33.80 L 71.60 34.30 Z" fill="#fff9f0" fill-rule="nonzero" group-id="5" node-id="45" stroke="#ff5f5f" stroke-linecap="round" stroke-width="2" target-height="66.8" target-width="16" target-x="71.6" target-y="33.8"></path></g><path d="M 83.80 147.90 L 95.00 170.60 L 96.50 172.30 L 98.50 173.20 L 123.60 176.80 L 125.90 177.90 L 127.40 180.00 L 127.50 182.50 L 126.20 184.70 L 108.00 202.40 L 106.90 204.30 L 106.70 206.50 L 111.00 231.50 L 110.70 234.10 L 109.10 236.10 L 108.00 236.70 L 105.50 236.90 L 81.80 224.60 L 79.60 224.10 L 77.50 224.60 L 55.00 236.40 L 53.80 236.90 L 51.30 236.70 L 49.20 235.20 L 48.30 232.80 L 48.30 231.50 L 52.60 206.50 L 52.40 204.30 L 51.20 202.40 L 33.10 184.70 L 31.80 182.50 L 31.90 180.00 L 33.30 177.80 L 35.60 176.80 L 60.70 173.20 L 62.80 172.30 L 64.20 170.60 L 76.20 146.80 L 78.30 145.50 L 80.90 145.50 L 83.10 146.80 L 83.80 147.90 Z" fill="#ffdc8d" fill-rule="nonzero" group-id="6" node-id="50" stroke="#ffffff" stroke-linecap="round" stroke-width="2" target-height="91.399994" target-width="95.7" target-x="31.8" target-y="145.5"></path></svg>