<?xml version="1.0" standalone="no"?><!DOCTYPE svg PUBLIC "-//W3C//DTD SVG 1.1//EN" "http://www.w3.org/Graphics/SVG/1.1/DTD/svg11.dtd"><svg height="450" node-id="1" sillyvg="true" template-height="450" template-width="661" version="1.1" viewBox="0 0 661 450" width="661" xmlns="http://www.w3.org/2000/svg" xmlns:xlink="http://www.w3.org/1999/xlink"><defs node-id="44"></defs><g node-id="193"><path d="M 657.70 256.20 L 629.00 345.10 L 564.20 270.40 L 579.20 269.40 L 594.90 267.90 L 610.70 265.90 L 626.60 263.30 L 637.10 261.30 L 657.70 256.20 Z" fill="#f2d95a" fill-rule="nonzero" group-id="1" node-id="48" stroke="none" target-height="88.899994" target-width="93.5" target-x="564.2" target-y="256.2"></path></g><g node-id="194"><path d="M 639.30 258.90 L 657.70 256.20 L 637.10 261.30 L 626.60 263.30 L 610.70 265.90 L 594.90 267.90 L 579.20 269.40 L 564.20 270.50 L 561.30 267.20 L 586.80 265.60 L 604.30 263.90 L 621.80 261.60 L 639.30 258.90 Z" fill="#ca464f" fill-rule="nonzero" group-id="2" node-id="53" stroke="none" target-height="14.299988" target-width="96.400024" target-x="561.3" target-y="256.2"></path></g><g node-id="195"><path d="M 618.50 3.80 L 622.30 124.10 L 524.20 85.00 L 542.20 64.70 L 555.20 49.10 Z" fill="#f2d95a" fill-rule="nonzero" group-id="3" node-id="58" stroke="none" target-height="120.299995" target-width="98.099976" target-x="524.2" target-y="3.8"></path></g><g node-id="196"><path d="M 483.80 270.10 L 503.90 271.10 L 524.00 271.40 L 544.10 271.20 L 564.20 270.50 L 564.90 271.30 L 509.70 370.70 L 471.70 269.20 L 482.90 270.00 Z" fill="#ca464f" fill-rule="nonzero" group-id="4" node-id="63" stroke="none" target-height="101.5" target-width="93.20001" target-x="471.7" target-y="269.2"></path></g><g node-id="197"><path d="M 524.20 85.00 L 561.30 216.00 L 449.40 162.50 L 493.40 117.90 L 524.20 85.00 Z" fill="#ca464f" fill-rule="nonzero" group-id="5" node-id="68" stroke="none" target-height="131" target-width="111.899994" target-x="449.4" target-y="85"></path></g><g node-id="198"><path d="M 471.70 269.20 L 478.30 300.60 L 359.10 242.60 L 371.70 233.20 L 384.10 223.40 L 396.10 213.30 L 407.90 202.80 L 419.40 192.00 L 449.40 162.50 L 471.70 269.00 Z" fill="#f2d95a" fill-rule="nonzero" group-id="6" node-id="73" stroke="none" target-height="138.1" target-width="119.19998" target-x="359.1" target-y="162.5"></path></g><g node-id="199"><path d="M 465.50 294.40 L 423.90 370.70 L 382.40 258.00 L 393.80 259.50 Z" fill="#f2d95a" fill-rule="nonzero" group-id="7" node-id="78" stroke="none" target-height="112.70001" target-width="83.100006" target-x="382.4" target-y="258"></path></g><path d="M 382.50 258.10 L 359.10 307.40 L 359.10 258.10 L 382.50 258.10 Z" fill="#ca464f" fill-rule="nonzero" node-id="81" stroke="none" target-height="49.299988" target-width="23.399994" target-x="359.1" target-y="258.1"></path><g node-id="200"><path d="M 359.10 307.40 L 359.10 376.10 L 255.90 306.20 L 254.50 303.70 L 265.60 299.10 L 281.20 291.10 L 296.50 282.80 L 311.60 274.00 L 326.50 264.80 L 341.20 255.30 L 359.10 242.70 L 359.10 307.50 Z" fill="#ca464f" fill-rule="nonzero" group-id="8" node-id="85" stroke="none" target-height="133.40001" target-width="104.600006" target-x="254.5" target-y="242.7"></path></g><g node-id="201"><path d="M 344.20 253.10 L 341.20 255.20 L 309.80 271.50 L 301.60 245.40 L 344.20 253.10 Z" fill="#ca464f" fill-rule="nonzero" group-id="9" node-id="90" stroke="none" target-height="26.100006" target-width="42.600006" target-x="301.6" target-y="245.4"></path></g><g node-id="202"><path d="M 254.50 303.60 L 221.00 317.50 L 201.90 225.70 L 301.60 245.40 L 265.50 299.00 Z" fill="#f2d95a" fill-rule="nonzero" group-id="10" node-id="95" stroke="none" target-height="91.8" target-width="99.70001" target-x="201.9" target-y="225.7"></path></g><g node-id="203"><path d="M 255.90 306.20 L 257.80 309.70 L 250.10 428.90 L 156.10 342.40 L 189.60 330.30 L 254.50 303.70 Z" fill="#f2d95a" fill-rule="nonzero" group-id="11" node-id="100" stroke="none" target-height="125.19998" target-width="101.69998" target-x="156.1" target-y="303.7"></path></g><g node-id="204"><path d="M 201.90 225.70 L 190.20 234.60 L 170.60 250.60 L 105.40 302.50 L 89.50 196.50 L 114.40 203.90 L 129.80 208.10 L 169.80 218.10 L 195.00 224.10 Z" fill="#ca464f" fill-rule="nonzero" group-id="12" node-id="105" stroke="none" target-height="106" target-width="112.399994" target-x="89.5" target-y="196.5"></path></g><path d="M 170.70 250.60 L 134.50 280.00 L 105.40 302.50 L 170.70 250.60 Z" fill="#ca464f" fill-rule="nonzero" node-id="108" stroke="none" target-height="51.899994" target-width="65.299995" target-x="105.4" target-y="250.6"></path><path d="M 155.30 342.70 L 131.30 445.80 L 60.00 377.20 L 155.30 342.70 Z" fill="#ca464f" fill-rule="nonzero" node-id="110" stroke="none" target-height="103.099976" target-width="95.3" target-x="60" target-y="342.7"></path><g node-id="205"><path d="M 195.00 224.10 L 169.80 218.10 L 129.80 208.10 L 100.30 199.80 L 89.50 196.50 L 89.50 196.20 L 118.40 204.50 L 151.60 213.40 L 195.00 224.10 Z" fill="#ca464f" fill-rule="nonzero" group-id="13" node-id="114" stroke="none" target-height="27.90001" target-width="105.5" target-x="89.5" target-y="196.2"></path></g><g node-id="206"><path d="M 89.30 196.40 L 25.60 288.00 L 2.60 158.50 L 67.20 188.30 L 78.10 192.70 L 89.30 196.40 Z" fill="#f2d95a" fill-rule="nonzero" group-id="14" node-id="119" stroke="none" target-height="129.5" target-width="86.700005" target-x="2.6" target-y="158.5"></path></g><g node-id="207"><path d="M 65.00 187.30 L 61.00 185.10 L 58.90 183.60 L 57.40 181.70 L 57.60 180.30 L 58.40 179.60 L 61.40 178.70" fill="none" group-id="15" node-id="124" stroke="#dc7f70" stroke-linecap="butt" stroke-width="4" target-height="8.600006" target-width="7.5999985" target-x="57.4" target-y="178.7"></path></g><g node-id="208"><path d="M 344.20 253.10 L 321.60 249.20 L 276.80 240.50 L 201.90 225.70 L 195.00 224.10 L 149.10 213.00 L 114.40 203.90 L 89.30 196.50 L 78.10 192.70 L 67.20 188.30" fill="none" group-id="16" node-id="129" stroke="#dc7f70" stroke-linecap="butt" stroke-width="4" target-height="64.8" target-width="277" target-x="67.2" target-y="188.3"></path></g><path d="M 67.20 188.30 L 2.60 158.50 L 25.60 288.00 L 89.50 196.20 L 105.40 302.50 L 201.90 225.70 L 221.00 317.50" fill="none" node-id="132" stroke="#dc7f70" stroke-linecap="butt" stroke-width="4" target-height="159" target-width="218.4" target-x="2.6" target-y="158.5"></path><g node-id="209"><path d="M 471.70 269.20 L 478.30 300.60 L 359.10 242.60 L 371.70 233.20 L 384.10 223.40 L 396.10 213.30 L 407.90 202.80 L 419.40 192.00 L 449.40 162.50 L 471.70 269.00 Z" fill="none" group-id="17" node-id="136" stroke="#dc7f70" stroke-linecap="butt" stroke-width="4" target-height="138.1" target-width="119.19998" target-x="359.1" target-y="162.5"></path></g><g node-id="210"><path d="M 359.10 307.40 L 359.10 376.10 L 255.90 306.20 L 254.50 303.70 L 265.60 299.10 L 281.20 291.10 L 296.50 282.80 L 311.60 274.00 L 326.50 264.80 L 341.20 255.30 L 359.10 242.70 L 359.10 258.10" fill="none" group-id="18" node-id="141" stroke="#dc7f70" stroke-linecap="butt" stroke-width="4" target-height="133.40001" target-width="104.600006" target-x="254.5" target-y="242.7"></path></g><path d="M 155.30 342.70 L 155.50 341.90 L 156.10 342.40 L 250.10 428.90 L 257.70 309.70 L 255.80 306.20" fill="none" node-id="144" stroke="#dc7f70" stroke-linecap="butt" stroke-width="4" target-height="122.69998" target-width="102.40001" target-x="155.3" target-y="306.2"></path><path d="M 155.30 342.70 L 60.00 377.20 L 131.30 445.80 L 155.30 342.70 Z" fill="none" node-id="146" stroke="#dc7f70" stroke-linecap="butt" stroke-width="4" target-height="103.099976" target-width="95.3" target-x="60" target-y="342.7"></path><g node-id="211"><path d="M 221.00 317.50 L 189.50 330.30 L 155.30 342.70" fill="none" group-id="19" node-id="150" stroke="#dc7f70" stroke-linecap="butt" stroke-width="4" target-height="25.200012" target-width="65.7" target-x="155.3" target-y="317.5"></path></g><g node-id="212"><path d="M 253.90 302.50 L 254.50 303.60 L 223.30 316.40" fill="none" group-id="20" node-id="155" stroke="#dc7f70" stroke-linecap="butt" stroke-width="4" target-height="13.899994" target-width="31.199997" target-x="223.3" target-y="302.5"></path></g><g node-id="213"><path d="M 524.20 85.00 L 622.30 124.10 L 618.50 3.80 L 555.20 49.10 L 542.20 64.70 L 524.20 85.00 Z" fill="none" group-id="21" node-id="160" stroke="#dc7f70" stroke-linecap="butt" stroke-width="4" target-height="120.299995" target-width="98.099976" target-x="524.2" target-y="3.8"></path></g><g node-id="214"><path d="M 524.20 85.00 L 493.40 117.90 L 449.40 162.50 L 561.30 215.90 L 524.20 84.90" fill="none" group-id="22" node-id="165" stroke="#dc7f70" stroke-linecap="butt" stroke-width="4" target-height="131" target-width="111.899994" target-x="449.4" target-y="84.9"></path></g><path d="M 341.20 255.20 L 309.80 271.50 L 301.60 245.40 L 265.60 299.00" fill="none" node-id="168" stroke="#dc7f70" stroke-linecap="butt" stroke-width="4" target-height="53.600006" target-width="75.600006" target-x="265.6" target-y="245.4"></path><path d="M 265.50 299.10 L 221.00 317.50" fill="none" node-id="170" stroke="#dc7f70" stroke-linecap="butt" stroke-width="4" target-height="18.399994" target-width="44.5" target-x="221" target-y="299.1"></path><g node-id="215"><path d="M 483.80 270.10 L 503.90 271.10 L 524.00 271.40 L 544.10 271.20 L 564.20 270.50 L 579.20 269.40 L 594.90 267.90 L 610.70 265.90 L 626.60 263.30 L 637.10 261.30 L 657.70 256.20 L 629.20 350.80 L 564.70 271.50 L 509.70 370.70 L 471.70 269.20 L 482.90 270.00" fill="none" group-id="23" node-id="174" stroke="#dc7f70" stroke-linecap="butt" stroke-width="4" target-height="114.5" target-width="186" target-x="471.7" target-y="256.2"></path></g><path d="M 382.40 258.00 L 380.60 253.10" fill="none" node-id="177" stroke="#dc7f70" stroke-linecap="butt" stroke-width="4" target-height="4.899994" target-width="1.7999878" target-x="380.6" target-y="253.1"></path><path d="M 465.50 294.40 L 423.90 370.70 L 382.50 258.00" fill="none" node-id="179" stroke="#dc7f70" stroke-linecap="butt" stroke-width="4" target-height="112.70001" target-width="83" target-x="382.5" target-y="258"></path><g node-id="216"><path d="M 487.80 270.40 L 471.70 269.00" fill="none" group-id="24" node-id="183" stroke="#dc7f70" stroke-linecap="butt" stroke-width="4" target-height="1.3999939" target-width="16.099976" target-x="471.7" target-y="269"></path></g><g node-id="217"><path d="M 359.10 255.00 L 393.70 259.50" fill="none" group-id="25" node-id="188" stroke="#dc7f70" stroke-linecap="butt" stroke-width="4" target-height="4.5" target-width="34.600006" target-x="359.1" target-y="255"></path></g><path d="M 382.50 258.10 L 359.10 307.40 L 359.10 258.10 L 382.50 258.10 Z" fill="none" node-id="191" stroke="#dc7f70" stroke-linecap="butt" stroke-width="4" target-height="49.299988" target-width="23.399994" target-x="359.1" target-y="258.1"></path></svg>