<?xml version="1.0" standalone="no"?><!DOCTYPE svg PUBLIC "-//W3C//DTD SVG 1.1//EN" "http://www.w3.org/Graphics/SVG/1.1/DTD/svg11.dtd"><svg height="668" node-id="1" sillyvg="true" template-height="668" template-width="599" version="1.1" viewBox="0 0 599 668" width="599" xmlns="http://www.w3.org/2000/svg" xmlns:xlink="http://www.w3.org/1999/xlink"><defs node-id="19"></defs><g node-id="47"><path d="M 60.50 666.80 L 0.00 667.50 L 87.70 37.20 L 147.00 44.90 L 60.50 666.80 Z" fill="#efa299" fill-rule="nonzero" group-id="1" node-id="23" stroke="none" target-height="630.3" target-width="147" target-x="0" target-y="37.2"></path><g node-id="48"><path d="M 518.90 291.10 L 518.90 349.20 L 90.50 349.20 L 90.50 291.10 Z" fill="#efa299" fill-rule="nonzero" group-id="1,2" node-id="27" stroke="none" target-height="58.100006" target-width="428.40002" target-x="90.5" target-y="291.1"></path></g><g node-id="49"><path d="M 542.60 524.20 L 542.60 582.20 L 57.10 582.20 L 57.10 524.20 Z" fill="#efa299" fill-rule="nonzero" group-id="1,3" node-id="32" stroke="none" target-height="58" target-width="485.49997" target-x="57.1" target-y="524.2"></path></g><path d="M 539.00 667.40 L 599.50 667.70 L 511.80 37.30 L 452.50 45.10 L 539.00 667.40 Z" fill="#efa299" fill-rule="nonzero" group-id="1" node-id="35" stroke="none" target-height="630.4" target-width="147" target-x="452.5" target-y="37.3"></path><path d="M 98.80 0.00 L 503.40 0.20 L 506.20 0.80 L 511.50 3.00 L 516.10 6.50 L 518.10 8.70 L 521.00 13.70 L 522.50 19.30 L 522.70 22.20 L 522.50 33.50 L 521.90 36.30 L 519.70 41.60 L 516.10 46.30 L 513.90 48.20 L 508.90 51.10 L 503.40 52.60 L 98.80 52.80 L 95.70 52.50 L 92.80 52.00 L 87.60 49.70 L 84.40 47.50 L 81.80 44.90 L 79.60 41.80 L 77.40 36.50 L 76.80 33.60 L 76.60 22.20 L 76.80 19.20 L 78.30 13.60 L 79.60 11.00 L 81.80 7.90 L 84.40 5.20 L 87.60 3.00 L 90.10 1.70 L 95.70 0.20 L 98.80 0.00 Z" fill="#da7f72" fill-rule="nonzero" group-id="1" node-id="37" stroke="none" target-height="52.8" target-width="446.1" target-x="76.6" target-y="0"></path><path d="M 126.60 257.50 L 474.60 257.70 L 480.20 259.20 L 485.20 262.10 L 487.40 264.00 L 490.90 268.60 L 493.10 274.00 L 493.70 276.80 L 493.90 288.10 L 493.70 291.00 L 492.20 296.60 L 489.30 301.60 L 487.40 303.80 L 485.20 305.70 L 480.20 308.60 L 474.60 310.10 L 471.70 310.30 L 123.70 310.10 L 118.10 308.60 L 113.10 305.70 L 110.90 303.80 L 107.30 299.20 L 105.10 293.80 L 104.60 291.00 L 104.40 279.80 L 104.60 276.80 L 106.10 271.20 L 108.90 266.20 L 110.90 264.00 L 113.10 262.10 L 118.10 259.20 L 123.70 257.70 L 126.60 257.50 Z" fill="#c17065" fill-rule="nonzero" group-id="1" node-id="39" stroke="none" target-height="52.799988" target-width="389.5" target-x="104.4" target-y="257.5"></path><path d="M 96.90 497.40 L 501.30 497.40 L 504.40 497.60 L 507.30 498.20 L 512.60 500.40 L 515.70 502.60 L 518.30 505.30 L 520.50 508.40 L 521.80 511.00 L 523.30 516.50 L 523.60 519.60 L 523.30 531.00 L 522.80 533.90 L 520.50 539.10 L 518.30 542.30 L 515.70 544.90 L 512.60 547.10 L 507.30 549.40 L 504.40 549.90 L 501.30 550.20 L 96.90 550.20 L 93.80 549.90 L 91.00 549.40 L 85.70 547.10 L 82.60 544.90 L 79.90 542.30 L 77.70 539.10 L 75.50 533.90 L 74.90 531.00 L 74.70 519.60 L 74.90 516.50 L 76.40 511.00 L 77.70 508.40 L 79.90 505.30 L 82.60 502.60 L 85.70 500.40 L 88.30 499.10 L 93.80 497.60 L 96.90 497.40 Z" fill="#c17065" fill-rule="nonzero" group-id="1" node-id="41" stroke="none" target-height="52.80002" target-width="448.89996" target-x="74.7" target-y="497.4"></path><path d="M 126.60 251.80 L 474.60 252.00 L 480.20 253.50 L 485.20 256.40 L 487.40 258.40 L 490.90 263.00 L 493.10 268.30 L 493.70 271.10 L 493.90 282.40 L 493.70 285.30 L 492.20 290.90 L 489.30 295.90 L 487.40 298.10 L 485.20 300.00 L 480.20 302.90 L 474.60 304.40 L 471.70 304.60 L 123.70 304.40 L 118.10 302.90 L 113.10 300.00 L 110.90 298.10 L 107.30 293.50 L 105.10 288.10 L 104.60 285.30 L 104.40 274.10 L 104.60 271.10 L 106.10 265.60 L 108.90 260.60 L 110.90 258.40 L 113.10 256.40 L 118.10 253.50 L 123.70 252.00 L 126.60 251.80 Z" fill="#da7f72" fill-rule="nonzero" group-id="1" node-id="43" stroke="none" target-height="52.800003" target-width="389.5" target-x="104.4" target-y="251.8"></path><path d="M 96.90 491.80 L 501.30 491.80 L 504.40 492.00 L 507.30 492.60 L 512.60 494.80 L 515.70 497.10 L 518.30 499.70 L 520.50 502.80 L 521.80 505.40 L 523.30 511.00 L 523.60 514.00 L 523.30 525.40 L 522.80 528.30 L 520.50 533.60 L 518.30 536.70 L 515.70 539.30 L 512.60 541.50 L 507.30 543.80 L 504.40 544.40 L 501.30 544.60 L 96.90 544.60 L 93.80 544.40 L 91.00 543.80 L 85.70 541.50 L 82.60 539.30 L 79.90 536.70 L 77.70 533.60 L 75.50 528.30 L 74.90 525.40 L 74.70 514.00 L 74.90 511.00 L 76.40 505.40 L 77.70 502.80 L 79.90 499.70 L 82.60 497.10 L 85.70 494.80 L 88.30 493.60 L 93.80 492.00 L 96.90 491.80 Z" fill="#da7f72" fill-rule="nonzero" group-id="1" node-id="45" stroke="none" target-height="52.799988" target-width="448.89996" target-x="74.7" target-y="491.8"></path></g></svg>