<?xml version="1.0" standalone="no"?><!DOCTYPE svg PUBLIC "-//W3C//DTD SVG 1.1//EN" "http://www.w3.org/Graphics/SVG/1.1/DTD/svg11.dtd"><svg height="313" node-id="1" sillyvg="true" template-height="313" template-width="375" version="1.1" viewBox="0 0 375 313" width="375" xmlns="http://www.w3.org/2000/svg" xmlns:xlink="http://www.w3.org/1999/xlink"><defs node-id="22"></defs><g node-id="50"><path d="M 21.50 21.90 L 351.80 21.90 L 351.80 289.80 L 21.50 289.80 Z" fill="#6ab5dc" fill-rule="nonzero" group-id="1" node-id="26" stroke="none" target-height="267.9" target-width="330.3" target-x="21.5" target-y="21.9"></path><path d="M 330.50 6.90 L 317.40 5.90 L 314.70 6.00 L 312.20 6.60 L 310.60 7.40 L 307.40 10.10 L 303.50 8.30 L 299.50 7.10 L 295.50 6.40 L 291.50 6.20 L 287.50 6.50 L 283.60 7.30 L 279.80 8.60 L 276.20 10.30 L 272.80 12.50 L 269.70 15.20 L 267.00 18.20 L 264.50 21.70 L 262.40 20.10 L 260.10 18.90 L 257.60 18.10 L 255.10 17.60 L 252.60 17.60 L 250.00 18.00 L 247.60 18.80 L 245.30 20.00 L 243.10 21.60 L 241.20 23.60 L 239.70 25.70 L 238.60 28.10 L 237.90 30.50 L 237.70 33.00 L 237.80 35.60 L 238.30 38.10 L 239.20 40.60 L 240.60 42.90 L 242.30 45.00 L 244.30 46.70 L 246.50 48.00 L 248.80 49.00 L 251.30 49.60 L 253.90 49.80 L 256.40 49.50 L 258.90 48.90 L 261.40 47.80 L 262.80 51.30 L 264.40 54.50 L 266.40 57.50 L 268.80 60.30 L 271.40 62.80 L 274.30 64.90 L 277.50 66.80 L 280.80 68.20 L 284.40 69.30 L 288.10 70.00 L 291.70 70.20 L 295.30 70.10 L 298.90 69.50 L 302.40 68.50 L 305.70 67.10 L 308.90 65.40 L 311.90 63.30 L 314.70 60.80 L 318.30 62.80 L 322.00 64.30 L 325.80 65.30 L 329.70 65.90 L 333.60 66.00 L 337.60 65.70 L 341.50 64.90 L 345.30 63.60 L 349.00 61.90 L 352.40 59.70 L 355.50 57.20 L 358.30 54.30 L 360.70 51.20 L 362.70 47.80 L 364.30 44.10 L 365.50 40.30 L 366.20 36.40 L 366.50 32.30 L 366.20 28.80 L 365.60 25.70 L 364.70 23.00 L 363.40 20.50 L 361.30 17.50 L 358.60 14.90 L 355.40 12.70 L 352.00 10.90 L 348.20 9.40 L 343.90 8.30 L 335.10 7.10 L 330.50 6.90 Z" fill="#ffffff" fill-rule="nonzero" group-id="1" node-id="28" stroke="none" target-height="64.299995" target-width="128.8" target-x="237.7" target-y="5.9"></path><path d="M 72.40 82.00 L 72.20 84.90 L 70.70 90.20 L 69.50 92.70 L 67.40 95.70 L 64.90 98.20 L 61.90 100.30 L 59.40 101.50 L 54.10 103.00 L 51.20 103.20 L 48.20 103.00 L 42.90 101.50 L 40.50 100.30 L 37.50 98.20 L 35.00 95.70 L 32.80 92.70 L 30.70 87.70 L 30.20 84.90 L 30.00 82.00 L 30.70 76.30 L 32.80 71.30 L 35.00 68.30 L 37.50 65.80 L 40.50 63.60 L 42.90 62.40 L 48.20 61.00 L 51.20 60.70 L 54.10 61.00 L 59.40 62.40 L 61.90 63.60 L 64.90 65.80 L 67.40 68.30 L 69.50 71.30 L 70.70 73.70 L 72.20 79.00 L 72.40 82.00 Z" fill="#ffffff" fill-rule="nonzero" group-id="1" node-id="30" stroke="none" target-height="42.499996" target-width="42.4" target-x="30" target-y="60.7"></path><path d="M 95.50 53.60 L 95.80 55.60 L 96.80 58.50 L 101.20 69.00 L 102.50 72.80 L 103.40 76.60 L 103.60 80.10 L 103.40 82.40 L 102.70 84.40 L 101.50 86.30 L 99.90 87.90 L 97.60 89.30 L 94.50 90.50 L 91.10 91.20 L 86.70 91.60 L 80.90 91.50 L 68.10 90.20 L 59.30 88.60 L 57.50 87.90 L 56.00 86.80 L 54.70 85.10 L 52.80 80.80 L 51.60 73.80 L 51.40 69.20 L 51.90 60.30 L 53.10 52.80 L 54.10 49.60 L 55.60 46.70 L 57.70 44.00 L 60.10 41.70 L 62.90 39.70 L 65.90 38.00 L 69.20 36.80 L 72.40 36.10 L 75.80 35.80 L 79.20 36.10 L 82.30 36.90 L 85.40 38.20 L 88.20 39.90 L 90.60 42.00 L 92.60 44.50 L 94.20 47.30 L 95.10 50.30 L 95.50 53.60 Z" fill="#ffffff" fill-rule="nonzero" group-id="1" node-id="32" stroke="none" target-height="55.8" target-width="52.199997" target-x="51.4" target-y="35.8"></path><path d="M 144.00 55.30 L 143.80 58.70 L 143.10 62.00 L 142.00 65.20 L 140.50 68.20 L 138.70 71.00 L 136.40 73.60 L 133.80 75.90 L 131.00 77.80 L 128.00 79.20 L 124.80 80.30 L 121.50 81.00 L 118.10 81.20 L 114.50 81.00 L 111.10 80.30 L 107.90 79.20 L 104.90 77.70 L 102.20 75.80 L 99.70 73.60 L 97.50 71.10 L 95.60 68.40 L 94.10 65.40 L 93.00 62.20 L 92.30 58.80 L 92.10 55.30 L 92.30 51.70 L 93.00 48.30 L 94.10 45.20 L 95.60 42.10 L 97.50 39.40 L 99.70 36.90 L 102.20 34.70 L 104.90 32.90 L 107.90 31.30 L 111.10 30.20 L 114.50 29.50 L 118.10 29.30 L 121.60 29.50 L 125.00 30.20 L 128.20 31.30 L 131.20 32.90 L 133.90 34.70 L 136.40 36.90 L 138.60 39.40 L 140.50 42.10 L 142.00 45.20 L 143.10 48.30 L 143.80 51.70 L 144.00 55.30 Z" fill="#ffffff" fill-rule="nonzero" group-id="1" node-id="34" stroke="none" target-height="51.899998" target-width="51.9" target-x="92.1" target-y="29.3"></path><path d="M 177.70 73.80 L 177.50 77.40 L 176.80 80.80 L 175.70 83.90 L 174.20 86.90 L 172.30 89.70 L 170.10 92.20 L 167.60 94.40 L 164.90 96.20 L 161.90 97.70 L 158.70 98.90 L 155.30 99.50 L 151.80 99.80 L 148.20 99.50 L 144.90 98.90 L 141.70 97.70 L 138.70 96.20 L 135.90 94.40 L 133.40 92.20 L 131.20 89.70 L 129.40 86.90 L 127.90 83.90 L 126.70 80.80 L 126.10 77.40 L 125.80 73.80 L 126.10 70.30 L 126.70 66.90 L 127.90 63.70 L 129.40 60.70 L 131.20 58.00 L 133.40 55.50 L 135.90 53.30 L 138.70 51.40 L 141.70 49.90 L 144.90 48.80 L 148.20 48.10 L 151.80 47.90 L 155.30 48.10 L 158.70 48.80 L 161.90 49.90 L 164.90 51.40 L 167.60 53.30 L 170.10 55.50 L 172.30 58.00 L 174.20 60.70 L 175.70 63.70 L 176.80 66.90 L 177.50 70.30 L 177.70 73.80 Z" fill="#ffffff" fill-rule="nonzero" group-id="1" node-id="36" stroke="none" target-height="51.9" target-width="51.899994" target-x="125.8" target-y="47.9"></path><path d="M 108.80 96.00 L 108.50 99.60 L 107.80 103.00 L 106.70 106.20 L 105.20 109.20 L 103.30 112.00 L 101.10 114.50 L 98.60 116.70 L 95.80 118.60 L 92.80 120.10 L 89.60 121.20 L 86.20 121.90 L 82.60 122.10 L 79.00 121.90 L 75.60 121.20 L 72.40 120.10 L 69.40 118.60 L 66.60 116.70 L 64.10 114.50 L 61.90 112.00 L 60.10 109.20 L 58.50 106.20 L 57.40 103.00 L 56.70 99.60 L 56.50 96.00 L 56.70 92.40 L 57.40 89.00 L 58.50 85.80 L 60.10 82.80 L 61.90 80.00 L 64.10 77.50 L 66.60 75.30 L 69.40 73.40 L 72.40 71.90 L 75.60 70.80 L 79.00 70.10 L 82.60 69.80 L 86.20 70.10 L 89.60 70.80 L 92.80 71.90 L 95.80 73.40 L 98.60 75.30 L 101.10 77.50 L 103.30 80.00 L 105.20 82.80 L 106.70 85.80 L 107.80 89.00 L 108.50 92.40 L 108.80 96.00 Z" fill="#ffffff" fill-rule="nonzero" group-id="1" node-id="38" stroke="none" target-height="52.299995" target-width="52.300003" target-x="56.5" target-y="69.8"></path><path d="M 153.10 86.50 L 152.80 91.40 L 151.80 95.90 L 150.30 100.20 L 148.30 104.30 L 145.80 108.10 L 142.80 111.40 L 139.40 114.40 L 135.70 116.90 L 131.60 119.00 L 127.30 120.50 L 122.70 121.40 L 117.90 121.80 L 113.00 121.40 L 108.50 120.50 L 104.10 119.00 L 100.10 116.90 L 96.30 114.40 L 92.90 111.40 L 90.00 108.10 L 87.40 104.30 L 85.40 100.20 L 83.90 95.90 L 83.00 91.40 L 82.60 86.50 L 83.00 81.70 L 83.90 77.10 L 85.40 72.80 L 87.40 68.70 L 90.00 65.00 L 92.90 61.60 L 96.30 58.60 L 100.10 56.10 L 104.10 54.00 L 108.50 52.50 L 113.00 51.60 L 117.90 51.30 L 122.70 51.60 L 127.30 52.50 L 131.60 54.00 L 135.70 56.10 L 139.40 58.60 L 142.80 61.60 L 145.80 65.00 L 148.30 68.70 L 150.30 72.80 L 151.80 77.10 L 152.80 81.70 L 153.10 86.50 Z" fill="#ffffff" fill-rule="nonzero" group-id="1" node-id="40" stroke="none" target-height="70.5" target-width="70.50001" target-x="82.6" target-y="51.3"></path><path d="M 266.80 95.40 L 266.60 98.60 L 265.00 104.40 L 263.70 107.00 L 260.10 111.60 L 255.40 115.20 L 252.80 116.60 L 247.00 118.10 L 243.90 118.40 L 237.70 117.50 L 234.90 116.60 L 229.80 113.60 L 225.70 109.50 L 224.10 107.00 L 221.80 101.60 L 221.20 98.60 L 220.90 95.40 L 221.80 89.30 L 222.70 86.50 L 225.70 81.40 L 229.80 77.30 L 234.90 74.30 L 240.70 72.70 L 243.90 72.50 L 247.00 72.70 L 252.80 74.30 L 255.40 75.60 L 260.10 79.20 L 263.70 83.90 L 265.00 86.50 L 266.60 92.30 L 266.80 95.40 Z" fill="#dd9e49" fill-rule="nonzero" group-id="1" node-id="42" stroke="none" target-height="45.9" target-width="45.899994" target-x="220.9" target-y="72.5"></path><path d="M 352.40 150.90 L 343.60 138.10 L 335.90 129.10 L 327.70 121.70 L 320.50 117.10 L 316.70 115.30 L 309.70 113.30 L 306.60 112.90 L 302.20 112.80 L 298.20 113.30 L 294.50 114.30 L 287.50 117.30 L 280.30 122.20 L 277.00 125.30 L 272.20 130.50 L 199.30 229.80 L 196.10 234.80 L 266.80 287.40 L 351.80 289.80 Z" fill="#519f5c" fill-rule="nonzero" group-id="1" node-id="44" stroke="none" target-height="176.99998" target-width="156.29999" target-x="196.1" target-y="112.8"></path><path d="M 278.20 290.40 L 243.50 266.60 L 221.50 251.00 L 197.30 233.20 L 164.40 207.50 L 154.20 199.10 L 131.50 179.20 L 127.40 176.40 L 123.30 174.10 L 119.20 172.50 L 114.90 171.20 L 110.70 170.40 L 106.40 170.00 L 102.20 170.10 L 96.50 170.80 L 90.80 172.00 L 85.20 173.90 L 79.70 176.20 L 68.90 182.10 L 61.30 187.20 L 54.10 192.80 L 47.40 198.60 L 35.90 209.90 L 31.50 214.70 L 22.80 225.20 L 23.80 290.40 Z" fill="#7ab970" fill-rule="nonzero" group-id="1" node-id="46" stroke="none" target-height="120.399994" target-width="255.40001" target-x="22.8" target-y="170"></path><path d="M 37.60 12.50 L 337.20 12.50 L 340.60 12.70 L 343.90 13.40 L 346.90 14.50 L 349.80 15.90 L 352.50 17.70 L 354.90 19.90 L 357.00 22.30 L 358.80 24.90 L 360.30 27.80 L 361.40 30.90 L 362.00 34.20 L 362.30 37.60 L 362.30 275.30 L 362.10 278.60 L 361.40 281.80 L 360.40 284.90 L 358.90 287.80 L 357.10 290.50 L 354.90 293.00 L 352.40 295.20 L 349.70 297.00 L 346.80 298.50 L 343.70 299.50 L 340.50 300.20 L 337.20 300.40 L 37.60 300.40 L 34.20 300.10 L 30.90 299.50 L 27.80 298.40 L 24.90 296.90 L 22.30 295.10 L 19.90 293.00 L 17.70 290.60 L 15.90 287.90 L 14.50 285.00 L 13.40 282.00 L 12.70 278.70 L 12.50 275.30 L 12.50 37.60 L 12.70 34.20 L 13.40 30.90 L 14.50 27.80 L 15.90 24.90 L 17.70 22.30 L 19.90 19.90 L 22.30 17.70 L 24.90 15.90 L 27.80 14.50 L 30.90 13.40 L 34.20 12.70 L 37.60 12.50 Z" fill="none" group-id="1" node-id="48" stroke="#fdf9db" stroke-linecap="round" stroke-width="25" target-height="287.9" target-width="349.8" target-x="12.5" target-y="12.5"></path></g></svg>