<?xml version="1.0" standalone="no"?><!DOCTYPE svg PUBLIC "-//W3C//DTD SVG 1.1//EN" "http://www.w3.org/Graphics/SVG/1.1/DTD/svg11.dtd"><svg height="1024" node-id="1" sillyvg="true" template-height="1024" template-width="1631" version="1.1" viewBox="0 0 1631 1024" width="1631" xmlns="http://www.w3.org/2000/svg" xmlns:xlink="http://www.w3.org/1999/xlink"><defs node-id="25"></defs><g node-id="27"><g node-id="28"><path d="M 549.80 880.20 L 632.60 880.20 L 749.90 879.60 L 815.70 878.80 L 917.40 876.60 L 983.90 874.40 L 1046.50 871.40 L 1103.20 867.60 L 1128.00 865.30 L 1151.60 862.70 L 1171.20 860.00 L 1183.90 857.80 L 1194.40 855.70 L 1243.80 842.40 L 1281.00 832.70 L 1380.60 807.50 L 1408.30 799.90 L 1426.30 794.50 L 1442.80 789.10 L 1457.80 783.70 L 1469.00 779.30 L 1479.40 774.60 L 1489.10 769.90 L 1498.00 765.00 L 1505.10 760.60 L 1511.70 756.10 L 1517.90 751.40 L 1523.60 746.50 L 1529.00 741.50 L 1534.10 736.10 L 1538.90 730.30 L 1543.30 724.30 L 1547.30 717.90 L 1551.00 711.20 L 1554.30 704.30 L 1557.20 697.00 L 1559.90 689.20 L 1562.20 680.90 L 1564.20 671.90 L 1565.70 663.30 L 1567.80 644.00 L 1568.50 621.70 L 1568.30 607.20 L 1567.50 592.60 L 1566.20 577.90 L 1564.40 563.10 L 1562.10 548.40 L 1559.20 533.80 L 1555.80 519.20 L 1551.80 504.70 L 1547.20 490.40 L 1542.10 476.30 L 1536.30 462.40 L 1530.00 448.70 L 1524.50 437.90 L 1518.70 427.40 L 1512.40 417.20 L 1505.70 407.10 L 1498.60 397.20 L 1491.10 387.70 L 1483.30 378.50 L 1474.90 369.60 L 1466.20 361.00 L 1457.00 352.60 L 1447.40 344.80 L 1437.50 337.30 L 1427.00 330.20 L 1416.00 323.40 L 1404.50 317.00 L 1394.10 311.80 L 1383.20 306.90 L 1371.90 302.20 L 1360.20 297.80 L 1348.00 293.70 L 1332.80 289.20 L 1317.00 285.00 L 1300.60 281.20 L 1283.50 277.70 L 1248.90 272.10 L 1230.70 269.70 L 1211.90 267.70 L 1187.00 265.40 L 1161.10 263.60 L 1134.30 262.10 L 1079.90 260.40 L 1008.80 259.50 L 874.80 259.70 L 860.70 259.30 L 846.80 258.50 L 833.00 257.10 L 819.50 255.10 L 805.90 252.70 L 792.60 249.90 L 779.30 246.60 L 766.20 242.90 L 748.90 237.50 L 731.80 231.50 L 714.90 225.00 L 698.10 218.10 L 665.30 203.50 L 570.80 157.90 L 555.50 150.70 L 525.60 137.80 L 510.70 132.00 L 496.00 126.80 L 481.60 122.30 L 470.70 119.30 L 459.80 116.80 L 449.20 114.90 L 438.60 113.40 L 428.00 112.40 L 417.40 112.00 L 406.90 112.20 L 396.50 113.10 L 388.20 114.20 L 380.00 115.80 L 371.70 117.90 L 363.40 120.40 L 355.10 123.50 L 347.00 127.00 L 338.80 131.00 L 330.60 135.50 L 322.30 140.50 L 314.00 146.10 L 304.10 153.40 L 294.10 161.30 L 284.10 170.00 L 274.10 179.40 L 264.50 189.00 L 255.00 199.20 L 245.50 210.00 L 236.00 221.40 L 223.90 236.80 L 212.00 253.00 L 200.20 269.90 L 189.00 287.20 L 178.00 304.90 L 167.40 323.00 L 157.20 341.40 L 147.40 359.90 L 138.00 378.60 L 129.00 397.40 L 120.60 416.10 L 112.70 434.60 L 105.20 453.20 L 98.30 471.30 L 92.00 488.90 L 86.20 506.70 L 81.00 523.60 L 76.60 539.60 L 72.50 555.80 L 69.30 570.70 L 66.90 584.50 L 65.30 595.10 L 63.70 613.60 L 63.60 639.70 L 64.90 672.10 L 65.90 686.60 L 67.40 701.50 L 69.30 715.30 L 71.60 728.00 L 74.20 739.80 L 76.80 749.40 L 79.60 758.40 L 82.80 766.80 L 86.30 774.80 L 90.00 782.30 L 94.20 789.60 L 98.80 796.60 L 103.80 803.20 L 109.20 809.40 L 115.00 815.30 L 121.10 820.80 L 127.70 825.90 L 134.80 830.90 L 142.50 835.60 L 150.80 840.00 L 159.00 843.90 L 167.90 847.60 L 177.60 851.20 L 187.90 854.50 L 199.10 857.60 L 212.70 860.90 L 227.50 864.00 L 243.80 866.80 L 261.50 869.30 L 278.70 871.30 L 317.70 874.80 L 368.50 877.50 L 400.30 878.60 L 435.20 879.40 L 488.80 880.00 L 549.80 880.20 Z" fill="#f0f1f9" fill-rule="evenodd" group-id="1,2" id="椭圆形" node-id="7" stroke="none" target-height="768.2" target-width="1504.9" target-x="63.6" target-y="112"></path><path d="M 286.30 453.20 L 296.60 199.10 L 297.00 194.90 L 297.70 190.90 L 300.30 183.30 L 302.10 179.80 L 306.60 173.30 L 312.20 167.70 L 318.60 163.30 L 325.90 160.10 L 329.80 159.00 L 338.10 157.90 L 1271.30 125.00 L 1275.80 125.10 L 1280.10 125.60 L 1284.20 126.50 L 1288.20 127.80 L 1295.70 131.50 L 1302.20 136.50 L 1307.70 142.70 L 1311.90 149.90 L 1313.50 153.80 L 1314.70 157.80 L 1315.50 162.00 L 1315.80 166.50 L 1315.90 777.80 L 1315.60 786.80 L 1314.70 795.40 L 1313.30 803.90 L 1311.30 812.10 L 1308.70 820.30 L 1305.70 828.10 L 1302.20 835.70 L 1298.30 843.00 L 1293.80 850.00 L 1289.00 856.70 L 1283.70 863.00 L 1278.10 869.10 L 1272.10 874.70 L 1265.70 880.00 L 1259.00 884.80 L 1252.00 889.20 L 1244.70 893.20 L 1237.10 896.70 L 1229.30 899.70 L 1221.10 902.30 L 1212.90 904.20 L 1204.40 905.70 L 1195.80 906.60 L 1186.80 906.90 L 833.20 893.20 L 298.20 912.00 L 298.20 810.70" fill="#ffffff" fill-rule="evenodd" group-id="1,2" id="矩形" node-id="8" stroke="#555555" stroke-linecap="butt" stroke-width="7.1685357" target-height="787" target-width="1029.6001" target-x="286.3" target-y="125"></path><path d="M 1121.10 396.70 L 1124.00 396.80 L 1126.70 397.50 L 1129.20 398.70 L 1131.40 400.30 L 1133.30 402.30 L 1134.80 404.70 L 1135.70 407.30 L 1136.20 410.20 L 1136.00 413.70 L 1114.70 523.00 L 1114.00 525.50 L 1112.90 527.70 L 1111.50 529.70 L 1109.80 531.40 L 1107.80 532.70 L 1105.50 533.80 L 1103.20 534.40 L 1100.60 534.60 L 649.40 534.60 L 646.50 534.30 L 643.80 533.50 L 641.40 532.20 L 639.20 530.40 L 637.50 528.30 L 636.20 525.90 L 635.30 523.20 L 635.00 520.30 L 635.00 437.90 L 635.30 435.10 L 636.10 432.50 L 637.30 430.10 L 639.00 428.00 L 640.90 426.30 L 643.30 424.90 L 645.80 424.00 L 648.60 423.50 Z" fill="#ffffff" fill-rule="evenodd" group-id="1,2" id="矩形" node-id="9" stroke="#555555" stroke-linecap="butt" stroke-width="7.1685357" target-height="137.89996" target-width="501.19995" target-x="635" target-y="396.7"></path><path d="M 1121.10 568.70 L 1124.00 568.90 L 1126.70 569.50 L 1129.20 570.70 L 1131.40 572.40 L 1133.30 574.40 L 1134.80 576.70 L 1135.70 579.30 L 1136.20 582.20 L 1136.00 585.80 L 1114.70 695.10 L 1114.00 697.50 L 1112.90 699.70 L 1111.50 701.70 L 1109.80 703.40 L 1107.80 704.80 L 1105.50 705.80 L 1103.20 706.50 L 1100.60 706.70 L 649.40 706.70 L 646.50 706.40 L 643.80 705.60 L 641.40 704.20 L 639.20 702.50 L 637.50 700.40 L 636.20 697.90 L 635.30 695.20 L 635.00 692.30 L 635.00 609.90 L 635.30 607.10 L 636.10 604.50 L 637.30 602.10 L 639.00 600.10 L 640.90 598.30 L 643.30 596.90 L 645.80 596.00 L 648.60 595.60 Z" fill="#ffffff" fill-rule="evenodd" group-id="1,2" id="矩形备份-3" node-id="10" stroke="#555555" stroke-linecap="butt" stroke-width="7.1685357" target-height="138" target-width="501.19995" target-x="635" target-y="568.7"></path><path d="M 1169.00 723.80 L 1168.60 732.00 L 1167.70 739.90 L 1166.10 747.60 L 1163.90 755.00 L 1161.20 762.20 L 1157.90 769.20 L 1154.20 775.70 L 1149.90 782.00 L 1145.20 788.00 L 1140.10 793.50 L 1134.60 798.60 L 1128.60 803.40 L 1122.30 807.60 L 1115.70 811.40 L 1108.80 814.60 L 1101.60 817.40 L 1094.10 819.50 L 1086.50 821.10 L 1078.60 822.00 L 1070.40 822.40 L 1062.20 822.00 L 1054.30 821.10 L 1046.70 819.50 L 1039.30 817.40 L 1032.00 814.60 L 1025.10 811.40 L 1018.50 807.60 L 1012.20 803.40 L 1006.30 798.60 L 1000.70 793.50 L 995.60 788.00 L 990.90 782.00 L 986.60 775.70 L 982.90 769.20 L 979.60 762.20 L 976.90 755.00 L 974.70 747.60 L 973.20 739.90 L 972.20 732.00 L 971.90 723.80 L 972.20 715.60 L 973.20 707.70 L 974.70 700.10 L 976.90 692.70 L 979.60 685.40 L 982.90 678.50 L 986.60 671.90 L 990.90 665.60 L 995.60 659.70 L 1000.70 654.10 L 1006.30 649.00 L 1012.20 644.30 L 1018.50 640.00 L 1025.10 636.30 L 1032.00 633.00 L 1039.30 630.30 L 1046.70 628.10 L 1054.30 626.60 L 1062.20 625.60 L 1070.40 625.30 L 1078.60 625.60 L 1086.50 626.60 L 1094.10 628.10 L 1101.60 630.30 L 1108.80 633.00 L 1115.70 636.30 L 1122.30 640.00 L 1128.60 644.30 L 1134.60 649.00 L 1140.10 654.10 L 1145.20 659.70 L 1149.90 665.60 L 1154.20 671.90 L 1157.90 678.50 L 1161.20 685.40 L 1163.90 692.70 L 1166.10 700.10 L 1167.70 707.70 L 1168.60 715.60 L 1169.00 723.80 Z" fill="#ffffff" fill-rule="evenodd" group-id="1,2" id="椭圆形" node-id="11" stroke="none" target-height="197.10004" target-width="197.09998" target-x="971.9" target-y="625.3"></path><path d="M 346.20 167.70 L 1276.60 139.20 L 1280.00 139.30 L 1283.30 139.90 L 1286.40 140.90 L 1289.30 142.20 L 1292.00 143.90 L 1294.50 146.00 L 1296.70 148.30 L 1298.60 150.90 L 1300.10 153.80 L 1301.30 156.80 L 1302.10 160.10 L 1302.40 164.30 L 1302.40 309.80 L 298.20 299.20 L 304.60 207.70 L 305.10 203.50 L 307.10 195.80 L 308.70 192.20 L 311.20 187.60 L 314.20 183.40 L 317.70 179.70 L 321.60 176.30 L 325.90 173.50 L 330.60 171.10 L 334.30 169.70 L 342.10 168.00 L 346.20 167.70 Z" fill="#f4f4f4" fill-rule="evenodd" group-id="1,2" id="矩形" node-id="12" stroke="none" target-height="170.59999" target-width="1004.2" target-x="298.2" target-y="139.2"></path><path d="M 972.70 216.50 L 970.40 218.90 L 967.30 223.20 L 965.40 228.10 L 964.70 233.40 L 964.90 236.50 L 966.40 242.10 L 967.70 244.70 L 971.20 249.30 L 975.80 252.90 L 978.40 254.20 L 984.10 255.80 L 987.20 256.10 L 991.50 255.60 L 997.10 253.60 L 1001.00 251.30 L 1004.70 248.50 L 1008.00 245.20 L 1012.30 239.30 L 1014.20 234.70 L 1014.80 231.20 L 1014.80 228.00 L 1014.30 225.00 L 1013.20 222.20 L 1011.70 219.60 L 1009.80 217.20 L 1007.50 215.10 L 1004.90 213.30 L 1002.00 211.80 L 995.80 209.90 L 992.40 209.50 L 989.00 209.50 L 985.60 210.00 L 982.20 210.90 L 978.90 212.20 L 975.80 214.10 L 972.70 216.50 Z M 1007.30 232.90 L 1006.30 235.40 L 1004.70 238.10 L 1000.10 243.10 L 997.30 245.30 L 994.30 247.00 L 991.30 248.30 L 987.20 248.90 L 984.40 248.60 L 981.80 247.90 L 979.40 246.70 L 977.30 245.20 L 975.40 243.40 L 973.90 241.20 L 972.80 238.80 L 972.10 236.30 L 971.90 233.50 L 972.20 230.80 L 972.90 228.20 L 974.10 225.80 L 977.60 221.80 L 980.20 219.80 L 982.90 218.30 L 985.60 217.40 L 991.30 216.70 L 996.80 217.50 L 1001.50 219.60 L 1003.50 221.20 L 1005.20 222.90 L 1006.50 224.90 L 1007.30 227.00 L 1007.70 229.40 L 1007.30 232.90 Z" fill="#555555" fill-rule="nonzero" group-id="1,2" id="路径-3" node-id="13" stroke="none" target-height="46.600006" target-width="50.099976" target-x="964.7" target-y="209.5"></path><path d="M 1087.40 216.50 L 1085.10 218.90 L 1082.00 223.20 L 1080.10 228.10 L 1079.40 233.40 L 1079.60 236.50 L 1081.10 242.10 L 1082.30 244.70 L 1085.80 249.30 L 1090.40 252.90 L 1093.00 254.20 L 1098.70 255.80 L 1101.90 256.10 L 1106.20 255.60 L 1111.70 253.60 L 1115.70 251.30 L 1119.40 248.50 L 1122.70 245.20 L 1126.90 239.30 L 1128.90 234.70 L 1129.50 231.20 L 1129.50 228.00 L 1128.90 225.00 L 1127.90 222.20 L 1126.40 219.60 L 1124.40 217.20 L 1122.20 215.10 L 1119.60 213.30 L 1116.70 211.80 L 1110.50 209.90 L 1107.10 209.50 L 1103.70 209.50 L 1100.30 210.00 L 1096.90 210.90 L 1093.60 212.20 L 1090.40 214.10 L 1087.40 216.50 Z M 1122.00 232.90 L 1121.00 235.40 L 1119.30 238.10 L 1114.70 243.10 L 1111.90 245.30 L 1109.00 247.00 L 1106.00 248.30 L 1101.80 248.90 L 1099.00 248.60 L 1096.50 247.90 L 1094.10 246.70 L 1091.90 245.20 L 1090.10 243.40 L 1088.60 241.20 L 1087.50 238.80 L 1086.80 236.30 L 1086.50 233.50 L 1086.80 230.80 L 1087.60 228.20 L 1088.80 225.80 L 1092.30 221.80 L 1094.90 219.80 L 1097.50 218.30 L 1100.30 217.40 L 1106.00 216.70 L 1111.40 217.50 L 1116.10 219.60 L 1118.20 221.20 L 1119.80 222.90 L 1121.10 224.90 L 1122.00 227.00 L 1122.40 229.40 L 1122.00 232.90 Z" fill="#555555" fill-rule="nonzero" group-id="1,2" id="路径-3备份" node-id="14" stroke="none" target-height="46.600006" target-width="50.099976" target-x="1079.4" target-y="209.5"></path><path d="M 1199.60 214.00 L 1197.00 216.70 L 1193.50 221.80 L 1191.30 227.40 L 1190.70 230.40 L 1190.50 233.50 L 1190.70 237.00 L 1191.30 240.40 L 1192.40 243.60 L 1193.90 246.60 L 1195.70 249.30 L 1197.90 251.90 L 1200.30 254.10 L 1203.10 256.00 L 1206.10 257.50 L 1209.30 258.60 L 1212.60 259.40 L 1218.00 259.60 L 1221.10 259.10 L 1224.30 258.20 L 1227.40 256.80 L 1233.40 253.20 L 1238.80 248.40 L 1243.10 243.20 L 1244.80 240.30 L 1247.00 235.00 L 1247.80 229.10 L 1247.10 223.80 L 1245.90 220.50 L 1244.20 217.50 L 1241.90 214.80 L 1239.40 212.40 L 1236.40 210.30 L 1233.10 208.60 L 1229.60 207.30 L 1226.00 206.40 L 1222.10 206.00 L 1218.20 206.00 L 1214.40 206.50 L 1210.40 207.50 L 1206.70 209.10 L 1203.10 211.20 L 1199.60 214.00 Z M 1240.10 233.00 L 1238.40 237.00 L 1237.00 239.20 L 1234.50 242.40 L 1231.40 245.40 L 1228.10 248.00 L 1224.60 250.20 L 1219.80 252.10 L 1216.00 252.50 L 1212.60 252.10 L 1209.50 251.20 L 1206.70 249.80 L 1204.10 247.90 L 1201.90 245.70 L 1200.10 243.10 L 1198.70 240.20 L 1197.90 237.00 L 1197.60 233.60 L 1198.00 230.30 L 1198.90 227.20 L 1200.30 224.20 L 1202.30 221.60 L 1204.50 219.30 L 1207.60 216.90 L 1210.80 215.10 L 1214.10 213.90 L 1217.60 213.20 L 1220.90 213.10 L 1224.20 213.40 L 1227.50 214.10 L 1230.40 215.20 L 1233.20 216.70 L 1235.60 218.60 L 1237.60 220.70 L 1239.10 223.10 L 1240.20 225.80 L 1240.60 228.60 L 1240.10 233.00 Z" fill="#555555" fill-rule="nonzero" group-id="1,2" id="路径-3备份-2" node-id="15" stroke="none" target-height="53.600006" target-width="57.30005" target-x="1190.5" target-y="206"></path><path d="M 298.20 309.80 L 1351.70 324.20" fill="none" group-id="1,2" id="路径-15" node-id="16" stroke="#555555" stroke-linecap="butt" stroke-width="7.1685357" target-height="14.400024" target-width="1053.5" target-x="298.2" target-y="309.8"></path><path d="M 442.10 410.20 L 447.20 410.50 L 452.20 411.10 L 456.90 412.30 L 461.50 413.80 L 466.00 415.80 L 470.20 418.10 L 474.10 420.80 L 477.90 423.80 L 481.30 427.20 L 484.40 430.80 L 487.20 434.70 L 489.70 439.00 L 491.80 443.40 L 493.40 448.00 L 494.70 452.80 L 495.50 457.90 L 503.20 525.50 L 503.60 531.10 L 503.40 536.50 L 502.60 541.70 L 501.40 546.80 L 499.70 551.70 L 497.50 556.40 L 494.90 560.80 L 491.90 565.00 L 488.50 568.90 L 484.80 572.50 L 480.70 575.60 L 476.20 578.40 L 471.60 580.80 L 466.60 582.70 L 461.40 584.10 L 454.50 585.10 L 434.20 586.90 L 428.60 587.10 L 423.30 586.80 L 418.10 585.90 L 413.00 584.50 L 408.10 582.70 L 403.50 580.40 L 399.10 577.70 L 395.00 574.50 L 391.20 571.00 L 387.80 567.20 L 384.70 563.00 L 382.00 558.50 L 379.80 553.80 L 378.00 548.80 L 376.80 543.60 L 376.00 538.00 L 375.80 531.50 L 378.20 462.10 L 378.70 456.70 L 379.60 451.50 L 381.10 446.50 L 383.00 441.80 L 385.30 437.20 L 388.00 432.90 L 391.10 429.00 L 394.60 425.30 L 398.40 422.00 L 402.50 419.00 L 406.80 416.40 L 411.50 414.20 L 416.30 412.50 L 421.30 411.30 L 426.50 410.50 L 432.00 410.20 Z" fill="none" group-id="1,2" id="矩形备份" node-id="17" stroke="#3681fd" stroke-linecap="butt" stroke-width="35.842678" target-height="176.89996" target-width="127.80002" target-x="375.8" target-y="410.2"></path><path d="M 275.50 504.00 L 598.00 530.40 L 599.80 530.80 L 601.40 531.60 L 602.70 532.70 L 603.70 534.10 L 604.30 535.70 L 604.60 537.60 L 604.60 723.00 L 604.30 724.90 L 603.70 726.50 L 602.70 727.90 L 601.30 729.00 L 599.70 729.80 L 597.90 730.20 L 275.40 752.40 L 273.50 752.30 L 271.70 751.70 L 270.20 750.70 L 269.00 749.30 L 268.20 747.70 L 267.80 745.30 L 267.80 511.20 L 268.00 509.30 L 268.70 507.60 L 269.80 506.10 L 271.30 505.00 L 273.00 504.30 L 275.50 504.00 Z" fill="#3681fd" fill-rule="evenodd" group-id="1,2" id="矩形" node-id="18" stroke="none" target-height="248.40002" target-width="336.8" target-x="267.8" target-y="504"></path><path d="M 481.00 643.60 L 480.70 646.90 L 480.10 650.10 L 479.00 653.20 L 477.60 656.10 L 475.80 658.80 L 473.60 661.40 L 471.10 663.50 L 468.40 665.30 L 465.50 666.80 L 462.40 667.80 L 459.20 668.50 L 455.90 668.70 L 452.60 668.50 L 449.40 667.80 L 446.30 666.80 L 443.30 665.30 L 440.60 663.50 L 438.10 661.40 L 435.90 658.80 L 434.10 656.10 L 432.70 653.20 L 431.60 650.10 L 431.00 646.90 L 430.80 643.60 L 431.00 640.20 L 431.70 636.90 L 432.80 633.80 L 434.20 630.90 L 436.00 628.30 L 438.10 625.90 L 440.50 623.70 L 443.20 622.00 L 446.10 620.50 L 449.20 619.40 L 452.40 618.80 L 455.90 618.50 L 459.30 618.80 L 462.60 619.40 L 465.60 620.50 L 468.60 622.00 L 471.20 623.70 L 473.60 625.90 L 475.70 628.30 L 477.50 630.90 L 479.00 633.80 L 480.10 636.90 L 480.70 640.20 L 481.00 643.60 Z" fill="#ffffff" fill-rule="evenodd" group-id="1,2" id="椭圆形" node-id="19" stroke="none" target-height="50.200012" target-width="50.200012" target-x="430.8" target-y="618.5"></path><path d="M 445.80 653.10 L 466.40 653.10 L 473.50 710.90 L 441.30 710.90 Z" fill="#ffffff" fill-rule="evenodd" group-id="1,2" id="矩形" node-id="20" stroke="none" target-height="57.80005" target-width="32.200012" target-x="441.3" target-y="653.1"></path><g node-id="29"><path d="M 1122.50 624.90 L 1151.00 643.50 L 1031.00 808.20 L 989.80 786.20 Z" fill="#ff3838" fill-rule="nonzero" group-id="1,2,3" id="路径" node-id="22" stroke="none" target-height="183.29999" target-width="161.20001" target-x="989.8" target-y="624.9"></path><path d="M 1065.00 833.10 L 1056.90 832.90 L 1048.90 832.10 L 1041.20 830.70 L 1033.60 828.90 L 1026.20 826.60 L 1019.00 823.80 L 1012.00 820.60 L 1005.40 817.00 L 998.90 812.90 L 992.80 808.50 L 987.00 803.70 L 981.40 798.50 L 976.20 793.00 L 971.40 787.20 L 967.00 781.00 L 962.90 774.60 L 959.30 767.90 L 956.10 760.90 L 953.30 753.80 L 951.00 746.30 L 949.20 738.80 L 947.90 731.00 L 947.10 723.00 L 946.80 714.90 L 947.10 706.70 L 947.90 698.70 L 949.20 691.00 L 951.00 683.40 L 953.30 676.00 L 956.10 668.80 L 959.30 661.90 L 962.90 655.20 L 967.00 648.70 L 971.40 642.60 L 976.20 636.80 L 981.40 631.20 L 987.00 626.00 L 992.80 621.20 L 998.90 616.80 L 1005.40 612.70 L 1012.00 609.10 L 1019.00 605.90 L 1026.20 603.10 L 1033.60 600.80 L 1041.20 599.00 L 1048.90 597.70 L 1056.90 596.90 L 1065.00 596.60 L 1073.20 596.90 L 1081.20 597.70 L 1088.90 599.00 L 1096.50 600.80 L 1103.90 603.10 L 1111.10 605.90 L 1118.00 609.10 L 1124.70 612.70 L 1131.20 616.80 L 1137.30 621.20 L 1143.10 626.00 L 1148.70 631.20 L 1153.80 636.80 L 1158.60 642.60 L 1163.10 648.70 L 1167.10 655.20 L 1170.80 661.90 L 1174.00 668.80 L 1176.70 676.00 L 1179.10 683.40 L 1180.90 691.00 L 1182.20 698.70 L 1183.00 706.70 L 1183.30 714.90 L 1183.00 723.00 L 1182.20 731.00 L 1180.90 738.80 L 1179.10 746.30 L 1176.70 753.80 L 1174.00 760.90 L 1170.80 767.90 L 1167.10 774.60 L 1163.10 781.00 L 1158.60 787.20 L 1153.80 793.00 L 1148.70 798.50 L 1143.10 803.70 L 1137.30 808.50 L 1131.20 812.90 L 1124.70 817.00 L 1118.00 820.60 L 1111.10 823.80 L 1103.90 826.60 L 1096.50 828.90 L 1088.90 830.70 L 1081.20 832.10 L 1073.20 832.90 L 1065.00 833.10 Z M 1065.00 808.20 L 1071.50 808.10 L 1084.20 806.60 L 1096.40 803.80 L 1102.20 801.90 L 1113.40 797.00 L 1118.70 794.00 L 1123.80 790.60 L 1128.70 787.00 L 1133.30 782.90 L 1137.60 778.60 L 1141.60 773.80 L 1145.40 768.70 L 1148.80 763.30 L 1151.80 757.50 L 1154.30 751.80 L 1156.30 746.00 L 1157.90 740.30 L 1159.00 734.40 L 1160.00 722.60 L 1160.00 716.70 L 1159.40 708.90 L 1158.20 701.10 L 1156.50 693.30 L 1154.30 685.60 L 1151.80 678.00 L 1148.80 670.60 L 1146.80 666.20 L 1144.40 662.20 L 1141.70 658.40 L 1138.60 654.90 L 1134.20 650.60 L 1129.30 646.70 L 1123.90 643.10 L 1118.20 640.10 L 1112.20 637.40 L 1105.90 635.00 L 1092.70 631.60 L 1085.80 630.40 L 1072.00 629.00 L 1065.00 628.80 L 1057.20 629.10 L 1049.80 629.80 L 1043.00 630.90 L 1036.70 632.40 L 1030.80 634.20 L 1025.40 636.50 L 1020.30 639.00 L 1015.30 642.10 L 1010.60 645.50 L 1006.30 649.30 L 1002.30 653.40 L 998.50 658.00 L 995.10 662.90 L 991.90 668.30 L 988.90 674.60 L 986.10 681.50 L 983.60 688.80 L 981.50 696.90 L 979.80 705.50 L 978.40 714.90 L 977.90 721.50 L 977.70 727.90 L 978.00 734.00 L 978.70 739.90 L 979.80 745.50 L 981.70 752.60 L 984.20 759.20 L 987.20 765.40 L 990.70 771.30 L 994.70 776.90 L 999.20 782.00 L 1004.20 786.70 L 1009.60 791.10 L 1015.30 794.90 L 1021.40 798.30 L 1028.00 801.30 L 1034.90 803.80 L 1041.90 805.70 L 1049.30 807.10 L 1057.00 807.90 L 1065.00 808.20 Z" fill="#ff3838" fill-rule="nonzero" group-id="1,2,3" id="形状" node-id="23" stroke="none" target-height="236.5" target-width="236.50006" target-x="946.8" target-y="596.6"></path></g></g></g></svg>