<?xml version="1.0" standalone="no"?><!DOCTYPE svg PUBLIC "-//W3C//DTD SVG 1.1//EN" "http://www.w3.org/Graphics/SVG/1.1/DTD/svg11.dtd"><svg height="1024" node-id="1" sillyvg="true" template-height="1024" template-width="1630" version="1.1" viewBox="0 0 1630 1024" width="1630" xmlns="http://www.w3.org/2000/svg" xmlns:xlink="http://www.w3.org/1999/xlink"><defs node-id="33"><mask height="160.22937" id="mask-2" maskUnits="userSpaceOnUse" node-id="19" width="186.25024" x="780.7694" y="561.7894"><path d="M 962.50 516.60 L 964.20 525.20 L 965.50 533.60 L 966.30 542.00 L 966.60 550.20 L 966.40 558.50 L 965.90 566.80 L 964.90 574.90 L 963.50 582.90 L 961.70 590.80 L 959.50 598.50 L 956.10 608.10 L 952.30 617.30 L 947.80 626.30 L 942.70 634.90 L 937.10 643.30 L 931.10 651.20 L 924.50 658.80 L 917.30 666.00 L 911.30 671.30 L 905.10 676.40 L 898.50 681.20 L 891.60 685.60 L 884.40 689.80 L 877.10 693.50 L 869.50 696.80 L 861.60 699.80 L 853.50 702.40 L 845.10 704.60 L 836.60 706.30 L 828.10 707.50 L 819.80 708.30 L 811.50 708.60 L 803.20 708.50 L 795.00 707.90 L 786.80 707.00 L 778.90 705.60 L 771.00 703.80 L 763.20 701.50 L 753.70 698.20 L 744.40 694.30 L 735.50 689.80 L 726.80 684.80 L 718.50 679.20 L 710.50 673.10 L 703.00 666.50 L 695.80 659.40 L 690.40 653.40 L 685.30 647.10 L 680.60 640.50 L 676.10 633.70 L 672.00 626.50 L 668.20 619.10 L 664.90 611.50 L 661.90 603.70 L 659.30 595.60 L 657.10 587.10 L 655.40 578.60 L 654.20 570.20 L 653.40 561.80 L 653.10 553.50 L 653.20 545.30 L 653.80 537.00 L 654.80 528.90 L 656.20 520.90 L 658.00 513.00 L 660.20 505.20 L 663.50 495.70 L 667.40 486.50 L 671.90 477.50 L 676.90 468.80 L 682.50 460.50 L 688.60 452.50 L 695.20 445.00 L 702.30 437.80 L 708.30 432.40 L 714.60 427.30 L 721.20 422.60 L 728.10 418.10 L 735.20 414.00 L 742.60 410.30 L 750.20 406.90 L 758.00 403.90 L 766.20 401.40 L 774.60 399.20 L 783.10 397.40 L 791.60 396.20 L 799.90 395.40 L 808.20 395.10 L 816.40 395.20 L 824.70 395.80 L 832.80 396.80 L 840.80 398.20 L 848.70 400.00 L 856.50 402.20 L 866.00 405.60 L 875.20 409.40 L 884.20 413.90 L 892.90 419.00 L 901.20 424.60 L 909.20 430.60 L 916.70 437.20 L 923.90 444.40 L 929.30 450.40 L 934.40 456.70 L 939.10 463.20 L 943.60 470.10 L 947.70 477.30 L 951.40 484.60 L 954.80 492.20 L 957.70 500.10 L 960.30 508.20 L 962.50 516.60 Z" fill="#ffffff" fill-rule="evenodd" node-id="38" stroke="none" target-height="313.49997" target-width="313.5" target-x="653.1" target-y="395.1"></path></mask><mask height="56.269836" id="mask1" maskUnits="userSpaceOnUse" node-id="42" width="56.26532" x="843.91205" y="393.01114"><path d="M 962.50 516.60 L 964.20 525.20 L 965.50 533.60 L 966.30 542.00 L 966.60 550.20 L 966.40 558.50 L 965.90 566.80 L 964.90 574.90 L 963.50 582.90 L 961.70 590.80 L 959.50 598.50 L 956.10 608.10 L 952.30 617.30 L 947.80 626.30 L 942.70 634.90 L 937.10 643.30 L 931.10 651.20 L 924.50 658.80 L 917.30 666.00 L 911.30 671.30 L 905.10 676.40 L 898.50 681.20 L 891.60 685.60 L 884.40 689.80 L 877.10 693.50 L 869.50 696.80 L 861.60 699.80 L 853.50 702.40 L 845.10 704.60 L 836.60 706.30 L 828.10 707.50 L 819.80 708.30 L 811.50 708.60 L 803.20 708.50 L 795.00 707.90 L 786.80 707.00 L 778.90 705.60 L 771.00 703.80 L 763.20 701.50 L 753.70 698.20 L 744.40 694.30 L 735.50 689.80 L 726.80 684.80 L 718.50 679.20 L 710.50 673.10 L 703.00 666.50 L 695.80 659.40 L 690.40 653.40 L 685.30 647.10 L 680.60 640.50 L 676.10 633.70 L 672.00 626.50 L 668.20 619.10 L 664.90 611.50 L 661.90 603.70 L 659.30 595.60 L 657.10 587.10 L 655.40 578.60 L 654.20 570.20 L 653.40 561.80 L 653.10 553.50 L 653.20 545.30 L 653.80 537.00 L 654.80 528.90 L 656.20 520.90 L 658.00 513.00 L 660.20 505.20 L 663.50 495.70 L 667.40 486.50 L 671.90 477.50 L 676.90 468.80 L 682.50 460.50 L 688.60 452.50 L 695.20 445.00 L 702.30 437.80 L 708.30 432.40 L 714.60 427.30 L 721.20 422.60 L 728.10 418.10 L 735.20 414.00 L 742.60 410.30 L 750.20 406.90 L 758.00 403.90 L 766.20 401.40 L 774.60 399.20 L 783.10 397.40 L 791.60 396.20 L 799.90 395.40 L 808.20 395.10 L 816.40 395.20 L 824.70 395.80 L 832.80 396.80 L 840.80 398.20 L 848.70 400.00 L 856.50 402.20 L 866.00 405.60 L 875.20 409.40 L 884.20 413.90 L 892.90 419.00 L 901.20 424.60 L 909.20 430.60 L 916.70 437.20 L 923.90 444.40 L 929.30 450.40 L 934.40 456.70 L 939.10 463.20 L 943.60 470.10 L 947.70 477.30 L 951.40 484.60 L 954.80 492.20 L 957.70 500.10 L 960.30 508.20 L 962.50 516.60 Z" fill="#ffffff" fill-rule="evenodd" node-id="46" stroke="none" target-height="313.49997" target-width="313.5" target-x="653.1" target-y="395.1"></path></mask></defs><g node-id="82"><path d="M 1054.00 512.00 L 1053.80 526.50 L 1053.10 540.90 L 1051.90 555.20 L 1050.40 569.50 L 1048.30 583.60 L 1045.90 597.70 L 1043.00 611.70 L 1039.70 625.50 L 1035.90 639.20 L 1031.70 652.80 L 1027.10 666.30 L 1022.10 679.50 L 1016.70 692.70 L 1010.90 705.60 L 1004.70 718.40 L 998.00 730.90 L 991.00 743.30 L 983.60 755.40 L 975.80 767.40 L 967.60 779.10 L 959.10 790.50 L 950.20 801.70 L 940.90 812.60 L 931.20 823.30 L 921.20 833.70 L 910.80 843.80 L 900.10 853.50 L 889.20 862.80 L 878.10 871.80 L 866.70 880.40 L 855.00 888.60 L 843.10 896.40 L 831.00 903.80 L 818.70 910.90 L 806.20 917.50 L 793.40 923.80 L 780.50 929.60 L 767.50 935.00 L 754.20 940.10 L 740.80 944.70 L 727.30 948.90 L 713.60 952.60 L 699.80 955.90 L 685.90 958.90 L 671.90 961.30 L 657.80 963.40 L 643.60 964.90 L 629.30 966.10 L 615.00 966.80 L 600.50 967.00 L 586.00 966.80 L 571.70 966.10 L 557.40 964.90 L 543.20 963.40 L 529.10 961.30 L 515.10 958.90 L 501.10 955.90 L 487.40 952.60 L 473.70 948.90 L 460.20 944.70 L 446.70 940.10 L 433.50 935.00 L 420.40 929.60 L 407.50 923.80 L 394.80 917.50 L 382.30 910.90 L 370.00 903.80 L 357.90 896.40 L 346.00 888.60 L 334.30 880.40 L 322.90 871.80 L 311.70 862.80 L 300.90 853.50 L 290.20 843.80 L 279.80 833.70 L 269.80 823.30 L 260.10 812.60 L 250.80 801.70 L 241.90 790.50 L 233.40 779.10 L 225.20 767.40 L 217.40 755.40 L 210.00 743.30 L 203.00 730.90 L 196.30 718.40 L 190.10 705.60 L 184.30 692.70 L 178.90 679.50 L 173.90 666.30 L 169.30 652.80 L 165.10 639.20 L 161.30 625.50 L 158.00 611.70 L 155.10 597.70 L 152.60 583.60 L 150.60 569.50 L 149.00 555.20 L 147.90 540.90 L 147.20 526.50 L 147.00 512.00 L 147.20 497.50 L 147.90 483.10 L 149.00 468.80 L 150.60 454.50 L 152.60 440.40 L 155.10 426.30 L 158.00 412.30 L 161.30 398.50 L 165.10 384.80 L 169.30 371.20 L 173.90 357.70 L 178.90 344.50 L 184.30 331.30 L 190.10 318.40 L 196.30 305.60 L 203.00 293.10 L 210.00 280.70 L 217.40 268.60 L 225.20 256.60 L 233.40 244.90 L 241.90 233.50 L 250.80 222.30 L 260.10 211.40 L 269.80 200.70 L 279.80 190.30 L 290.20 180.20 L 300.90 170.50 L 311.70 161.20 L 322.90 152.20 L 334.30 143.60 L 346.00 135.40 L 357.90 127.60 L 370.00 120.20 L 382.30 113.10 L 394.80 106.50 L 407.50 100.20 L 420.40 94.40 L 433.50 89.00 L 446.70 83.90 L 460.20 79.30 L 473.70 75.10 L 487.40 71.40 L 501.10 68.10 L 515.10 65.10 L 529.10 62.70 L 543.20 60.60 L 557.40 59.10 L 571.70 57.90 L 586.00 57.20 L 600.50 57.00 L 615.00 57.20 L 629.30 57.90 L 643.60 59.10 L 657.80 60.60 L 671.90 62.70 L 685.90 65.10 L 699.80 68.10 L 713.60 71.40 L 727.30 75.10 L 740.80 79.30 L 754.20 83.90 L 767.50 89.00 L 780.50 94.40 L 793.40 100.20 L 806.20 106.50 L 818.70 113.10 L 831.00 120.20 L 843.10 127.60 L 855.00 135.40 L 866.70 143.60 L 878.10 152.20 L 889.20 161.20 L 900.10 170.50 L 910.80 180.20 L 921.20 190.30 L 931.20 200.70 L 940.90 211.40 L 950.20 222.30 L 959.10 233.50 L 967.60 244.90 L 975.80 256.60 L 983.60 268.60 L 991.00 280.70 L 998.00 293.10 L 1004.70 305.60 L 1010.90 318.40 L 1016.70 331.30 L 1022.10 344.50 L 1027.10 357.70 L 1031.70 371.20 L 1035.90 384.80 L 1039.70 398.50 L 1043.00 412.30 L 1045.90 426.30 L 1048.30 440.40 L 1050.40 454.50 L 1051.90 468.80 L 1053.10 483.10 L 1053.80 497.50 L 1054.00 512.00 Z" fill="#eff0f9" fill-rule="evenodd" group-id="1" id="椭圆形备份-12" node-id="8" stroke="none" target-height="910" target-width="907" target-x="147" target-y="57"></path><g node-id="83"><path d="M 727.30 142.90 L 345.50 179.40 L 338.80 180.30 L 332.40 181.50 L 326.20 183.10 L 320.10 185.10 L 314.20 187.50 L 307.10 191.00 L 300.40 195.00 L 294.00 199.40 L 288.00 204.30 L 282.30 209.70 L 277.20 215.40 L 272.40 221.50 L 268.20 228.00 L 264.40 234.80 L 261.20 241.90 L 258.50 249.20 L 256.30 256.90 L 255.00 263.10 L 254.10 269.40 L 253.60 275.80 L 253.50 282.40 L 253.90 289.10 L 310.60 966.40 L 808.40 888.70 L 808.40 735.50 L 753.50 539.30 L 788.10 341.00 L 727.30 257.40 L 727.30 142.90 Z" fill="#ffffff" fill-rule="evenodd" group-id="1,2" id="路径-19" node-id="10" stroke="#555555" stroke-linecap="butt" stroke-width="7.8198667" target-height="823.5" target-width="554.9" target-x="253.5" target-y="142.9"></path><path d="M 778.60 747.80 L 785.90 747.50 L 791.40 746.90 L 795.40 746.00 L 798.20 744.90 L 800.40 743.60 L 802.00 742.20 L 803.10 740.50 L 804.30 736.40 L 804.00 730.80 L 802.60 724.70 L 790.00 686.20 L 786.40 672.90 L 784.30 663.80 L 780.70 642.60 L 779.60 631.50 L 778.80 619.40 L 778.60 606.20 L 779.00 594.00 L 779.90 581.50 L 781.30 568.60 L 785.00 542.80 L 791.20 510.30 L 803.40 454.30 L 810.10 420.70 L 812.90 400.60 L 813.90 385.30 L 813.70 379.40 L 812.50 369.50 L 811.50 365.70 L 810.20 362.40 L 808.70 359.60 L 806.90 357.10 L 804.90 355.00 L 802.60 353.20 L 800.00 351.80 L 797.00 350.70 L 793.40 350.00 L 789.40 349.80 L 777.40 350.10 L 765.90 350.90 L 754.80 352.40 L 744.20 354.30 L 734.00 356.80 L 723.80 359.80 L 714.00 363.40 L 704.70 367.30 L 695.70 371.80 L 687.20 376.70 L 678.90 382.20 L 671.00 388.00 L 663.40 394.30 L 656.30 401.00 L 649.60 408.10 L 643.20 415.60 L 637.30 423.50 L 631.70 431.70 L 626.60 440.40 L 621.80 449.40 L 617.60 458.60 L 613.70 468.20 L 610.30 478.10 L 607.30 488.40 L 604.70 499.10 L 602.60 509.70 L 601.00 520.70 L 599.80 531.90 L 599.10 543.60 L 598.80 555.60 L 599.00 567.70 L 599.70 579.30 L 600.70 590.40 L 602.10 601.10 L 603.90 611.30 L 606.10 621.20 L 608.80 631.20 L 611.90 640.70 L 615.40 649.80 L 619.20 658.50 L 623.40 666.70 L 627.90 674.50 L 633.00 682.20 L 638.40 689.40 L 644.20 696.20 L 650.40 702.70 L 657.00 708.70 L 664.00 714.30 L 671.30 719.50 L 679.00 724.20 L 687.10 728.60 L 695.70 732.50 L 704.80 736.10 L 714.30 739.20 L 723.70 741.70 L 733.60 743.80 L 744.00 745.50 L 755.00 746.70 L 766.50 747.50 L 778.60 747.80 Z" fill="#f4f4f4" fill-rule="evenodd" group-id="1,2" id="椭圆形" node-id="11" stroke="none" target-height="398" target-width="215.10004" target-x="598.8" target-y="349.8"></path><g node-id="85"><path d="M 920.90 142.90 L 1310.70 180.20 L 1318.50 181.20 L 1326.00 182.80 L 1333.30 184.90 L 1340.30 187.60 L 1347.10 190.70 L 1353.60 194.30 L 1359.80 198.40 L 1365.60 202.90 L 1371.10 207.80 L 1376.30 213.00 L 1381.00 218.60 L 1385.30 224.50 L 1389.20 230.80 L 1392.70 237.30 L 1395.60 244.10 L 1398.10 251.20 L 1400.10 258.40 L 1401.50 265.80 L 1402.40 273.50 L 1402.70 281.40 L 1402.70 966.40 L 839.80 888.70 L 920.90 745.20 L 894.70 539.30 L 969.80 356.90 L 920.90 257.40 L 920.90 142.90 Z" fill="#ffffff" fill-rule="evenodd" group-id="1,2,4" id="路径-19备份" node-id="12" stroke="#555555" stroke-linecap="butt" stroke-width="7.8198667" target-height="823.5" target-width="562.89996" target-x="839.8" target-y="142.9"></path></g><g node-id="86"><path d="M 551.90 667.10 L 477.10 676.30 L 480.40 627.40 L 374.40 640.40 L 378.40 585.60 L 449.00 427.70 L 526.30 418.20 L 459.70 570.20 L 484.90 567.10 L 488.30 518.50 L 563.10 509.30 L 559.70 560.80 L 567.90 558.50 L 565.60 613.70 L 555.50 616.10 Z" fill="#3681fd" fill-rule="nonzero" group-id="1,2,5" node-id="62" stroke="none" target-height="258.09998" target-width="193.50003" target-x="374.4" target-y="418.2"></path></g><g node-id="87"><path d="M 1247.50 684.60 L 1169.20 684.60 L 1178.90 633.40 L 1067.90 633.40 L 1079.10 576.10 L 1171.80 418.70 L 1252.70 418.70 L 1164.80 570.40 L 1191.10 570.40 L 1200.80 519.60 L 1279.00 519.60 Z" fill="#3681fd" fill-rule="nonzero" group-id="1,2,6" id="4" node-id="16" stroke="none" target-height="265.89996" target-width="211.09998" target-x="1067.9" target-y="418.7"></path></g><g node-id="88"><path d="M 969.80 514.90 L 971.60 523.90 L 972.90 532.70 L 973.70 541.50 L 974.10 550.20 L 973.90 558.80 L 973.30 567.50 L 972.30 576.00 L 970.80 584.40 L 968.90 592.60 L 966.60 600.70 L 963.90 608.80 L 960.80 616.60 L 957.30 624.20 L 953.40 631.60 L 949.10 638.90 L 944.40 645.90 L 939.50 652.70 L 934.20 659.20 L 928.50 665.40 L 922.50 671.40 L 916.20 677.10 L 909.60 682.40 L 902.70 687.40 L 895.50 692.00 L 888.00 696.40 L 880.30 700.30 L 872.30 703.80 L 864.10 706.90 L 855.60 709.60 L 846.80 711.90 L 837.80 713.70 L 829.00 715.00 L 820.20 715.80 L 811.60 716.10 L 802.90 716.00 L 794.30 715.40 L 785.70 714.40 L 777.40 712.90 L 769.10 711.00 L 761.00 708.70 L 753.00 705.90 L 745.10 702.80 L 737.50 699.30 L 730.10 695.40 L 722.80 691.10 L 715.80 686.50 L 709.00 681.50 L 702.60 676.20 L 696.30 670.50 L 690.30 664.50 L 684.70 658.20 L 679.40 651.60 L 674.40 644.80 L 669.70 637.60 L 665.40 630.00 L 661.50 622.30 L 658.00 614.40 L 654.90 606.20 L 652.20 597.60 L 649.80 588.80 L 648.10 579.90 L 646.80 571.00 L 645.90 562.30 L 645.60 553.60 L 645.70 545.00 L 646.30 536.30 L 647.40 527.80 L 648.80 519.40 L 650.70 511.10 L 653.00 503.00 L 655.80 495.00 L 658.90 487.20 L 662.40 479.50 L 666.30 472.10 L 670.60 464.90 L 675.20 457.80 L 680.20 451.10 L 685.50 444.60 L 691.20 438.30 L 697.20 432.40 L 703.50 426.70 L 710.10 421.40 L 717.00 416.40 L 724.20 411.70 L 731.70 407.40 L 739.40 403.50 L 747.30 400.00 L 755.60 396.90 L 764.10 394.20 L 772.90 391.90 L 781.80 390.10 L 790.70 388.80 L 799.40 388.00 L 808.10 387.60 L 816.70 387.80 L 825.40 388.40 L 833.90 389.40 L 842.30 390.90 L 850.60 392.80 L 858.70 395.10 L 866.70 397.80 L 874.50 400.90 L 882.20 404.40 L 889.60 408.30 L 896.80 412.60 L 903.90 417.30 L 910.60 422.20 L 917.10 427.60 L 923.40 433.20 L 929.30 439.20 L 935.00 445.50 L 940.30 452.10 L 945.30 459.00 L 950.00 466.20 L 954.30 473.70 L 958.20 481.40 L 961.70 489.40 L 964.80 497.60 L 967.50 506.10 L 969.80 514.90 Z" fill="#555555" fill-rule="evenodd" group-id="1,2,7" id="蒙版" node-id="18" stroke="none" target-height="328.49997" target-width="328.5" target-x="645.6" target-y="387.6"></path><g node-id="93"><path d="M 962.50 516.60 L 964.20 525.20 L 965.50 533.60 L 966.30 542.00 L 966.60 550.20 L 966.40 558.50 L 965.90 566.80 L 964.90 574.90 L 963.50 582.90 L 961.70 590.80 L 959.50 598.50 L 956.10 608.10 L 952.30 617.30 L 947.80 626.30 L 942.70 634.90 L 937.10 643.30 L 931.10 651.20 L 924.50 658.80 L 917.30 666.00 L 911.30 671.30 L 905.10 676.40 L 898.50 681.20 L 891.60 685.60 L 884.40 689.80 L 877.10 693.50 L 869.50 696.80 L 861.60 699.80 L 853.50 702.40 L 845.10 704.60 L 836.60 706.30 L 828.10 707.50 L 819.80 708.30 L 811.50 708.60 L 803.20 708.50 L 795.00 707.90 L 786.80 707.00 L 778.90 705.60 L 771.00 703.80 L 763.20 701.50 L 753.70 698.20 L 744.40 694.30 L 735.50 689.80 L 726.80 684.80 L 718.50 679.20 L 710.50 673.10 L 703.00 666.50 L 695.80 659.40 L 690.40 653.40 L 685.30 647.10 L 680.60 640.50 L 676.10 633.70 L 672.00 626.50 L 668.20 619.10 L 664.90 611.50 L 661.90 603.70 L 659.30 595.60 L 657.10 587.10 L 655.40 578.60 L 654.20 570.20 L 653.40 561.80 L 653.10 553.50 L 653.20 545.30 L 653.80 537.00 L 654.80 528.90 L 656.20 520.90 L 658.00 513.00 L 660.20 505.20 L 663.50 495.70 L 667.40 486.50 L 671.90 477.50 L 676.90 468.80 L 682.50 460.50 L 688.60 452.50 L 695.20 445.00 L 702.30 437.80 L 708.30 432.40 L 714.60 427.30 L 721.20 422.60 L 728.10 418.10 L 735.20 414.00 L 742.60 410.30 L 750.20 406.90 L 758.00 403.90 L 766.20 401.40 L 774.60 399.20 L 783.10 397.40 L 791.60 396.20 L 799.90 395.40 L 808.20 395.10 L 816.40 395.20 L 824.70 395.80 L 832.80 396.80 L 840.80 398.20 L 848.70 400.00 L 856.50 402.20 L 866.00 405.60 L 875.20 409.40 L 884.20 413.90 L 892.90 419.00 L 901.20 424.60 L 909.20 430.60 L 916.70 437.20 L 923.90 444.40 L 929.30 450.40 L 934.40 456.70 L 939.10 463.20 L 943.60 470.10 L 947.70 477.30 L 951.40 484.60 L 954.80 492.20 L 957.70 500.10 L 960.30 508.20 L 962.50 516.60 Z" fill="#ffffff" fill-rule="evenodd" group-id="1,2,7,12" node-id="71" stroke="none" target-height="313.49997" target-width="313.5" target-x="653.1" target-y="395.1"></path></g><g node-id="94"><path d="M 806.30 609.30 L 804.20 613.40 L 802.70 617.30 L 801.90 621.10 L 801.50 624.90 L 801.80 628.70 L 802.50 632.40 L 803.90 636.20 L 805.90 640.20 L 808.50 644.20 L 812.00 648.40 L 816.30 652.70 L 826.00 660.60 L 838.50 668.70 L 852.70 676.00 L 858.70 678.60 L 871.40 683.20 L 877.90 686.40 L 881.10 687.60 L 888.90 689.60 L 896.10 690.20 L 901.90 689.50 L 921.30 685.30 L 932.00 682.10 L 937.10 680.10 L 941.30 677.90 L 943.80 676.10 L 945.80 674.30 L 947.30 672.40 L 948.60 669.10 L 948.80 667.30 L 948.50 665.40 L 947.10 660.00 L 943.10 650.00 L 937.70 640.70 L 931.10 632.50 L 923.30 625.20 L 914.60 619.20 L 905.10 614.50 L 900.00 612.60 L 894.80 611.20 L 889.30 610.10 L 823.70 599.80 L 818.60 600.30 L 813.80 602.20 L 809.60 605.20 L 806.30 609.30 Z" fill="#eae8e8" fill-rule="evenodd" group-id="1,2,7,13" id="路径-21" node-id="22" stroke="none" target-height="90.400024" target-width="147.29999" target-x="801.5" target-y="599.8"></path></g><path d="M 891.10 416.70 L 891.60 420.30 L 891.40 423.70 L 890.70 427.00 L 889.40 430.10 L 887.70 432.90 L 885.50 435.40 L 882.80 437.50 L 879.80 439.10 L 876.40 440.20 L 872.90 440.70 L 869.50 440.50 L 866.20 439.80 L 863.10 438.50 L 860.30 436.80 L 857.80 434.60 L 855.70 431.90 L 854.10 428.90 L 853.00 425.50 L 852.50 422.00 L 852.70 418.60 L 853.40 415.30 L 854.70 412.20 L 856.40 409.40 L 858.60 406.90 L 861.30 404.80 L 864.20 403.20 L 867.60 402.10 L 871.20 401.60 L 874.60 401.80 L 877.90 402.50 L 881.00 403.80 L 883.80 405.50 L 886.30 407.70 L 888.40 410.40 L 890.00 413.30 L 891.10 416.70 Z" fill="#eae8e8" fill-rule="evenodd" group-id="1,2,7,14" node-id="80" stroke="none" target-height="39.100006" target-width="39.099976" target-x="852.5" target-y="401.6"></path></g><path d="M 809.90 481.30 L 809.60 485.40 L 808.80 489.40 L 807.50 493.20 L 805.70 496.90 L 803.50 500.30 L 800.80 503.40 L 797.60 506.10 L 794.30 508.40 L 790.60 510.20 L 786.80 511.50 L 782.80 512.30 L 778.60 512.50 L 774.50 512.30 L 770.50 511.50 L 766.70 510.20 L 763.00 508.40 L 759.60 506.10 L 756.50 503.40 L 753.80 500.30 L 751.50 496.90 L 749.70 493.20 L 748.40 489.40 L 747.60 485.40 L 747.40 481.30 L 747.60 477.10 L 748.40 473.20 L 749.70 469.30 L 751.50 465.60 L 753.80 462.30 L 756.50 459.10 L 759.60 456.40 L 763.00 454.20 L 766.70 452.40 L 770.50 451.10 L 774.50 450.30 L 778.60 450.00 L 782.80 450.30 L 786.80 451.10 L 790.60 452.40 L 794.30 454.20 L 797.60 456.40 L 800.80 459.10 L 803.50 462.30 L 805.70 465.60 L 807.50 469.30 L 808.80 473.20 L 809.60 477.10 L 809.90 481.30 Z" fill="#eae8e8" fill-rule="evenodd" group-id="1,2" id="椭圆形" node-id="24" stroke="none" target-height="62.5" target-width="62.5" target-x="747.4" target-y="450"></path><g node-id="89"><path d="M 942.30 467.70 L 952.40 464.70 L 969.70 460.30 L 978.00 458.70 L 991.40 457.10 L 997.00 457.00 L 1001.60 457.40 L 1005.20 458.10 L 1008.50 459.40 L 1009.70 460.40 L 1010.60 461.60 L 1011.10 462.90 L 1011.20 464.50 L 1010.40 468.00 L 1009.00 471.40 L 1006.80 475.30 L 1003.50 480.00 L 994.70 490.20 L 988.70 496.10 L 975.40 508.10 L 967.30 514.70 L 944.10 532.40 L 930.20 542.10 L 901.10 561.10 L 868.20 580.90 L 832.60 600.60 L 796.20 619.20 L 761.50 635.30 L 729.40 648.90 L 699.20 660.00 L 686.00 664.30 L 666.90 669.70 L 650.30 673.30 L 643.10 674.30 L 637.00 674.90 L 631.30 675.00 L 626.70 674.70 L 621.30 673.30 L 618.60 671.60 L 617.80 670.40 L 617.30 669.10 L 617.20 667.50 L 617.90 664.00 L 619.30 660.60 L 621.50 656.70 L 624.80 652.00 L 633.60 641.90 L 639.60 635.90 L 652.90 623.90 L 661.00 617.30 L 684.30 599.60 L 698.10 589.90 L 727.20 570.90 L 760.10 551.10 L 795.80 531.40 L 832.10 512.90 L 866.80 496.70 L 898.90 483.20 L 914.70 477.10 L 942.30 467.70 Z" fill="none" group-id="1,2,8" id="椭圆形" node-id="25" stroke="#555555" stroke-linecap="butt" stroke-width="7.8198667" target-height="218" target-width="394" target-x="617.2" target-y="457"></path></g><g node-id="90"><path d="M 657.90 589.70 L 660.60 599.50 L 663.30 607.70 L 666.10 614.40 L 668.90 619.80 L 671.60 624.10 L 674.30 627.50 L 677.10 630.10 L 678.10 630.60 L 680.10 630.70 L 683.70 630.10 L 689.60 628.30 L 698.50 625.00 L 711.70 619.30 L 730.10 610.60 L 755.10 598.00 L 788.20 580.70 L 831.00 557.60 L 885.10 527.60 L 952.60 489.60 L 948.60 480.20 L 944.90 472.40 L 941.30 466.00 L 937.80 460.80 L 934.50 456.70 L 931.30 453.50 L 928.30 451.00 L 925.40 449.20 L 922.50 448.10 L 919.70 447.40 L 917.70 447.50 L 913.90 448.40 L 907.20 450.80 L 896.60 455.50 L 880.70 463.30 L 857.80 475.20 L 826.20 492.40 L 783.90 516.20 L 728.60 548.10 L 657.90 589.70 Z" fill="#ffffff" fill-rule="evenodd" group-id="1,2,9" id="路径-20" node-id="26" stroke="none" target-height="183.30002" target-width="294.69995" target-x="657.9" target-y="447.4"></path></g><path d="M 917.30 257.60 L 1403.00 279.70 L 1402.70 288.00 L 917.00 265.90 L 917.30 257.60 Z M 254.30 319.90 L 735.20 248.90 L 736.50 257.10 L 255.60 328.10 L 254.30 319.90 Z" fill="#5b5b5d" fill-rule="nonzero" group-id="1,2" id="路径-2备份-2" node-id="27" stroke="none" target-height="79.20001" target-width="1148.7" target-x="254.3" target-y="248.9"></path><g node-id="91"><path d="M 1288.20 217.00 L 1285.60 219.30 L 1282.10 223.70 L 1279.80 228.70 L 1278.70 234.20 L 1278.60 237.40 L 1279.00 240.50 L 1279.80 243.50 L 1280.90 246.30 L 1284.20 251.30 L 1288.60 255.40 L 1291.20 257.00 L 1294.00 258.20 L 1297.00 259.10 L 1300.10 259.60 L 1304.60 259.40 L 1310.40 257.70 L 1314.70 255.60 L 1318.70 252.90 L 1322.30 249.70 L 1325.30 246.30 L 1327.10 243.80 L 1329.40 239.10 L 1330.30 235.50 L 1330.60 232.10 L 1330.20 228.90 L 1329.30 225.90 L 1328.00 223.00 L 1326.20 220.40 L 1324.00 218.10 L 1321.50 216.00 L 1318.60 214.20 L 1315.60 212.80 L 1312.30 211.80 L 1308.90 211.10 L 1305.40 210.90 L 1301.90 211.10 L 1298.30 211.80 L 1294.90 213.00 L 1291.50 214.70 L 1288.20 217.00 Z M 1322.60 236.80 L 1321.40 239.30 L 1319.50 242.00 L 1317.10 244.60 L 1314.30 247.10 L 1311.30 249.20 L 1308.10 250.90 L 1303.80 252.20 L 1300.60 252.40 L 1297.70 251.80 L 1295.10 250.90 L 1292.70 249.50 L 1290.60 247.70 L 1288.80 245.60 L 1287.40 243.20 L 1286.40 240.50 L 1285.90 237.80 L 1285.90 234.80 L 1286.40 231.90 L 1287.40 229.20 L 1288.80 226.70 L 1292.70 222.70 L 1295.50 220.70 L 1298.40 219.40 L 1301.30 218.50 L 1304.30 218.20 L 1307.20 218.20 L 1312.80 219.50 L 1317.60 222.10 L 1319.50 223.90 L 1321.10 225.90 L 1322.30 228.10 L 1323.00 230.50 L 1323.30 233.00 L 1322.60 236.80 Z" fill="#555555" fill-rule="nonzero" group-id="1,2,10" id="路径-3" node-id="28" stroke="none" target-height="48.700012" target-width="52" target-x="1278.6" target-y="210.9"></path></g><path d="M 1195.10 202.70 L 1192.50 205.00 L 1189.10 209.30 L 1186.70 214.40 L 1185.60 219.80 L 1185.60 223.10 L 1185.90 226.20 L 1186.70 229.10 L 1187.90 232.00 L 1191.10 237.00 L 1195.50 241.10 L 1198.10 242.60 L 1200.90 243.90 L 1203.90 244.80 L 1207.10 245.20 L 1211.60 245.00 L 1217.40 243.40 L 1221.60 241.20 L 1225.60 238.50 L 1229.20 235.40 L 1232.30 231.90 L 1234.10 229.50 L 1236.40 224.70 L 1237.30 221.10 L 1237.50 217.70 L 1237.20 214.60 L 1236.30 211.50 L 1234.90 208.70 L 1233.10 206.10 L 1230.90 203.70 L 1228.40 201.70 L 1225.60 199.90 L 1222.50 198.50 L 1219.30 197.40 L 1215.80 196.80 L 1212.40 196.60 L 1208.80 196.80 L 1205.20 197.50 L 1201.80 198.60 L 1198.40 200.40 L 1195.10 202.70 Z M 1229.50 222.40 L 1228.40 224.90 L 1226.40 227.70 L 1224.10 230.30 L 1221.30 232.70 L 1218.20 234.90 L 1215.10 236.50 L 1210.80 237.90 L 1207.50 238.00 L 1204.60 237.50 L 1202.00 236.50 L 1199.60 235.10 L 1197.50 233.30 L 1195.80 231.20 L 1194.40 228.80 L 1193.40 226.20 L 1192.90 223.40 L 1192.80 220.40 L 1193.30 217.60 L 1194.30 214.90 L 1195.70 212.40 L 1199.70 208.30 L 1202.50 206.40 L 1205.30 205.00 L 1208.30 204.20 L 1211.30 203.80 L 1214.20 203.90 L 1219.80 205.20 L 1224.50 207.80 L 1226.50 209.60 L 1228.10 211.60 L 1229.30 213.80 L 1230.00 216.10 L 1230.20 218.60 L 1229.50 222.40 Z" fill="#555555" fill-rule="nonzero" group-id="1,2,11" id="路径-3备份-5" node-id="29" stroke="none" target-height="48.59999" target-width="51.900024" target-x="1185.6" target-y="196.6"></path></g><path d="M 806.10 428.40 L 782.40 444.60 L 763.00 259.70 L 845.60 291.00 L 836.00 352.10 L 872.50 344.00 L 801.90 515.20 Z" fill="#3681fd" fill-rule="nonzero" group-id="1,3" id="路径" node-id="31" stroke="none" target-height="255.5" target-width="109.5" target-x="763" target-y="259.7"></path></g></svg>