<?xml version="1.0" standalone="no"?><!DOCTYPE svg PUBLIC "-//W3C//DTD SVG 1.1//EN" "http://www.w3.org/Graphics/SVG/1.1/DTD/svg11.dtd"><svg height="1024" node-id="1" sillyvg="true" template-height="1024" template-width="1630" version="1.1" viewBox="0 0 1630 1024" width="1630" xmlns="http://www.w3.org/2000/svg" xmlns:xlink="http://www.w3.org/1999/xlink"><defs node-id="28"></defs><g node-id="30"><g node-id="31"><g node-id="32"><g node-id="33"><path d="M 1007.80 250.90 L 1030.50 251.10 L 1052.90 251.90 L 1075.00 253.30 L 1096.80 255.20 L 1114.30 257.20 L 1131.50 259.60 L 1148.50 262.40 L 1165.10 265.50 L 1181.60 269.00 L 1198.00 273.00 L 1214.10 277.50 L 1229.90 282.30 L 1245.30 287.60 L 1260.40 293.30 L 1275.50 299.50 L 1290.10 306.10 L 1304.40 313.30 L 1318.20 320.90 L 1331.80 328.90 L 1342.80 336.00 L 1353.60 343.50 L 1364.10 351.30 L 1374.30 359.50 L 1384.20 368.10 L 1393.90 377.00 L 1403.10 386.20 L 1412.10 395.90 L 1420.80 405.90 L 1429.20 416.40 L 1437.30 427.30 L 1445.10 438.60 L 1452.30 450.00 L 1459.20 461.90 L 1465.90 474.30 L 1472.10 487.20 L 1478.10 500.70 L 1483.70 514.60 L 1488.70 528.40 L 1493.30 542.70 L 1497.60 557.70 L 1501.50 573.20 L 1505.00 589.30 L 1508.10 606.10 L 1510.60 622.40 L 1512.70 639.40 L 1514.40 657.00 L 1515.60 675.30 L 1516.30 694.30 L 1516.60 714.10 L 1516.30 741.00 L 1515.60 764.70 L 1514.40 785.50 L 1513.10 801.40 L 1511.60 815.60 L 1507.80 839.60 L 1505.30 851.30 L 1502.60 861.60 L 1499.80 870.60 L 1496.80 878.50 L 1493.80 884.90 L 1490.80 890.70 L 1487.70 895.70 L 1484.40 900.20 L 1481.10 904.10 L 1477.40 907.90 L 1473.50 911.20 L 1469.40 914.00 L 1465.20 916.50 L 1460.80 918.50 L 1455.20 920.50 L 1449.10 922.10 L 1442.70 923.10 L 1435.90 923.70 L 1429.10 923.80 L 1414.30 922.80 L 1406.10 921.60 L 1383.90 917.30 L 1352.60 909.50 L 1287.40 892.30 L 1255.10 885.00 L 1237.70 881.50 L 1220.30 878.50 L 1202.00 875.90 L 1182.90 873.60 L 1153.90 871.30 L 1122.90 870.50 L 1094.30 871.30 L 1077.10 872.20 L 1020.90 876.70 L 921.50 886.00 L 847.30 892.30 L 782.40 896.60 L 729.20 898.90 L 702.50 899.50 L 675.70 899.80 L 648.90 899.70 L 622.10 899.10 L 595.60 897.90 L 569.30 896.30 L 549.60 894.60 L 511.10 890.20 L 492.30 887.50 L 473.50 884.30 L 455.20 880.70 L 437.30 876.70 L 419.80 872.30 L 405.80 868.30 L 392.20 864.00 L 379.00 859.40 L 366.10 854.50 L 353.60 849.30 L 343.00 844.50 L 332.80 839.30 L 322.90 833.90 L 313.30 828.10 L 304.00 822.10 L 292.70 814.10 L 281.80 805.70 L 271.40 797.00 L 261.40 787.90 L 251.70 778.50 L 242.50 768.80 L 233.70 758.80 L 225.30 748.70 L 209.40 727.60 L 195.20 706.10 L 186.30 691.50 L 178.10 676.80 L 170.60 662.20 L 163.50 647.40 L 157.00 633.00 L 151.10 618.80 L 140.60 590.80 L 136.20 577.70 L 130.20 558.20 L 125.50 540.70 L 121.40 523.90 L 118.30 509.70 L 115.90 496.50 L 113.30 477.90 L 113.00 473.20 L 113.10 459.70 L 113.70 446.30 L 114.70 433.00 L 116.20 419.60 L 118.10 406.40 L 120.40 393.20 L 123.20 380.20 L 126.20 367.30 L 130.90 350.30 L 136.20 333.60 L 141.90 317.40 L 148.20 301.40 L 154.80 285.90 L 161.70 271.00 L 169.20 256.40 L 176.80 242.50 L 184.50 229.40 L 192.60 216.60 L 200.70 204.70 L 208.70 193.80 L 217.20 183.10 L 225.30 173.60 L 233.10 165.20 L 239.40 159.00 L 251.00 148.90 L 256.40 144.90 L 264.80 139.30 L 273.40 134.20 L 282.40 129.50 L 291.60 125.40 L 301.20 121.70 L 310.80 118.40 L 320.80 115.60 L 331.00 113.20 L 341.50 111.20 L 352.30 109.60 L 365.80 108.20 L 379.60 107.30 L 393.90 106.90 L 408.60 107.10 L 423.20 107.80 L 438.10 108.90 L 453.40 110.50 L 469.00 112.50 L 489.60 115.80 L 510.70 119.70 L 532.30 124.30 L 553.70 129.30 L 597.40 140.70 L 630.20 150.20 L 695.90 170.60 L 823.10 211.80 L 852.90 220.90 L 891.70 231.80 L 909.90 236.50 L 928.30 240.70 L 945.60 244.20 L 961.90 247.00 L 974.40 248.70 L 986.20 249.90 L 997.30 250.60 L 1007.80 250.90 Z" fill="#eff0f9" fill-rule="evenodd" group-id="1,2,3,4" id="椭圆形备份-13" node-id="8" stroke="none" target-height="816.89996" target-width="1403.6" target-x="113" target-y="106.9"></path></g><path d="M 174.90 522.80 L 254.70 527.70 L 254.70 585.30 L 150.70 590.30 L 150.70 547.00 L 151.00 543.70 L 151.60 540.50 L 152.60 537.60 L 155.80 532.20 L 160.20 527.80 L 162.70 526.10 L 165.50 524.70 L 168.50 523.70 L 171.60 523.00 L 174.90 522.80 Z" fill="#ffffff" fill-rule="evenodd" group-id="1,2,3" id="矩形" node-id="9" stroke="#555555" stroke-linecap="butt" stroke-width="7.2" target-height="67.5" target-width="104" target-x="150.7" target-y="522.8"></path><path d="M 1185.00 176.60 L 1175.50 221.00 L 1167.40 261.20 L 1160.60 297.70 L 1155.10 330.50 L 1150.60 359.90 L 1147.20 386.30 L 1144.70 409.70 L 1143.00 430.60 L 1142.10 449.00 L 1141.80 465.10 L 1142.10 480.50 L 1143.00 496.90 L 1144.50 514.40 L 1146.60 532.90 L 1149.50 552.70 L 1153.20 573.60 L 1157.70 595.80 L 1163.00 619.40 L 1169.30 644.40 L 1176.50 670.90 L 1184.70 698.90 L 450.70 698.90 L 532.80 438.10 L 532.80 213.90 Z" fill="#3681fd" fill-rule="evenodd" group-id="1,2,3" id="矩形" node-id="10" stroke="#333333" stroke-linecap="butt" stroke-width="6.94857" target-height="522.30005" target-width="734.3" target-x="450.7" target-y="176.6"></path><g node-id="34"><path d="M 373.20 816.80 L 386.20 818.00 L 399.10 818.60 L 411.80 818.60 L 424.30 818.10 L 436.60 817.00 L 449.00 815.40 L 461.30 813.30 L 473.40 810.70 L 485.30 807.60 L 497.10 804.00 L 508.80 799.90 L 520.40 795.40 L 531.80 790.40 L 543.10 784.90 L 554.20 779.00 L 565.10 772.70 L 575.90 766.00 L 586.50 758.80 L 597.00 751.20 L 607.40 743.20 L 617.40 735.00 L 634.30 719.90 L 646.20 708.20 L 659.80 693.50 L 669.60 681.70 L 675.70 673.90 L 685.70 659.20 L 690.10 651.80 L 693.70 645.00 L 696.50 638.70 L 699.60 629.20 L 700.40 625.00 L 700.80 619.80 L 617.40 619.80 L 617.90 613.10 L 619.40 608.00 L 615.30 614.90 L 609.80 622.60 L 599.20 635.80 L 591.50 644.50 L 583.30 653.00 L 574.50 661.50 L 565.30 669.70 L 555.60 677.80 L 544.90 685.90 L 534.10 693.40 L 523.30 700.30 L 512.40 706.60 L 501.30 712.30 L 491.80 716.60 L 482.30 720.50 L 472.60 724.00 L 463.00 726.90 L 453.20 729.50 L 443.40 731.50 L 433.40 733.20 L 423.40 734.30 L 413.30 734.90 L 403.20 735.00 L 392.90 734.60 L 376.60 733.00 L 359.90 730.30 L 348.90 727.90 L 338.70 725.10 L 329.20 721.80 L 320.40 718.30 L 312.20 714.30 L 304.70 710.10 L 297.70 705.50 L 291.70 700.90 L 286.10 696.10 L 280.90 690.90 L 276.00 685.30 L 271.50 679.40 L 267.40 673.10 L 263.60 666.40 L 260.10 659.40 L 256.90 651.40 L 254.00 642.90 L 251.40 633.70 L 249.30 623.90 L 247.60 613.40 L 246.30 602.20 L 245.40 587.20 L 162.10 590.20 L 162.90 604.80 L 164.30 618.70 L 166.10 632.00 L 168.50 644.70 L 171.40 656.80 L 174.70 668.40 L 178.40 679.50 L 182.30 689.40 L 186.60 698.90 L 191.20 707.90 L 196.20 716.60 L 201.60 724.90 L 207.30 732.90 L 213.30 740.50 L 219.70 747.70 L 226.50 754.60 L 233.70 761.20 L 241.20 767.50 L 249.10 773.40 L 257.50 779.00 L 266.20 784.30 L 275.40 789.20 L 285.00 793.80 L 295.80 798.40 L 307.20 802.60 L 319.20 806.30 L 331.70 809.60 L 344.90 812.50 L 358.70 814.90 L 373.20 816.80 Z" fill="#3681fd" fill-rule="nonzero" group-id="1,2,3,5" id="路径-25" node-id="11" stroke="#555555" stroke-linecap="butt" stroke-width="7.2" target-height="231.39996" target-width="538.69995" target-x="162.1" target-y="587.2"></path></g><path d="M 254.70 586.10 L 254.70 605.50 L 150.70 608.30 L 150.70 590.50 L 254.70 586.10 Z" fill="#ffffff" fill-rule="evenodd" group-id="1,2,3" id="矩形备份-16" node-id="12" stroke="#555555" stroke-linecap="butt" stroke-width="7.2" target-height="22.200012" target-width="104" target-x="150.7" target-y="586.1"></path><path d="M 1258.10 339.80 L 1260.20 340.00 L 1262.10 340.60 L 1265.40 342.80 L 1267.60 346.00 L 1268.30 348.00 L 1268.50 350.70 L 1257.20 573.50 L 1256.20 577.30 L 1254.00 580.40 L 1250.70 582.50 L 1248.80 583.00 L 1246.80 583.20 L 425.80 576.60 L 423.70 576.40 L 420.00 574.80 L 417.30 572.00 L 415.70 568.30 L 415.60 566.20 L 426.80 356.90 L 427.80 353.10 L 430.00 350.00 L 433.20 347.90 L 437.00 347.10 Z" fill="#ffffff" fill-rule="evenodd" group-id="1,2,3" id="矩形备份-12" node-id="13" stroke="#555555" stroke-linecap="butt" stroke-width="7.2" target-height="243.40002" target-width="852.9" target-x="415.6" target-y="339.8"></path><path d="M 1239.20 103.90 L 1241.30 104.10 L 1243.20 104.60 L 1246.60 106.80 L 1248.80 110.00 L 1249.50 111.90 L 1249.70 113.90 L 1249.80 295.20 L 1249.10 298.80 L 1248.30 300.40 L 1246.00 303.10 L 1242.90 304.90 L 1241.10 305.30 L 1157.00 318.60 L 537.10 318.60 L 432.40 313.50 L 430.30 313.20 L 426.70 311.50 L 424.10 308.60 L 423.20 306.80 L 422.70 304.90 L 422.60 302.80 L 433.40 132.40 L 433.80 130.40 L 435.40 127.00 L 438.00 124.40 L 439.70 123.50 L 443.50 122.70 L 909.70 111.70 Z" fill="#ffffff" fill-rule="evenodd" group-id="1,2,3" id="矩形备份-14" node-id="14" stroke="#555555" stroke-linecap="butt" stroke-width="7.2" target-height="214.70001" target-width="827.2001" target-x="422.6" target-y="103.9"></path><path d="M 506.30 447.10 L 501.50 453.40 L 497.60 460.20 L 496.40 463.30 L 494.80 469.80 L 494.50 476.50 L 495.00 481.40 L 496.10 486.00 L 497.80 490.40 L 500.10 494.50 L 502.80 498.20 L 505.90 501.50 L 509.50 504.40 L 513.40 506.80 L 517.60 508.80 L 522.10 510.20 L 526.70 510.90 L 531.70 511.10 L 534.20 510.80 L 538.30 509.90 L 542.30 508.30 L 546.40 506.10 L 550.20 503.50 L 553.90 500.50 L 557.30 497.00 L 563.30 489.50 L 565.70 485.50 L 567.80 481.30 L 569.30 477.30 L 570.30 473.50 L 570.80 469.10 L 570.80 465.00 L 570.40 461.20 L 569.50 457.60 L 568.10 454.10 L 566.40 450.80 L 564.40 447.80 L 562.00 445.10 L 556.40 440.30 L 549.90 436.80 L 542.80 434.60 L 535.30 433.80 L 531.40 433.90 L 527.60 434.50 L 523.80 435.50 L 520.00 436.90 L 516.50 438.70 L 513.00 441.00 L 509.60 443.70 L 506.30 447.10 Z M 564.90 471.20 L 563.20 476.70 L 559.40 484.00 L 556.40 488.40 L 552.90 492.60 L 549.20 496.40 L 545.10 499.70 L 541.10 502.40 L 538.20 503.80 L 535.50 504.80 L 530.50 505.60 L 526.50 505.50 L 522.70 504.90 L 519.10 503.70 L 515.60 502.10 L 512.40 500.10 L 509.50 497.70 L 506.90 494.90 L 504.60 491.80 L 502.80 488.40 L 501.30 484.80 L 500.40 480.90 L 500.00 476.80 L 500.10 472.60 L 500.80 468.50 L 502.10 464.60 L 503.90 460.80 L 508.60 453.60 L 513.70 448.00 L 516.40 445.60 L 522.20 442.20 L 526.40 440.60 L 530.50 439.70 L 534.70 439.30 L 538.90 439.40 L 542.90 440.10 L 546.70 441.20 L 550.40 442.80 L 553.80 444.90 L 556.90 447.30 L 559.60 450.10 L 561.80 453.30 L 563.50 456.80 L 564.50 459.50 L 565.30 465.60 L 564.90 471.20 Z" fill="#555555" fill-rule="nonzero" group-id="1,2,3" id="路径-3备份" node-id="15" stroke="none" target-height="77.30002" target-width="76.29999" target-x="494.5" target-y="433.8"></path><path d="M 619.20 461.10 L 617.20 468.60 L 616.50 476.10 L 616.70 479.30 L 618.20 485.50 L 621.10 491.50 L 625.60 497.30 L 631.30 502.10 L 635.60 504.70 L 640.20 506.90 L 645.20 508.50 L 650.30 509.60 L 655.50 510.10 L 660.90 510.10 L 666.20 509.40 L 671.40 508.20 L 676.60 506.30 L 679.10 505.10 L 683.00 502.60 L 686.40 499.60 L 689.60 496.10 L 692.30 492.20 L 694.70 488.10 L 696.60 483.80 L 698.10 479.20 L 699.20 474.80 L 699.70 470.40 L 699.90 465.90 L 699.50 461.90 L 698.60 458.20 L 697.40 454.70 L 693.90 448.80 L 691.70 446.30 L 688.40 443.20 L 684.70 440.60 L 680.60 438.50 L 676.30 436.90 L 671.70 435.60 L 666.90 434.90 L 662.10 434.60 L 657.20 434.70 L 652.40 435.30 L 647.50 436.40 L 642.90 437.90 L 638.40 439.90 L 634.20 442.30 L 630.40 445.20 L 626.80 448.50 L 622.40 454.30 L 619.20 461.10 Z M 691.00 458.70 L 691.70 461.90 L 692.00 465.40 L 691.80 469.40 L 690.30 477.30 L 687.30 485.40 L 683.10 492.50 L 680.50 495.60 L 677.70 498.20 L 674.70 500.20 L 672.40 501.30 L 668.30 502.70 L 664.20 503.70 L 659.90 504.20 L 655.60 504.20 L 651.40 503.70 L 647.30 502.80 L 643.30 501.50 L 639.60 499.80 L 636.10 497.70 L 633.00 495.20 L 630.20 492.30 L 627.90 489.00 L 626.00 485.40 L 624.80 481.70 L 624.40 479.20 L 624.30 474.00 L 625.70 466.10 L 628.10 459.40 L 629.80 456.30 L 634.10 451.10 L 637.60 448.20 L 641.30 445.70 L 645.40 443.70 L 649.60 442.20 L 654.00 441.20 L 658.50 440.60 L 663.00 440.50 L 667.40 440.90 L 671.60 441.70 L 675.70 443.10 L 679.50 444.90 L 682.80 447.10 L 685.10 449.10 L 688.80 453.90 L 691.00 458.70 Z" fill="#555555" fill-rule="nonzero" group-id="1,2,3" id="路径-3备份-5" node-id="16" stroke="none" target-height="75.5" target-width="83.400024" target-x="616.5" target-y="434.6"></path><path d="M 1105.60 189.40 L 1103.60 196.90 L 1102.90 204.30 L 1103.10 207.50 L 1104.60 213.80 L 1107.50 219.70 L 1112.00 225.60 L 1117.70 230.40 L 1122.00 233.00 L 1126.60 235.10 L 1131.60 236.80 L 1136.70 237.80 L 1141.90 238.40 L 1147.30 238.30 L 1152.60 237.70 L 1157.80 236.50 L 1163.00 234.60 L 1165.50 233.40 L 1169.40 230.90 L 1172.80 227.90 L 1176.00 224.40 L 1178.70 220.50 L 1181.10 216.40 L 1183.00 212.00 L 1184.50 207.50 L 1185.60 203.00 L 1186.10 198.60 L 1186.30 194.20 L 1185.90 190.10 L 1185.00 186.40 L 1183.80 183.00 L 1180.30 177.10 L 1178.10 174.50 L 1174.80 171.50 L 1171.10 168.90 L 1167.00 166.80 L 1162.70 165.10 L 1158.10 163.90 L 1153.30 163.10 L 1148.50 162.80 L 1143.60 163.00 L 1138.80 163.60 L 1133.90 164.70 L 1129.30 166.20 L 1124.80 168.10 L 1120.60 170.60 L 1116.80 173.40 L 1113.20 176.80 L 1108.80 182.50 L 1105.60 189.40 Z M 1177.40 187.00 L 1178.10 190.10 L 1178.40 193.70 L 1178.20 197.60 L 1176.70 205.60 L 1173.70 213.60 L 1169.50 220.70 L 1166.90 223.90 L 1164.10 226.40 L 1161.10 228.40 L 1158.80 229.50 L 1154.70 231.00 L 1150.60 231.90 L 1146.30 232.40 L 1142.00 232.40 L 1137.80 232.00 L 1133.70 231.10 L 1129.70 229.80 L 1126.00 228.10 L 1122.50 225.90 L 1119.40 223.40 L 1116.60 220.50 L 1114.30 217.30 L 1112.40 213.70 L 1111.20 210.00 L 1110.80 207.40 L 1110.70 202.30 L 1112.10 194.40 L 1114.50 187.60 L 1116.20 184.60 L 1120.50 179.40 L 1124.00 176.40 L 1127.70 174.00 L 1131.80 172.00 L 1136.00 170.50 L 1140.40 169.40 L 1144.90 168.90 L 1149.40 168.80 L 1153.80 169.20 L 1158.00 170.00 L 1162.10 171.30 L 1165.90 173.10 L 1169.20 175.40 L 1171.50 177.40 L 1175.20 182.10 L 1177.40 187.00 Z" fill="#555555" fill-rule="nonzero" group-id="1,2,3" id="路径-3备份-13" node-id="17" stroke="none" target-height="75.59999" target-width="83.400024" target-x="1102.9" target-y="162.8"></path><path d="M 1162.60 603.90 L 1260.10 624.60 L 1261.90 625.20 L 1265.00 627.20 L 1267.20 630.10 L 1267.90 631.80 L 1268.20 635.60 L 1250.80 849.80 L 1250.40 851.80 L 1248.80 855.10 L 1246.10 857.70 L 1244.40 858.50 L 1240.70 859.30 L 425.60 871.10 L 423.60 870.90 L 421.60 870.30 L 418.30 868.20 L 416.10 864.90 L 415.40 863.00 L 415.20 860.90 L 421.50 642.90 L 421.70 640.90 L 422.40 639.00 L 424.60 635.80 L 427.90 633.70 L 480.20 612.50 L 1162.60 603.90 Z" fill="#ffffff" fill-rule="evenodd" group-id="1,2,3" id="矩形备份-13" node-id="18" stroke="#555555" stroke-linecap="butt" stroke-width="7.2" target-height="267.19995" target-width="852.99994" target-x="415.2" target-y="603.9"></path><path d="M 479.30 618.40 L 1159.80 610.30 L 1259.40 634.10 L 1253.40 720.20 L 1191.30 704.30 L 1152.30 637.70 L 485.80 670.20 L 465.40 684.90 L 429.70 684.90 L 429.70 641.80 L 479.30 618.40 Z" fill="#f4f4f4" fill-rule="evenodd" group-id="1,2,3" id="矩形备份-13" node-id="19" stroke="none" target-height="109.900024" target-width="829.7" target-x="429.7" target-y="610.3"></path><g node-id="35"><path d="M 430.10 306.70 L 536.20 312.50 L 1158.70 312.50 L 1161.70 312.20 L 1241.10 294.90 L 1241.10 275.40 L 432.00 281.40 L 430.10 306.70 Z" fill="#f4f4f4" fill-rule="evenodd" group-id="1,2,3,6" id="矩形备份-15" node-id="20" stroke="none" target-height="37.100006" target-width="811" target-x="430.1" target-y="275.4"></path></g><path d="M 1125.60 299.30 L 1131.80 304.50 L 1137.00 310.70 L 1313.50 565.60 L 1315.90 569.50 L 1317.80 573.40 L 1319.30 577.40 L 1320.40 581.50 L 1321.40 589.90 L 1321.30 594.00 L 1320.80 598.10 L 1319.90 602.20 L 1318.70 606.00 L 1317.00 609.80 L 1315.00 613.40 L 1312.60 616.80 L 1309.90 620.00 L 1306.80 622.90 L 1303.20 625.50 L 1299.60 627.80 L 1295.70 629.60 L 1291.70 631.00 L 1287.60 632.00 L 1283.30 632.50 L 1279.00 632.70 L 934.60 626.80 L 930.10 626.50 L 925.80 625.80 L 921.70 624.70 L 917.70 623.10 L 913.90 621.20 L 910.30 619.00 L 906.90 616.50 L 903.80 613.60 L 898.40 607.10 L 894.30 599.70 L 892.80 595.70 L 891.70 591.60 L 891.00 587.30 L 890.60 582.80 L 890.80 578.50 L 891.40 574.20 L 892.40 570.10 L 893.80 566.00 L 895.60 562.20 L 897.80 558.50 L 1065.70 309.50 L 1068.40 306.00 L 1071.30 302.90 L 1074.50 300.10 L 1077.80 297.70 L 1081.50 295.70 L 1085.20 294.10 L 1089.10 292.80 L 1097.20 291.40 L 1101.40 291.30 L 1105.50 291.60 L 1109.70 292.30 L 1113.80 293.40 L 1117.80 294.90 L 1121.70 296.90 L 1125.60 299.30 Z M 1112.00 533.70 L 1107.00 534.00 L 1103.90 534.90 L 1101.10 536.30 L 1098.50 538.20 L 1096.30 540.40 L 1094.40 543.10 L 1093.10 546.10 L 1092.20 549.20 L 1091.90 552.70 L 1092.20 556.20 L 1093.10 559.30 L 1094.40 562.30 L 1096.30 565.00 L 1098.50 567.20 L 1101.10 569.10 L 1103.90 570.50 L 1107.00 571.40 L 1110.40 571.70 L 1115.40 571.40 L 1118.50 570.50 L 1121.40 569.10 L 1124.00 567.20 L 1126.20 565.00 L 1128.00 562.30 L 1129.40 559.30 L 1130.30 556.20 L 1130.60 552.70 L 1130.30 549.20 L 1129.40 546.10 L 1128.00 543.10 L 1126.20 540.40 L 1124.00 538.20 L 1121.40 536.30 L 1118.50 534.90 L 1115.40 534.00 L 1112.00 533.70 Z M 1138.60 393.30 L 1083.70 393.30 L 1081.00 393.90 L 1079.70 394.70 L 1078.60 395.90 L 1077.80 397.30 L 1077.40 398.80 L 1077.40 400.60 L 1093.40 506.00 L 1094.70 510.30 L 1097.20 513.80 L 1100.70 516.40 L 1104.70 517.80 L 1114.70 518.00 L 1119.00 517.30 L 1121.00 516.40 L 1124.40 513.80 L 1126.90 510.30 L 1127.80 508.20 L 1144.80 400.60 L 1144.70 397.90 L 1144.00 396.40 L 1143.10 395.20 L 1141.80 394.20 L 1140.30 393.50 L 1138.60 393.30 Z" fill="#f62234" fill-rule="nonzero" group-id="1,2,3" id="形状结合" node-id="21" stroke="none" target-height="341.40002" target-width="430.80005" target-x="890.6" target-y="291.3"></path><path d="M 980.20 729.80 L 974.80 736.90 L 970.50 744.50 L 969.10 747.90 L 967.40 755.20 L 967.00 762.60 L 967.30 766.80 L 968.10 770.70 L 970.70 778.10 L 974.70 784.80 L 979.80 790.60 L 985.90 795.20 L 992.80 798.70 L 996.50 799.90 L 1000.30 800.70 L 1004.30 801.20 L 1008.50 801.20 L 1014.90 800.20 L 1018.60 798.90 L 1022.20 797.20 L 1029.20 792.80 L 1032.50 790.10 L 1037.10 785.50 L 1041.30 780.60 L 1044.90 775.30 L 1047.90 770.00 L 1050.70 762.70 L 1051.50 759.30 L 1052.10 754.40 L 1052.10 749.80 L 1051.60 745.60 L 1050.60 741.50 L 1049.10 737.60 L 1047.20 734.00 L 1045.00 730.70 L 1042.30 727.60 L 1039.30 724.80 L 1036.10 722.30 L 1032.60 720.20 L 1028.80 718.40 L 1020.90 715.90 L 1016.80 715.30 L 1012.50 715.00 L 1008.20 715.20 L 1004.00 715.80 L 999.70 716.90 L 995.50 718.50 L 991.50 720.50 L 987.60 723.00 L 983.90 726.10 L 980.20 729.80 Z M 1045.50 756.70 L 1043.70 762.80 L 1039.40 771.10 L 1036.00 776.00 L 1032.20 780.60 L 1028.00 784.80 L 1022.00 789.60 L 1015.80 793.10 L 1012.70 794.20 L 1007.20 795.10 L 1002.70 795.00 L 998.50 794.30 L 994.40 793.00 L 990.50 791.20 L 987.00 788.90 L 983.70 786.20 L 980.80 783.10 L 978.30 779.70 L 976.20 775.90 L 974.60 771.90 L 973.60 767.60 L 973.10 763.00 L 973.50 756.80 L 974.90 750.80 L 977.50 745.10 L 982.70 737.10 L 988.40 730.80 L 991.50 728.20 L 994.70 726.10 L 998.00 724.40 L 1004.90 722.00 L 1011.80 721.10 L 1016.50 721.30 L 1021.00 722.00 L 1025.30 723.30 L 1029.40 725.10 L 1033.20 727.40 L 1036.60 730.10 L 1038.90 732.40 L 1042.60 737.70 L 1045.10 743.70 L 1045.70 747.00 L 1046.00 750.50 L 1045.50 756.70 Z" fill="#555555" fill-rule="nonzero" group-id="1,2,3" id="路径-3备份-7" node-id="22" stroke="none" target-height="86.20001" target-width="85.099976" target-x="967" target-y="715"></path><path d="M 1105.60 746.80 L 1103.60 754.30 L 1102.90 761.70 L 1103.10 764.90 L 1104.60 771.20 L 1107.50 777.10 L 1112.00 783.00 L 1117.70 787.80 L 1122.00 790.40 L 1126.60 792.50 L 1131.60 794.20 L 1136.70 795.20 L 1141.90 795.80 L 1147.30 795.70 L 1152.60 795.10 L 1157.80 793.90 L 1163.00 792.00 L 1165.50 790.80 L 1169.40 788.30 L 1172.80 785.30 L 1176.00 781.80 L 1178.70 777.90 L 1181.10 773.80 L 1183.00 769.40 L 1184.50 764.90 L 1185.60 760.50 L 1186.10 756.00 L 1186.30 751.60 L 1185.90 747.50 L 1185.00 743.80 L 1183.80 740.40 L 1182.20 737.30 L 1180.30 734.50 L 1178.10 731.90 L 1174.80 728.90 L 1171.10 726.30 L 1167.00 724.20 L 1162.70 722.50 L 1158.10 721.30 L 1153.30 720.60 L 1148.50 720.30 L 1143.60 720.40 L 1138.80 721.00 L 1133.90 722.10 L 1129.30 723.60 L 1124.80 725.60 L 1120.60 728.00 L 1116.80 730.90 L 1113.20 734.20 L 1108.80 739.90 L 1105.60 746.80 Z M 1177.40 744.40 L 1178.10 747.60 L 1178.40 751.10 L 1178.20 755.10 L 1176.70 763.00 L 1173.70 771.10 L 1169.50 778.20 L 1166.90 781.30 L 1164.10 783.80 L 1161.10 785.80 L 1158.80 786.90 L 1154.70 788.40 L 1150.60 789.40 L 1146.30 789.80 L 1142.00 789.80 L 1137.80 789.40 L 1133.70 788.50 L 1129.70 787.20 L 1126.00 785.50 L 1122.50 783.40 L 1119.40 780.80 L 1116.60 778.00 L 1114.30 774.70 L 1112.40 771.10 L 1111.20 767.40 L 1110.80 764.90 L 1110.70 759.70 L 1112.10 751.80 L 1114.50 745.00 L 1116.20 742.00 L 1120.50 736.80 L 1124.00 733.80 L 1127.70 731.40 L 1131.80 729.40 L 1136.00 727.90 L 1140.40 726.90 L 1144.90 726.30 L 1149.40 726.20 L 1153.80 726.60 L 1158.00 727.40 L 1162.10 728.80 L 1165.90 730.50 L 1169.20 732.80 L 1171.50 734.80 L 1173.50 737.00 L 1175.20 739.50 L 1177.40 744.40 Z" fill="#555555" fill-rule="nonzero" group-id="1,2,3" id="路径-3备份-8" node-id="23" stroke="none" target-height="75.5" target-width="83.400024" target-x="1102.9" target-y="720.3"></path><path d="M 776.30 172.70 L 771.50 192.50 L 810.90 236.30 L 753.30 249.70 L 604.20 247.30 L 475.70 244.80 L 473.60 244.60 L 470.00 243.00 L 467.30 240.10 L 465.80 236.40 L 465.60 234.30 L 471.40 180.00 L 473.20 176.70 L 475.90 174.20 L 479.40 172.90 L 481.30 172.70 L 776.30 172.70 Z" fill="#ffffff" fill-rule="evenodd" group-id="1,2,3" id="形状结合" node-id="24" stroke="#555555" stroke-linecap="butt" stroke-width="7.2" target-height="77" target-width="345.30002" target-x="465.6" target-y="172.7"></path><path d="M 184.60 522.20 L 177.60 587.20" fill="none" group-id="1,2,3" id="路径-26" node-id="25" stroke="#555555" stroke-linecap="butt" stroke-width="7.2" target-height="65" target-width="7" target-x="177.6" target-y="522.2"></path><path d="M 215.10 525.90 L 225.80 586.90" fill="none" group-id="1,2,3" id="路径-27" node-id="26" stroke="#555555" stroke-linecap="butt" stroke-width="7.2" target-height="61" target-width="10.699997" target-x="215.1" target-y="525.9"></path></g></g></g></svg>